<svg preserveAspectRatio="none" width="100%" height="100%" overflow="visible" style="display: block;" viewBox="0 0 79.8955 80" fill="none" xmlns="http://www.w3.org/2000/svg">
<path id="Ellipse 4" d="M77 40C78.6569 40 80.0117 41.3451 79.8876 42.9973C79.3328 50.3816 76.7364 57.4888 72.3607 63.5114C67.3956 70.3453 60.3944 75.4319 52.3607 78.0423C44.3269 80.6526 35.6731 80.6526 27.6393 78.0423C19.6056 75.4319 12.6044 70.3453 7.63932 63.5114C2.6742 56.6775 -7.38475e-07 48.4472 0 40C7.38475e-07 31.5528 2.6742 23.3225 7.63932 16.4886C12.6044 9.65468 19.6056 4.56806 27.6393 1.95774C34.7193 -0.342693 42.281 -0.615791 49.4753 1.13844C51.085 1.53094 51.9456 3.23515 51.4336 4.81091L50.8156 6.71302C50.3036 8.28879 48.6128 9.13633 46.996 8.77409C41.4165 7.52398 35.5841 7.78801 30.1115 9.56619C23.6845 11.6544 18.0836 15.7237 14.1115 21.1909C10.1394 26.658 8 33.2423 8 40C8 46.7577 10.1394 53.342 14.1115 58.8091C18.0836 64.2763 23.6845 68.3456 30.1115 70.4338C36.5384 72.5221 43.4616 72.5221 49.8885 70.4338C56.3155 68.3456 61.9164 64.2763 65.8885 58.8091C69.2708 54.1538 71.3243 48.6884 71.8595 42.9957C72.0146 41.3461 73.3431 40 75 40H77Z" fill="var(--fill-0, #115072)"/>
</svg>
