<svg preserveAspectRatio="none" width="100%" height="100%" overflow="visible" style="display: block;" viewBox="0 0 51.4489 61.3812" fill="none" xmlns="http://www.w3.org/2000/svg">
<path id="Ellipse 6" d="M9.44128 60.8606C8.07287 61.7947 6.19552 61.4477 5.36653 60.0131C1.71725 53.698 -0.145705 46.4866 0.00889844 39.1565C0.184648 30.8239 2.95881 22.7543 7.94383 16.0751C12.9289 9.39582 19.8757 4.44052 27.814 1.90143C34.7972 -0.332169 42.2406 -0.597849 49.333 1.10401C50.9441 1.49061 51.8109 3.19165 51.3047 4.76928L50.6936 6.67364C50.1874 8.25127 48.4997 9.105 46.8816 8.74868C41.3845 7.53815 35.6461 7.79555 30.2512 9.52114C23.9006 11.5524 18.3431 15.5167 14.3551 20.8601C10.367 26.2035 8.14772 32.6591 8.00712 39.3252C7.88768 44.9881 9.27347 50.5626 11.9979 55.4882C12.7998 56.938 12.4615 58.7989 11.0931 59.733L9.44128 60.8606Z" fill="var(--fill-0, #D4D6E0)"/>
</svg>
