<svg preserveAspectRatio="none" width="100%" height="100%" overflow="visible" style="display: block;" viewBox="0 0 68.6928 40" fill="none" xmlns="http://www.w3.org/2000/svg">
<path id="Ellipse 5" d="M65.7973 0C67.4542 0 68.809 1.34506 68.6849 2.99726C68.1536 10.0689 65.7495 16.8919 61.6951 22.7538C57.0703 29.4404 50.5177 34.559 42.9104 37.4275C35.3032 40.2961 27.0024 40.7784 19.1141 38.8102C12.1986 37.0848 5.88803 33.5479 0.819786 28.5878C-0.364347 27.4289 -0.234927 25.5241 1.00941 24.4302L2.51146 23.1096C3.7558 22.0156 5.64236 22.1494 6.84802 23.2858C10.8266 27.0361 15.7135 29.7165 21.0507 31.0482C27.3614 32.6227 34.002 32.2369 40.0878 29.942C46.1736 27.6472 51.4157 23.5523 55.1155 18.2031C58.2446 13.6789 60.145 8.4392 60.6568 2.99567C60.8119 1.34609 62.1404 0 63.7973 0H65.7973Z" fill="var(--fill-0, #115072)"/>
</svg>
