<svg preserveAspectRatio="none" width="100%" height="100%" overflow="visible" style="display: block;" viewBox="0 0 20 20" fill="none" xmlns="http://www.w3.org/2000/svg">
<g id="Frame" opacity="0.4">
<path id="Vector" d="M3.36417 3.90667C3.33128 3.83076 3.32197 3.74673 3.33745 3.66546C3.35293 3.5842 3.39249 3.50947 3.45098 3.45098C3.50947 3.39249 3.5842 3.35293 3.66546 3.33745C3.74673 3.32197 3.83076 3.33128 3.90667 3.36417L17.24 8.78083C17.3211 8.81386 17.3897 8.87159 17.4361 8.94582C17.4825 9.02005 17.5043 9.10701 17.4985 9.19436C17.4927 9.28171 17.4596 9.36501 17.4037 9.43244C17.3479 9.49987 17.2722 9.548 17.1875 9.57L12.0842 10.8867C11.7958 10.9608 11.5326 11.1108 11.3219 11.3211C11.1111 11.5314 10.9606 11.7943 10.8858 12.0825L9.57 17.1875C9.548 17.2722 9.49987 17.3479 9.43244 17.4037C9.36501 17.4596 9.28171 17.4927 9.19436 17.4985C9.10701 17.5043 9.02005 17.4825 8.94582 17.4361C8.87159 17.3897 8.81386 17.3211 8.78083 17.24L3.36417 3.90667Z" stroke="var(--stroke-0, black)" stroke-width="1.45833" stroke-linecap="round" stroke-linejoin="round"/>
</g>
</svg>
