<svg preserveAspectRatio="none" width="100%" height="100%" overflow="visible" style="display: block;" viewBox="0 0 32 32" fill="none" xmlns="http://www.w3.org/2000/svg">
<g id="Frame">
<path id="Vector" fill-rule="evenodd" clip-rule="evenodd" d="M9.15292 27.4437C7.26492 26.3165 5.62993 24.7059 4.45241 22.6663C3.27583 20.6284 2.69836 18.4089 2.66536 16.212L2.85811 16.25C6.79016 17.0244 11.2635 15.6243 14.9404 13.3668C15.4239 13.0699 15.898 12.7555 16.3593 12.4259C16.9103 13.1139 17.4036 13.8116 17.8011 14.5C18.2993 15.3631 18.7501 16.3897 19.1529 17.4865C18.4631 17.8204 17.7905 18.188 17.1425 18.5824C13.42 20.8475 10.2443 24.1513 9.15351 27.442L9.15292 27.4437ZM21.6795 28.0633C18.2063 29.7035 14.3217 29.7137 10.9612 28.3451L11.0519 28.0713C11.9366 25.4023 14.6779 22.4232 18.1821 20.2909C18.7085 19.9705 19.2463 19.6729 19.7911 19.4009C20.1273 20.5073 20.4187 21.6297 20.6645 22.6837C20.9836 24.0511 21.2204 25.2767 21.3773 26.1601C21.4557 26.6016 21.5141 26.9568 21.5527 27.2005C21.572 27.3225 21.5864 27.4165 21.5959 27.4795L21.6063 27.5501L21.6088 27.5673L21.6095 27.5721L21.6795 28.0633Z" fill="var(--fill-0, #141414)"/>
<path id="Vector_2" d="M21.6345 18.5895C24.1512 17.631 26.7165 17.2626 28.9369 17.7498L29.2099 17.8097C29.0475 18.9886 28.7284 20.1423 28.2615 21.2377C27.2956 23.5033 25.6973 25.519 23.5447 26.993L23.5281 26.8875C23.4877 26.6326 23.4273 26.2649 23.3465 25.8099C23.1849 24.9005 22.9413 23.6389 22.6123 22.2289C22.3469 21.0918 22.0223 19.8399 21.6345 18.5895Z" fill="var(--fill-0, #141414)"/>
<path id="Vector_3" d="M17.9366 11.1962C20.2416 9.23718 22.0528 6.91494 22.8329 4.59717L22.8468 4.55566C24.7344 5.68282 26.369 7.29337 27.5464 9.33256C28.7234 11.3712 29.3009 13.5916 29.3334 15.7893C26.6726 15.2141 23.7518 15.6545 20.9924 16.6947C20.5646 15.5432 20.0792 14.4456 19.533 13.4996C19.0848 12.7233 18.538 11.9489 17.9366 11.1962Z" fill="var(--fill-0, #141414)"/>
<path id="Vector_4" d="M11.0915 4.6054C10.7554 4.33964 10.4818 4.12993 10.2911 3.98593L10.2613 3.96344C12.6112 2.84001 15.1524 2.46524 17.5939 2.76117C18.7769 2.90459 19.9367 3.20549 21.0399 3.65505L20.9373 3.95964C20.3011 5.85024 18.7372 7.89384 16.6328 9.68057C15.6591 8.62049 14.6319 7.6384 13.6961 6.79909C12.6865 5.89357 11.763 5.13651 11.0915 4.6054Z" fill="var(--fill-0, #141414)"/>
<path id="Vector_5" d="M13.8939 11.6627C10.4451 13.7801 6.49346 14.9277 3.24463 14.2879L2.78784 14.198C3.28022 10.6068 5.22596 7.25021 8.37527 5.06055L8.81252 5.37843L8.81524 5.38041L8.8277 5.38953L8.87975 5.42791C8.92619 5.46231 8.99569 5.51409 9.08569 5.58208C9.26573 5.71807 9.5276 5.91872 9.85091 6.1744C10.4981 6.68619 11.3887 7.41636 12.3608 8.28824C13.2405 9.07731 14.171 9.96848 15.0434 10.9077C14.6711 11.1689 14.2874 11.4211 13.8939 11.6627Z" fill="var(--fill-0, #141414)"/>
</g>
</svg>
