<svg preserveAspectRatio="none" width="100%" height="100%" overflow="visible" style="display: block;" viewBox="0 0 32 32" fill="none" xmlns="http://www.w3.org/2000/svg">
<g id="downward_facing_dog">
<path id="Vector" fill-rule="evenodd" clip-rule="evenodd" d="M9.93352 6.77254C10.4462 6.28505 11.2602 5.66667 12.2963 5.66667C13.2411 5.66667 14.0733 6.18219 14.6449 6.61065C15.2841 7.08983 15.9496 7.73626 16.6099 8.45477C17.936 9.89786 19.4129 11.8222 20.8493 13.7944C21.9225 15.2681 22.9982 16.8035 23.9902 18.2196C24.329 18.7032 24.658 19.1728 24.9738 19.6213C25.9721 21.039 26.8143 22.2095 27.4448 23H29.3333C30.2538 23 31 23.7462 31 24.6667C31 25.5871 30.2538 26.3333 29.3333 26.3333H26.6667C26.1912 26.3333 25.7383 26.1302 25.4221 25.7752C24.6372 24.894 23.5362 23.3677 22.336 21.6649C21.7785 22.0846 21.0849 22.3333 20.3333 22.3333C18.4924 22.3333 17 20.8409 17 19C17 17.8399 17.5926 16.8182 18.4917 16.2212C18.3795 16.0659 18.2672 15.9111 18.1548 15.7568C17.9087 15.4189 17.6638 15.0857 17.4208 14.759C16.4478 15.1233 15.3584 15.2953 14.1308 14.7623C13.3671 14.4307 12.6601 13.873 11.9463 13.1894C11.5002 12.7621 11.0143 12.2487 10.4746 11.6463C9.77933 12.8386 9.0525 14.283 8.33887 15.8114C7.41176 17.7969 6.53489 19.8629 5.80717 21.5976C5.70884 21.832 5.61241 22.0624 5.51832 22.2872C5.4158 22.5321 5.31606 22.7704 5.21969 23H5.33333C6.25381 23 7 23.7462 7 24.6667C7 25.5871 6.25381 26.3333 5.33333 26.3333H2.66667C2.08601 26.3333 1.54721 26.0311 1.24446 25.5356C0.941718 25.0402 0.918674 24.4228 1.18364 23.9061C1.41526 23.4545 1.84508 22.4283 2.44526 20.9955C2.53732 20.7757 2.63339 20.5464 2.73337 20.3081C3.46282 18.5693 4.36141 16.451 5.31856 14.4011C6.26961 12.3643 7.30687 10.3329 8.32101 8.79074C8.82475 8.02473 9.36603 7.31212 9.93352 6.77254Z" fill="var(--fill-0, #141414)"/>
</g>
</svg>
