<svg preserveAspectRatio="none" width="100%" height="100%" overflow="visible" style="display: block;" viewBox="0 0 32 32" fill="none" xmlns="http://www.w3.org/2000/svg">
<g id="Frame">
<path id="Vector" d="M22.6667 5.33366C22.6667 6.80642 21.4728 8.00033 20 8.00033C18.5272 8.00033 17.3334 6.80642 17.3334 5.33366C17.3334 3.8609 18.5272 2.66699 20 2.66699C21.4728 2.66699 22.6667 3.8609 22.6667 5.33366Z" fill="var(--fill-0, #141414)"/>
<path id="Vector_2" fill-rule="evenodd" clip-rule="evenodd" d="M9.67775 7.18927C10.6606 6.57499 11.882 6.48094 12.9473 6.9375C15.2484 7.9237 15.8259 10.9221 14.0556 12.6924L13.6165 13.1314C13.4403 13.3078 13.3904 13.3586 13.3573 13.3967C12.7769 14.0668 12.8226 15.0739 13.4612 15.6887C13.4976 15.7238 13.5519 15.7698 13.7435 15.9294L13.7577 15.9412C13.8655 16.0311 13.9399 16.0931 14.0103 16.1564C15.0157 17.0607 15.612 18.3338 15.6631 19.6852C15.6667 19.7798 15.6667 19.8767 15.6667 20.017V21.3338C15.6667 21.886 15.2189 22.3338 14.6667 22.3338C14.1144 22.3338 13.6667 21.886 13.6667 21.3338V20.0355C13.6667 19.8698 13.6665 19.8128 13.6645 19.7607C13.6339 18.9499 13.2761 18.186 12.6729 17.6434C12.634 17.6086 12.5904 17.5719 12.4631 17.4659C12.4536 17.4579 12.4441 17.45 12.4348 17.4423C12.2847 17.3172 12.1695 17.2212 12.0742 17.1295C10.6692 15.7771 10.5687 13.5615 11.8455 12.0874C11.9321 11.9874 12.0381 11.8814 12.1763 11.7433C12.1849 11.7347 12.1936 11.726 12.2024 11.7172L12.6414 11.2782C13.4111 10.5084 13.16 9.20462 12.1594 8.77579C11.6962 8.57726 11.1651 8.61817 10.7377 8.88527L6.53 11.5151C6.06167 11.8078 5.44471 11.6654 5.152 11.1971C4.85929 10.7288 5.00167 10.1118 5.47 9.81911L9.67775 7.18927ZM15.718 13.0176C15.8927 12.4936 16.4589 12.2104 16.9829 12.3851C18.0759 12.7494 19.2575 12.7494 20.3504 12.3851C20.8744 12.2104 21.4407 12.4936 21.6153 13.0176C21.79 13.5415 21.5068 14.1078 20.9829 14.2824C19.4795 14.7836 17.8539 14.7836 16.3504 14.2824C15.8265 14.1078 15.5433 13.5415 15.718 13.0176ZM10.0404 17.96C10.431 18.3506 10.431 18.9836 10.0404 19.3742C8.57232 20.8423 6.58113 21.6671 4.50491 21.6671H4C3.44772 21.6671 3 21.2194 3 20.6671C3 20.1148 3.44772 19.6671 4 19.6671H4.50491C6.05071 19.6671 7.53319 19.0531 8.62623 17.96C9.01675 17.5695 9.64992 17.5695 10.0404 17.96Z" fill="var(--fill-0, #141414)"/>
<path id="Vector_3" d="M29.5294 10.3138C30.071 10.2055 30.4222 9.67865 30.3138 9.13708C30.2056 8.59552 29.6788 8.24431 29.1372 8.35262C26.7237 8.83531 24.8718 10.7792 24.5068 13.2133L23.0232 23.1036L3.86595 26.4561C3.17253 26.5775 2.66663 27.1796 2.66663 27.8836C2.66663 28.6839 3.31541 29.3327 4.11575 29.3327H25.985C27.8342 29.3327 29.3333 27.8336 29.3333 25.9844C29.3333 23.9044 27.4568 22.3277 25.4078 22.6863L25.1001 22.7401L26.4846 13.51C26.7248 11.9094 27.9424 10.6312 29.5294 10.3138Z" fill="var(--fill-0, #141414)"/>
</g>
</svg>
