<svg preserveAspectRatio="none" width="100%" height="100%" overflow="visible" style="display: block;" viewBox="0 0 32 32" fill="none" xmlns="http://www.w3.org/2000/svg">
<g id="archery">
<path id="Vector" fill-rule="evenodd" clip-rule="evenodd" d="M21.1612 2.23667C21.5562 1.40524 22.5504 1.05142 23.3818 1.44639C26.6029 2.97658 28.9658 6.02957 29.5348 9.67872C30.3603 9.77818 31 10.4811 31 11.3333C31 12.1799 30.3688 12.8791 29.5513 12.9859C29.0128 16.6833 26.6351 19.7821 23.3818 21.3276C22.5504 21.7225 21.5562 21.3687 21.1612 20.5373C20.7663 19.7059 21.1201 18.7117 21.9515 18.3167C24.0759 17.3075 25.6596 15.3531 26.1634 13H19.0287C19.1933 17.7768 20.0462 21.9235 21.0436 26.7724C21.1489 27.2843 21.2558 27.8041 21.3637 28.3333H22.6667C23.5871 28.3333 24.3333 29.0795 24.3333 30C24.3333 30.9205 23.5871 31.6667 22.6667 31.6667H20C19.2054 31.6667 18.5213 31.1057 18.3656 30.3265C18.1729 29.362 17.9788 28.4201 17.7878 27.4933C17.0651 23.9868 16.387 20.6964 16 17.2143C15.613 20.6964 14.9349 23.9868 14.2122 27.4933C14.0212 28.4201 13.8271 29.362 13.6344 30.3265C13.4787 31.1057 12.7946 31.6667 12 31.6667H9.33333C8.41286 31.6667 7.66667 30.9205 7.66667 30C7.66667 29.0795 8.41286 28.3333 9.33333 28.3333H10.6363C10.7442 27.8041 10.8511 27.2843 10.9564 26.7724C11.9538 21.9235 12.8067 17.7768 12.9713 13H7.93252C6.32456 13 4.73394 12.6742 3.86462 11.4819C2.90268 10.1627 3.40854 8.68214 3.91115 7.8242C4.45646 6.89338 5.32375 6.05373 6.23421 5.44666C7.12283 4.85414 8.2786 4.33333 9.45264 4.33333C10.3731 4.33333 11.1193 5.07953 11.1193 6C11.1193 6.92047 10.3731 7.66667 9.45264 7.66667C9.19993 7.66667 8.69455 7.81253 8.08343 8.22001C7.49414 8.61293 7.02309 9.10662 6.78728 9.50913C6.77881 9.52359 6.77086 9.53748 6.7634 9.5508C6.9995 9.61255 7.37385 9.66667 7.93252 9.66667H26.1396C25.6112 7.36154 24.0436 5.45109 21.9515 4.45726C21.1201 4.06229 20.7663 3.0681 21.1612 2.23667ZM12.6666 5.00011C12.6667 3.15918 14.159 1.66681 16 1.66677C17.8409 1.66674 19.3333 3.15913 19.3333 5.00011C19.3333 6.84103 17.8409 8.3334 16 8.33344C14.159 8.33348 12.6666 6.84108 12.6666 5.00011Z" fill="var(--fill-0, #141414)"/>
</g>
</svg>
