<svg preserveAspectRatio="none" width="100%" height="100%" overflow="visible" style="display: block;" viewBox="0 0 32 32" fill="none" xmlns="http://www.w3.org/2000/svg">
<g id="jump_rope_activity">
<path id="Vector" fill-rule="evenodd" clip-rule="evenodd" d="M12.6667 4.33333C12.6667 2.49241 14.1591 1.00004 16 1C17.841 0.999962 19.3334 2.49236 19.3334 4.33333C19.3333 6.17425 17.841 7.66663 16 7.66667C14.1591 7.66671 12.6667 6.17431 12.6667 4.33333ZM7.00573 17.0644C7.08893 19.9249 8.07116 21.9994 9.527 23.3781C11.0641 24.8339 13.2914 25.6667 16 25.6667C16.0594 25.6667 16.1185 25.6663 16.1775 25.6655L15.9309 18.7627C15.5865 19.8846 15.0055 20.954 14.1297 21.8545C13.5833 22.4164 12.8387 23.1106 12.0785 23.4906C11.2551 23.9021 10.254 23.5682 9.8425 22.7449C9.43098 21.9215 9.76485 20.9204 10.5882 20.5089C10.8042 20.401 11.2145 20.071 11.7401 19.5306C12.5697 18.6775 13 17.4172 13 16V12.0816C9.87606 12.9976 7.99269 15.2552 7.00573 17.0644ZM19.0281 12.0899C22.1352 13.0112 24.0103 15.2607 24.9943 17.0644C24.9111 19.9249 23.9288 21.9994 22.473 23.3781C21.6619 24.1463 20.6586 24.741 19.4939 25.1314L19.0281 12.0899ZM19.6165 28.5661C21.5714 28.0722 23.3336 27.154 24.7651 25.7983C27.0521 23.6324 28.3333 20.5018 28.3333 16.6667C28.3333 16.4079 28.2731 16.1527 28.1574 15.9213C26.6689 12.9443 22.9679 8.33333 16 8.33333C9.03206 8.33333 5.33112 12.9443 3.84262 15.9213C3.72691 16.1527 3.66667 16.4079 3.66667 16.6667C3.66667 20.5018 4.94786 23.6324 7.23491 25.7983C9.5073 27.9504 12.6134 29 16 29C16.0991 29 16.1979 28.9991 16.2965 28.9973L16.3344 30.0595C16.3672 30.9794 17.1396 31.6985 18.0595 31.6656C18.9794 31.6328 19.6985 30.8604 19.6656 29.9405L19.6165 28.5661Z" fill="var(--fill-0, #141414)"/>
</g>
</svg>
