<svg preserveAspectRatio="none" width="100%" height="100%" overflow="visible" style="display: block;" viewBox="0 0 32 32" fill="none" xmlns="http://www.w3.org/2000/svg">
<g id="warrior_02">
<path id="Vector" fill-rule="evenodd" clip-rule="evenodd" d="M21.1294 0.368637C22.0303 0.557088 22.608 1.44024 22.4195 2.34122C22.1517 3.62141 21.8954 4.79264 21.6578 5.87814C21.143 8.2296 20.7164 10.1787 20.4528 11.9616C20.3087 12.9362 20.2188 13.8321 20.1935 14.6802C20.1933 14.7011 20.1928 14.722 20.1918 14.743C20.1568 16.0836 20.285 17.3059 20.6179 18.5327C20.6927 18.8085 20.7785 19.0867 20.8762 19.3688C20.8969 19.4194 20.9153 19.4711 20.931 19.5239C21.8409 22.0492 23.7138 24.8901 27.2494 28.8973C27.6829 29.3886 27.7883 30.0883 27.5188 30.6856C27.2493 31.2828 26.6549 31.6667 25.9997 31.6667H23.3333C22.4128 31.6667 21.6666 30.9205 21.6666 30C21.6666 29.3561 22.0318 28.7975 22.5663 28.5199C20.4945 25.942 19.0533 23.6972 18.137 21.5271C17.31 21.4262 16.572 21.3503 15.9126 21.301C15.8894 21.2998 15.8663 21.2981 15.8433 21.2959C14.9458 21.231 14.1956 21.2164 13.5653 21.257C12.2929 21.3388 11.7951 21.6287 11.547 21.8923C11.271 22.1856 10.9841 22.7818 10.8693 24.169C10.756 25.5382 10.8289 27.3786 10.9963 29.8897C11.027 30.35 10.8655 30.8024 10.5504 31.1392C10.2353 31.4761 9.79462 31.6672 9.33333 31.6672H6.66667C5.74619 31.6672 5 30.921 5 30.0006C5 29.0801 5.74619 28.3339 6.66667 28.3339H7.56253C7.47207 26.6174 7.44459 25.1357 7.54734 23.8941C7.68255 22.2603 8.06233 20.7313 9.11963 19.6079C10.2049 18.4547 11.7071 18.0362 13.3514 17.9305C13.5949 17.9148 13.8477 17.9057 14.1099 17.9025C14.103 17.8229 14.0964 17.7424 14.0903 17.6613C14.0464 17.0847 14.0191 16.4273 14.0579 15.8397C14.0772 15.5478 14.1158 15.2207 14.198 14.906C14.2696 14.6318 14.4266 14.1522 14.822 13.7561C15.3112 13.2662 15.9107 13.0687 16.3343 12.9798C16.553 12.9339 16.7703 12.9076 16.976 12.8939C17.0174 12.4893 17.0684 12.0799 17.1277 11.6643C17.0853 11.6659 17.0427 11.6667 17 11.6667C15.159 11.6667 13.6667 10.1743 13.6667 8.33333C13.6667 6.49239 15.159 5 17 5C17.4893 5 17.954 5.10543 18.3726 5.29482C18.392 5.20605 18.4115 5.11687 18.4311 5.02729C18.6639 3.96357 18.9091 2.84272 19.1568 1.65878C19.3452 0.757802 20.2284 0.180186 21.1294 0.368637Z" fill="var(--fill-0, #141414)"/>
</g>
</svg>
