<svg preserveAspectRatio="none" width="100%" height="100%" overflow="visible" style="display: block;" viewBox="0 0 32 32" fill="none" xmlns="http://www.w3.org/2000/svg">
<g id="boxing">
<path id="Vector" fill-rule="evenodd" clip-rule="evenodd" d="M9.66667 4.6667C9.6667 2.82578 11.1591 1.33341 13 1.33337C14.841 1.33333 16.3334 2.82573 16.3333 4.6667C16.3333 6.50762 14.8409 8 13 8.00004C11.159 8.00008 9.66663 6.50768 9.66667 4.6667ZM23 5C23 3.52724 24.1939 2.33333 25.6667 2.33333C27.1394 2.33333 28.3333 3.52724 28.3333 5V21.6667C28.3333 22.5088 27.943 23.2597 27.3333 23.7485V27.6667H29C29.9205 27.6667 30.6667 28.4129 30.6667 29.3333C30.6667 30.2538 29.9205 31 29 31H22.3333C21.4129 31 20.6667 30.2538 20.6667 29.3333C20.6667 28.4129 21.4129 27.6667 22.3333 27.6667H24V23.7485C23.3904 23.2597 23 22.5088 23 21.6667V5ZM9.31946 9.6863C9.83901 8.972 10.8256 8.78707 11.5686 9.26471C13.4923 10.5014 15.393 10.6363 16.905 10.3957C17.6682 10.2743 18.3226 10.0576 18.8082 9.84413C19.1955 9.67381 19.4032 9.53813 19.4709 9.4939C19.4982 9.47612 19.5028 9.47312 19.4873 9.48857C20.138 8.83747 21.1932 8.8371 21.8443 9.48774C22.4954 10.1384 22.4958 11.1937 21.8452 11.8448C21.4582 12.232 20.8151 12.603 20.15 12.8955C19.4274 13.2132 18.4987 13.5174 17.4288 13.6876C16.8636 13.7776 16.2563 13.8302 15.6184 13.8272C16.2698 14.2146 17.0338 14.3431 18.8063 13.7522C19.6795 13.4611 20.6234 13.933 20.9145 14.8063C21.2056 15.6795 20.7336 16.6234 19.8604 16.9145C17.6424 17.6538 15.7387 17.7868 13.8927 16.6791C13.3948 16.3803 12.9199 15.9985 12.4536 15.5468C12.2882 15.8903 12.1115 16.2572 11.9243 16.6448C13.2208 17.7876 14.1146 19.5396 14.6432 21.3713C15.1842 23.2462 15.4123 25.4253 15.2343 27.6667H16.0006C16.9211 27.6667 17.6673 28.4129 17.6673 29.3333C17.6673 30.2538 16.9211 31 16.0006 31H13.334C12.8382 31 12.3681 30.7793 12.0515 30.3977C11.7348 30.0162 11.6045 29.5135 11.6959 29.0262C12.149 26.6093 11.9919 24.2062 11.4405 22.2954C11.1396 21.2525 10.751 20.4482 10.3461 19.8671C9.16383 22.2417 7.7591 24.9635 6.22264 27.6814C7.03785 27.7902 7.66667 28.4883 7.66667 29.3333C7.66667 30.2538 6.92047 31 6 31H3.33333C2.73288 31 2.17884 30.677 1.883 30.1545C1.58716 29.632 1.59525 28.9907 1.90418 28.4758C4.11319 24.7941 6.11064 20.9177 7.68281 17.7344C7.51402 17.5641 7.35947 17.3791 7.2233 17.1774C6.68312 16.3774 6.54772 15.4889 6.68808 14.6117C6.8181 13.7991 7.18175 13.0006 7.61594 12.2408C8.05848 11.4664 8.64391 10.6151 9.31946 9.6863Z" fill="var(--fill-0, #141414)"/>
</g>
</svg>
