<svg preserveAspectRatio="none" width="100%" height="100%" overflow="visible" style="display: block;" viewBox="0 0 29.0004 29.6667" fill="none" xmlns="http://www.w3.org/2000/svg">
<path id="Vector" fill-rule="evenodd" clip-rule="evenodd" d="M17.3337 7.37394e-10C15.4927 3.83067e-05 14.0004 1.49241 14.0003 3.33333C14.0003 5.17431 15.4927 6.6667 17.3337 6.66667C19.1746 6.66663 20.667 5.17425 20.667 3.33333C20.667 1.49236 19.1746 -3.83052e-05 17.3337 7.37394e-10ZM13.9559 6.63465C13.2069 6.11036 12.1754 6.28731 11.6439 7.03125C10.9029 8.06865 10.3126 8.93916 9.90276 9.67631C9.50938 10.3838 9.16594 11.1657 9.14285 11.9868C9.11582 12.9481 9.52498 13.691 10.0767 14.2488C10.1964 14.3698 10.3263 14.4856 10.463 14.5966C9.84208 15.7537 9.33128 16.615 8.87303 17.2435C8.24512 18.1047 7.88459 18.2879 7.72798 18.3322C7.60678 18.3665 7.30606 18.4047 6.52118 18.0243C5.72696 17.6394 4.72202 16.9703 3.2895 15.9675C2.84 15.6529 2.26442 15.5796 1.75043 15.7716C1.23645 15.9637 0.8499 16.3964 0.716823 16.9287L0.0501568 19.5954C-0.173091 20.4883 0.369843 21.3932 1.26283 21.6165C2.15583 21.8397 3.06072 21.2968 3.28396 20.4038L3.37221 20.0508C3.97479 20.437 4.53895 20.7678 5.06756 21.024C6.15173 21.5494 7.36238 21.9 8.63595 21.5395C9.87411 21.189 10.7917 20.2699 11.5665 19.2072C12.1143 18.4559 12.6763 17.5103 13.2866 16.3836C13.8741 16.7403 14.2349 16.9738 14.4905 17.1928C14.7334 17.4009 14.7797 17.5102 14.813 17.6462C14.8704 17.8809 14.8956 18.3178 14.7822 19.2457C14.671 20.1547 14.4547 21.348 14.1478 23.0351C14.0594 23.5214 14.1913 24.0218 14.508 24.4012C14.5914 24.5012 14.6854 24.59 14.7876 24.6667H9.88779C9.31144 23.6703 8.2342 23 7.00039 23C5.15944 23 3.66706 24.4924 3.66706 26.3333C3.66706 28.1743 5.15944 29.6667 7.00039 29.6667C8.2342 29.6667 9.31144 28.9963 9.88779 28H22.7797C23.356 28.9963 24.4333 29.6667 25.6671 29.6667C27.508 29.6667 29.0004 28.1743 29.0004 26.3333C29.0004 25.0692 28.2967 23.9694 27.2596 23.4043L25.4782 12.2706C25.5249 12.2519 25.572 12.2331 25.6193 12.2142C26.4739 11.8723 26.8896 10.9024 26.5478 10.0477C26.2812 9.38134 25.6328 8.98182 24.955 9.0002L24.9077 8.7051L27.2744 8.31066C28.1823 8.15933 28.7957 7.30062 28.6444 6.39267C28.4931 5.48472 27.6343 4.87135 26.7264 5.02268L24.0331 5.47156C22.4063 5.7427 21.3034 7.27618 21.564 8.90472L21.7598 10.1286C21.5191 10.2124 21.2992 10.2841 21.0951 10.3444C20.336 10.5688 19.9622 10.5821 19.7082 10.5423C19.4542 10.5025 19.1326 10.3811 18.5216 9.97416C18.0812 9.68092 17.5941 9.31336 16.9494 8.82685L16.9494 8.82682L16.9493 8.82679C16.6542 8.60407 16.326 8.35642 15.9541 8.07956C15.3771 7.64996 14.7181 7.16817 13.9559 6.63465ZM22.2934 13.4636C22.2073 13.4907 22.1228 13.5165 22.0399 13.541C21.0659 13.8289 20.1449 13.9846 19.1925 13.8355C18.24 13.6863 17.4433 13.2609 16.6739 12.7486C16.3358 12.5234 15.9637 12.2533 15.5568 11.9501C15.301 12.4623 15.0565 12.9512 14.8223 13.4165C15.5021 13.8252 16.152 14.2268 16.6593 14.6615C17.3161 15.2242 17.819 15.9065 18.0508 16.8538C18.2585 17.7025 18.2143 18.6406 18.0909 19.6502C18.0199 20.2302 17.9132 20.8987 17.7799 21.6667H18.3337C19.2542 21.6667 20.0004 22.4129 20.0004 23.3333C20.0004 23.8785 19.7386 24.3626 19.3339 24.6667H22.7797C23.0529 24.1944 23.4386 23.7954 23.9002 23.5063L22.2934 13.4636Z" fill="var(--fill-0, #141414)"/>
</svg>
