<svg preserveAspectRatio="none" width="100%" height="100%" overflow="visible" style="display: block;" viewBox="0 0 32 32" fill="none" xmlns="http://www.w3.org/2000/svg">
<g id="performing_on_Rings">
<path id="Vector" fill-rule="evenodd" clip-rule="evenodd" d="M7 2.66667C7 1.74619 6.25381 1 5.33333 1C4.41286 1 3.66667 1.74619 3.66667 2.66667V4.66544C2.1007 5.31848 1 6.86403 1 8.66667C1 10.9693 2.79606 12.8525 5.0637 12.9917C7.57333 13.7268 10.2532 14.1932 12.9789 14.3909C12.8611 17.2362 12.2514 19.1075 11.2051 20.6462C9.98845 22.4354 8.07204 23.9489 5.0755 25.9466C4.30962 26.4572 4.10266 27.492 4.61325 28.2578C5.12384 29.0237 6.15862 29.2307 6.9245 28.7201C9.92796 26.7178 12.3449 24.898 13.9615 22.5205C14.7673 21.3357 15.3491 20.0529 15.7347 18.6038C15.7253 19.2347 15.7052 19.8956 15.6692 20.5791C15.5055 23.6892 15.0175 26.9053 13.8429 29.2547C13.4312 30.078 13.7649 31.0791 14.5882 31.4907C15.4115 31.9024 16.4127 31.5686 16.8243 30.7453C18.3162 27.7614 18.8283 23.9775 18.9979 20.7543C19.1232 18.3739 19.0642 16.1016 19.0252 14.5994V14.5994L19.0198 14.391C21.7459 14.1933 24.4263 13.7269 26.9363 12.9917C29.2039 12.8525 31 10.9693 31 8.66667C31 6.86403 29.8993 5.31848 28.3333 4.66544V2.66667C28.3333 1.74619 27.5871 1 26.6667 1C25.7462 1 25 1.74619 25 2.66667V4.66544C23.434 5.31848 22.3333 6.86403 22.3333 8.66667C22.3333 9.345 22.4892 9.98692 22.7671 10.5586C18.3771 11.3694 13.6229 11.3694 9.23294 10.5586C9.51081 9.98692 9.66667 9.345 9.66667 8.66667C9.66667 6.86403 8.56597 5.31848 7 4.66544V2.66667ZM5.30956 9.66639C5.32522 9.66617 5.3409 9.66617 5.35661 9.6664C5.89814 9.65403 6.33333 9.21117 6.33333 8.66667C6.33333 8.11438 5.88562 7.66667 5.33333 7.66667C4.78105 7.66667 4.33333 8.11438 4.33333 8.66667C4.33333 9.21101 4.76826 9.65376 5.30956 9.66639ZM27.6667 8.66667C27.6667 9.21101 27.2317 9.65376 26.6904 9.66639C26.6748 9.66617 26.6591 9.66617 26.6434 9.6664C26.1019 9.65403 25.6667 9.21117 25.6667 8.66667C25.6667 8.11438 26.1144 7.66667 26.6667 7.66667C27.219 7.66667 27.6667 8.11438 27.6667 8.66667ZM16 3C17.8409 3.00004 19.3333 4.49242 19.3333 6.33333C19.3333 8.1743 17.841 9.66671 16 9.66667C14.1591 9.66663 12.6667 8.17427 12.6666 6.33333C12.6666 4.49235 14.159 2.99996 16 3Z" fill="var(--fill-0, #141414)"/>
</g>
</svg>
