<svg preserveAspectRatio="none" width="100%" height="100%" overflow="visible" style="display: block;" viewBox="0 0 32 32" fill="none" xmlns="http://www.w3.org/2000/svg">
<g id="Frame">
<path id="Vector" fill-rule="evenodd" clip-rule="evenodd" d="M24.6667 18.667C22.0893 18.667 20 20.6115 20 23.0101C20 25.3899 21.4895 28.167 23.8133 29.1601C24.3551 29.3915 24.9783 29.3915 25.52 29.1601C27.8439 28.167 29.3333 25.3899 29.3333 23.0101C29.3333 20.6115 27.244 18.667 24.6667 18.667ZM24.6667 24.667C25.4031 24.667 26 24.0701 26 23.3337C26 22.5973 25.4031 22.0003 24.6667 22.0003C23.9303 22.0003 23.3333 22.5973 23.3333 23.3337C23.3333 24.0701 23.9303 24.667 24.6667 24.667Z" fill="var(--fill-0, #141414)"/>
<path id="Vector_2" fill-rule="evenodd" clip-rule="evenodd" d="M7.33329 2.66699C4.75596 2.66699 2.66663 4.61146 2.66663 7.01009C2.66663 9.38991 4.15607 12.167 6.47992 13.16C7.02164 13.3915 7.64495 13.3915 8.18667 13.16C10.5105 12.167 12 9.38991 12 7.01009C12 4.61146 9.91063 2.66699 7.33329 2.66699ZM7.33329 8.66699C8.06967 8.66699 8.66663 8.07003 8.66663 7.33366C8.66663 6.59729 8.06967 6.00033 7.33329 6.00033C6.59692 6.00033 5.99996 6.59729 5.99996 7.33366C5.99996 8.07003 6.59692 8.66699 7.33329 8.66699Z" fill="var(--fill-0, #141414)"/>
<path id="Vector_3" fill-rule="evenodd" clip-rule="evenodd" d="M15.0002 6.66699C15.0002 6.11471 15.4479 5.66699 16.0002 5.66699H21.5094C25.1776 5.66699 26.5727 10.4577 23.4779 12.4271L9.59622 21.2609C8.18947 22.1561 8.82359 24.3337 10.491 24.3337H13.5859L13.2931 24.0407C12.9026 23.6502 12.9026 23.0171 13.2931 22.6266C13.6836 22.2361 14.3167 22.2361 14.7072 22.6266L16.7072 24.6266C17.0978 25.0171 17.0978 25.6502 16.7072 26.0407L14.7072 28.0407C14.3167 28.4313 13.6836 28.4313 13.2931 28.0407C12.9026 27.6502 12.9026 27.0171 13.2931 26.6266L13.5859 26.3337H10.491C6.82267 26.3337 5.42766 21.543 8.52246 19.5735L22.4042 10.7398C23.8108 9.84457 23.1767 7.66699 21.5094 7.66699H16.0002C15.4479 7.66699 15.0002 7.21927 15.0002 6.66699Z" fill="var(--fill-0, #141414)"/>
</g>
</svg>
