<svg preserveAspectRatio="none" width="100%" height="100%" overflow="visible" style="display: block;" viewBox="0 0 30.0002 29.3333" fill="none" xmlns="http://www.w3.org/2000/svg">
<path id="Vector" fill-rule="evenodd" clip-rule="evenodd" d="M7.00014 3.33333C7.00018 1.49241 8.49255 3.83067e-05 10.3335 7.37394e-10C12.1745 -3.83052e-05 13.6668 1.49236 13.6668 3.33333C13.6668 5.17425 12.1744 6.66663 10.3335 6.66667C8.4925 6.66671 7.00011 5.17431 7.00014 3.33333ZM18.0711 2.04976C18.9641 2.27301 19.507 3.1779 19.2837 4.07089C18.8601 5.76566 17.6659 7.70215 16.1401 9.13256C15.2865 9.93281 14.2117 10.679 12.9974 11.0866C13.0331 11.3306 13.0562 11.5761 13.0703 11.818C13.0899 12.1555 13.0934 12.5126 13.0823 12.8858C13.0844 12.8843 13.0865 12.8827 13.0887 12.8812C13.8109 12.3577 14.4835 11.8701 15.0485 11.4959C15.4719 11.2155 15.904 10.9511 16.3141 10.7596C16.6676 10.5944 17.2669 10.3527 17.9341 10.4269C18.3181 10.4695 18.7319 10.618 19.0882 10.9313C19.4331 11.2345 19.6218 11.6017 19.7236 11.9186C19.9087 12.4947 19.8744 13.1169 19.8093 13.6201C19.7275 14.2518 19.5445 15.0424 19.2694 16H19.6668C20.5873 16 21.3335 16.7462 21.3335 17.6667C21.3335 18.5871 20.5873 19.3333 19.6668 19.3333H22.0002V14.3333C22.0002 13.4129 22.7464 12.6667 23.6668 12.6667H28.3335C29.254 12.6667 30.0002 13.4129 30.0002 14.3333C30.0002 15.2538 29.254 16 28.3335 16H25.3335V21C25.3335 21.9205 24.5873 22.6667 23.6668 22.6667H18.6668V27.6667C18.6668 28.5871 17.9207 29.3333 17.0002 29.3333C16.0797 29.3333 15.3335 28.5871 15.3335 27.6667V21C15.3335 20.0795 16.0797 19.3333 17.0002 19.3333C16.4644 19.3333 15.9614 19.0758 15.6481 18.6412C15.3349 18.2066 15.2496 17.6479 15.419 17.1396C15.7349 16.192 15.9743 15.4155 16.1485 14.7853C15.8348 15.0077 15.4957 15.2536 15.1257 15.5219C14.7703 15.7796 14.3864 16.058 13.9689 16.3562C13.4721 16.7111 12.9789 17.0234 12.4927 17.273C11.8928 20.0974 10.8797 23.2766 9.67779 25.9993C10.5932 26.0052 11.3335 26.7491 11.3335 27.6659C11.3335 28.5864 10.5873 29.3326 9.66684 29.3326H7.00018C6.40964 29.3326 5.8632 29.0201 5.56373 28.5111C5.26425 28.0022 5.25646 27.3727 5.54325 26.8565C6.92182 24.3751 8.20803 20.8563 8.99022 17.6408C8.85427 17.5772 8.72139 17.5013 8.59277 17.412C8.04785 17.0337 7.71958 16.5128 7.52812 16.0149C7.16867 15.0803 7.1909 13.9733 7.31617 13.0049C7.35654 12.6928 7.41084 12.3725 7.47695 12.0477C7.14401 12.2373 6.80134 12.4557 6.45597 12.6975C4.90502 13.7832 3.57363 15.1433 3.05366 15.9234C2.54314 16.6893 1.50837 16.8964 0.742449 16.3858C-0.023471 15.8753 -0.230506 14.8405 0.280023 14.0746C1.09339 12.8544 2.762 11.2145 4.54438 9.96675C5.44902 9.33347 6.45018 8.75312 7.45656 8.37567C8.42779 8.0114 9.58505 7.76778 10.7135 8.04225C11.6048 8.19548 12.7221 7.76783 13.8603 6.70077C15.0012 5.63118 15.807 4.23434 16.0499 3.26244C16.2732 2.36945 17.1781 1.82651 18.0711 2.04976Z" fill="var(--fill-0, #141414)"/>
</svg>
