<svg preserveAspectRatio="none" width="100%" height="100%" overflow="visible" style="display: block;" viewBox="0 0 20 20" fill="none" xmlns="http://www.w3.org/2000/svg">
<g id="ic:round-plus">
<path id="Vector" d="M15.1429 10.8555H10.8572V15.1412C10.8572 15.3686 10.7669 15.5866 10.6062 15.7473C10.4454 15.9081 10.2274 15.9984 10.0001 15.9984C9.77275 15.9984 9.55474 15.9081 9.39399 15.7473C9.23324 15.5866 9.14294 15.3686 9.14294 15.1412V10.8555H4.85722C4.6299 10.8555 4.41188 10.7652 4.25113 10.6045C4.09039 10.4437 4.00008 10.2257 4.00008 9.99837C4.00008 9.77104 4.09039 9.55303 4.25113 9.39228C4.41188 9.23154 4.6299 9.14123 4.85722 9.14123H9.14294V4.85552C9.14294 4.62819 9.23324 4.41017 9.39399 4.24942C9.55474 4.08868 9.77275 3.99837 10.0001 3.99837C10.2274 3.99837 10.4454 4.08868 10.6062 4.24942C10.7669 4.41017 10.8572 4.62819 10.8572 4.85552V9.14123H15.1429C15.3703 9.14123 15.5883 9.23154 15.749 9.39228C15.9098 9.55303 16.0001 9.77104 16.0001 9.99837C16.0001 10.2257 15.9098 10.4437 15.749 10.6045C15.5883 10.7652 15.3703 10.8555 15.1429 10.8555Z" fill="var(--fill-0, black)"/>
</g>
</svg>
