<svg preserveAspectRatio="none" width="100%" height="100%" overflow="visible" style="display: block;" viewBox="0 0 24 24" fill="none" xmlns="http://www.w3.org/2000/svg">
<g id="Frame">
<path id="Vector" d="M3 3V19C3 19.5304 3.21071 20.0391 3.58579 20.4142C3.96086 20.7893 4.46957 21 5 21H21" stroke="var(--stroke-0, black)" stroke-width="1.75" stroke-linecap="round" stroke-linejoin="round"/>
<path id="Vector_2" d="M18 5.0001H16C15.4477 5.0001 15 5.44781 15 6.0001V16.0001C15 16.5524 15.4477 17.0001 16 17.0001H18C18.5523 17.0001 19 16.5524 19 16.0001V6.0001C19 5.44781 18.5523 5.0001 18 5.0001Z" stroke="var(--stroke-0, black)" stroke-width="1.75" stroke-linecap="round" stroke-linejoin="round"/>
<path id="Vector_3" d="M10.0002 8.0001H8.0002C7.44791 8.0001 7.0002 8.44781 7.0002 9.0001V16.0001C7.0002 16.5524 7.44791 17.0001 8.0002 17.0001H10.0002C10.5525 17.0001 11.0002 16.5524 11.0002 16.0001V9.0001C11.0002 8.44781 10.5525 8.0001 10.0002 8.0001Z" stroke="var(--stroke-0, black)" stroke-width="1.75" stroke-linecap="round" stroke-linejoin="round"/>
</g>
</svg>
