<svg preserveAspectRatio="none" width="100%" height="100%" overflow="visible" style="display: block;" viewBox="0 0 24 24" fill="none" xmlns="http://www.w3.org/2000/svg">
<g id="Frame">
<path id="Vector" d="M12 3H5C4.46957 3 3.96086 3.21071 3.58579 3.58579C3.21071 3.96086 3 4.46957 3 5V19C3 19.5304 3.21071 20.0391 3.58579 20.4142C3.96086 20.7893 4.46957 21 5 21H19C19.5304 21 20.0391 20.7893 20.4142 20.4142C20.7893 20.0391 21 19.5304 21 19V12" stroke="var(--stroke-0, black)" stroke-width="1.75" stroke-linecap="round" stroke-linejoin="round"/>
<path id="Vector_2" d="M18.375 2.62493C18.7728 2.22711 19.3124 2.00361 19.875 2.00361C20.4376 2.00361 20.9772 2.22711 21.375 2.62493C21.7728 3.02276 21.9963 3.56232 21.9963 4.12493C21.9963 4.68754 21.7728 5.22711 21.375 5.62493L12.362 14.6389C12.1245 14.8762 11.8312 15.0498 11.509 15.1439L8.636 15.9839C8.54995 16.009 8.45873 16.0105 8.37191 15.9883C8.28508 15.966 8.20582 15.9209 8.14244 15.8575C8.07906 15.7941 8.03388 15.7149 8.01164 15.628C7.98939 15.5412 7.9909 15.45 8.016 15.3639L8.856 12.4909C8.95052 12.169 9.12453 11.876 9.362 11.6389L18.375 2.62493Z" stroke="var(--stroke-0, black)" stroke-width="1.75" stroke-linecap="round" stroke-linejoin="round"/>
</g>
</svg>
