<svg preserveAspectRatio="none" width="100%" height="100%" overflow="visible" style="display: block;" viewBox="0 0 32 32" fill="none" xmlns="http://www.w3.org/2000/svg">
<g id="Frame">
<path id="Vector" d="M22.6666 5.33408C22.6666 6.80684 21.4728 8.00074 20 8.00074C18.5272 8.00074 17.3333 6.80684 17.3333 5.33408C17.3333 3.86132 18.5272 2.66741 20 2.66741C21.4728 2.66741 22.6666 3.86132 22.6666 5.33408Z" fill="url(#paint0_linear_0_21)"/>
<path id="Vector_2" fill-rule="evenodd" clip-rule="evenodd" d="M9.67775 7.18969C10.6606 6.57541 11.882 6.48136 12.9473 6.93792C15.2484 7.92412 15.8259 10.9226 14.0556 12.6928L13.6165 13.1318C13.4403 13.3082 13.3904 13.359 13.3573 13.3971C12.7769 14.0673 12.8226 15.0743 13.4612 15.6891C13.4976 15.7242 13.5519 15.7702 13.7435 15.9298L13.7577 15.9417C13.8655 16.0315 13.9399 16.0935 14.0103 16.1569C15.0157 17.0611 15.612 18.3342 15.6631 19.6857C15.6667 19.7802 15.6667 19.8771 15.6667 20.0174V21.3342C15.6667 21.8865 15.2189 22.3342 14.6667 22.3342C14.1144 22.3342 13.6667 21.8865 13.6667 21.3342V20.0359C13.6667 19.8702 13.6665 19.8133 13.6645 19.7611C13.6339 18.9503 13.2761 18.1865 12.6729 17.6438C12.634 17.609 12.5904 17.5723 12.4631 17.4663C12.4536 17.4583 12.4441 17.4505 12.4348 17.4427C12.2847 17.3177 12.1695 17.2217 12.0742 17.1299C10.6692 15.7775 10.5687 13.5619 11.8455 12.0878C11.9321 11.9878 12.0381 11.8818 12.1763 11.7437C12.1849 11.7351 12.1936 11.7264 12.2024 11.7176L12.6414 11.2786C13.4111 10.5089 13.16 9.20504 12.1594 8.77621C11.6962 8.57768 11.1651 8.61859 10.7377 8.88569L6.53 11.5155C6.06167 11.8082 5.44471 11.6659 5.152 11.1975C4.85929 10.7292 5.00167 10.1122 5.47 9.81953L9.67775 7.18969ZM15.718 13.018C15.8927 12.494 16.4589 12.2109 16.9829 12.3855C18.0759 12.7498 19.2575 12.7498 20.3504 12.3855C20.8744 12.2109 21.4407 12.494 21.6153 13.018C21.79 13.5419 21.5068 14.1082 20.9829 14.2829C19.4795 14.7841 17.8539 14.7841 16.3504 14.2829C15.8265 14.1082 15.5433 13.5419 15.718 13.018ZM10.0404 17.9605C10.431 18.351 10.431 18.9841 10.0404 19.3746C8.57232 20.8427 6.58113 21.6675 4.50491 21.6675H4C3.44772 21.6675 3 21.2198 3 20.6675C3 20.1153 3.44772 19.6675 4 19.6675H4.50491C6.05071 19.6675 7.53319 19.0535 8.62623 17.9605C9.01675 17.5699 9.64992 17.5699 10.0404 17.9605Z" fill="url(#paint1_linear_0_21)"/>
<path id="Vector_3" d="M29.5295 10.3134C30.0711 10.2051 30.4223 9.67823 30.3139 9.13667C30.2056 8.59511 29.6788 8.24389 29.1372 8.3522C26.7238 8.83489 24.8719 10.7788 24.5068 13.2129L23.0232 23.1032L3.86603 26.4557C3.17262 26.5771 2.66671 27.1792 2.66671 27.8832C2.66671 28.6835 3.3155 29.3323 4.11583 29.3323H25.9851C27.8343 29.3323 29.3334 27.8332 29.3334 25.984C29.3334 23.904 27.4568 22.3273 25.4079 22.6859L25.1002 22.7397L26.4847 13.5096C26.7248 11.909 27.9424 10.6308 29.5295 10.3134Z" fill="url(#paint2_linear_0_21)"/>
</g>
<defs>
<linearGradient id="paint0_linear_0_21" x1="20" y1="2.66741" x2="20" y2="8.00074" gradientUnits="userSpaceOnUse">
<stop stop-color="#4868EA"/>
<stop offset="1" stop-color="#26ABE9"/>
</linearGradient>
<linearGradient id="paint1_linear_0_21" x1="12.3335" y1="6.65179" x2="12.3335" y2="22.3342" gradientUnits="userSpaceOnUse">
<stop stop-color="#4868EA"/>
<stop offset="1" stop-color="#26ABE9"/>
</linearGradient>
<linearGradient id="paint2_linear_0_21" x1="16.5001" y1="8.33259" x2="16.5001" y2="29.3323" gradientUnits="userSpaceOnUse">
<stop stop-color="#4868EA"/>
<stop offset="1" stop-color="#26ABE9"/>
</linearGradient>
</defs>
</svg>
