<svg preserveAspectRatio="none" width="100%" height="100%" overflow="visible" style="display: block;" viewBox="0 0 16 16" fill="none" xmlns="http://www.w3.org/2000/svg">
<g id="uil:sun">
<path id="Vector" d="M3.76006 11.3333L3.28673 11.8066C3.16256 11.9315 3.09287 12.1005 3.09287 12.2766C3.09287 12.4528 3.16256 12.6217 3.28673 12.7466C3.41164 12.8708 3.58061 12.9405 3.75673 12.9405C3.93286 12.9405 4.10182 12.8708 4.22673 12.7466L4.70007 12.2733C4.80928 12.1458 4.86635 11.9817 4.85987 11.8139C4.85339 11.6461 4.78384 11.487 4.66511 11.3683C4.54638 11.2495 4.38722 11.18 4.21943 11.1735C4.05165 11.167 3.8876 11.2241 3.76006 11.3333ZM3.3334 7.99997C3.3334 7.82316 3.26316 7.65359 3.13814 7.52856C3.01311 7.40354 2.84354 7.3333 2.66673 7.3333H2.00007C1.82325 7.3333 1.65368 7.40354 1.52866 7.52856C1.40364 7.65359 1.3334 7.82316 1.3334 7.99997C1.3334 8.17678 1.40364 8.34635 1.52866 8.47137C1.65368 8.5964 1.82325 8.66663 2.00007 8.66663H2.66673C2.84354 8.66663 3.01311 8.5964 3.13814 8.47137C3.26316 8.34635 3.3334 8.17678 3.3334 7.99997ZM8.00006 3.3333C8.17688 3.3333 8.34644 3.26306 8.47147 3.13804C8.59649 3.01301 8.66673 2.84345 8.66673 2.66663V1.99997C8.66673 1.82316 8.59649 1.65359 8.47147 1.52856C8.34644 1.40354 8.17688 1.3333 8.00006 1.3333C7.82325 1.3333 7.65368 1.40354 7.52866 1.52856C7.40364 1.65359 7.3334 1.82316 7.3334 1.99997V2.66663C7.3334 2.84345 7.40364 3.01301 7.52866 3.13804C7.65368 3.26306 7.82325 3.3333 8.00006 3.3333ZM3.76006 4.69997C3.88424 4.82313 4.05184 4.89256 4.22673 4.8933C4.31447 4.89381 4.40144 4.87699 4.48267 4.84381C4.56389 4.81064 4.63777 4.76176 4.70007 4.69997C4.82423 4.57506 4.89393 4.40609 4.89393 4.22997C4.89393 4.05384 4.82423 3.88488 4.70007 3.75997L4.22673 3.28663C4.0992 3.17742 3.93515 3.12035 3.76736 3.12683C3.59958 3.13331 3.44042 3.20286 3.32169 3.32159C3.20296 3.44032 3.1334 3.59948 3.12692 3.76727C3.12044 3.93505 3.17751 4.0991 3.28673 4.22663L3.76006 4.69997ZM11.7601 4.8933C11.935 4.89256 12.1026 4.82313 12.2267 4.69997L12.7001 4.22663C12.7699 4.16687 12.8265 4.09332 12.8665 4.01061C12.9066 3.9279 12.9291 3.83782 12.9326 3.746C12.9361 3.65419 12.9207 3.56264 12.8872 3.47709C12.8536 3.39154 12.8028 3.31384 12.7378 3.24887C12.6729 3.1839 12.5952 3.13306 12.5096 3.09954C12.4241 3.06603 12.3325 3.05056 12.2407 3.0541C12.1489 3.05765 12.0588 3.08013 11.9761 3.12015C11.8934 3.16017 11.8198 3.21685 11.7601 3.28663L11.3334 3.75997C11.2092 3.88488 11.1395 4.05384 11.1395 4.22997C11.1395 4.40609 11.2092 4.57506 11.3334 4.69997C11.4509 4.81688 11.6078 4.8858 11.7734 4.8933H11.7601ZM14.0001 7.3333H13.3334C13.1566 7.3333 12.987 7.40354 12.862 7.52856C12.737 7.65359 12.6667 7.82316 12.6667 7.99997C12.6667 8.17678 12.737 8.34635 12.862 8.47137C12.987 8.5964 13.1566 8.66663 13.3334 8.66663H14.0001C14.1769 8.66663 14.3464 8.5964 14.4715 8.47137C14.5965 8.34635 14.6667 8.17678 14.6667 7.99997C14.6667 7.82316 14.5965 7.65359 14.4715 7.52856C14.3464 7.40354 14.1769 7.3333 14.0001 7.3333ZM8.00006 12.6666C7.82325 12.6666 7.65368 12.7369 7.52866 12.8619C7.40364 12.9869 7.3334 13.1565 7.3334 13.3333V14C7.3334 14.1768 7.40364 14.3463 7.52866 14.4714C7.65368 14.5964 7.82325 14.6666 8.00006 14.6666C8.17688 14.6666 8.34644 14.5964 8.47147 14.4714C8.59649 14.3463 8.66673 14.1768 8.66673 14V13.3333C8.66673 13.1565 8.59649 12.9869 8.47147 12.8619C8.34644 12.7369 8.17688 12.6666 8.00006 12.6666ZM12.2401 11.3333C12.1134 11.2628 11.9672 11.2356 11.8237 11.2557C11.6802 11.2757 11.5471 11.342 11.4446 11.4445C11.3421 11.547 11.2758 11.6801 11.2558 11.8236C11.2357 11.9671 11.2629 12.1133 11.3334 12.24L11.8067 12.7133C11.9316 12.8375 12.1006 12.9072 12.2767 12.9072C12.4529 12.9072 12.6218 12.8375 12.7467 12.7133C12.8709 12.5884 12.9406 12.4194 12.9406 12.2433C12.9406 12.0672 12.8709 11.8982 12.7467 11.7733L12.2401 11.3333ZM8.00006 4.3333C7.27487 4.3333 6.56595 4.54835 5.96297 4.95125C5.35999 5.35414 4.89003 5.9268 4.61251 6.59679C4.33499 7.26679 4.26237 8.00403 4.40385 8.7153C4.54533 9.42656 4.89455 10.0799 5.40734 10.5927C5.92013 11.1055 6.57347 11.4547 7.28473 11.5962C7.996 11.7377 8.73324 11.665 9.40324 11.3875C10.0732 11.11 10.6459 10.64 11.0488 10.0371C11.4517 9.43408 11.6667 8.72517 11.6667 7.99997C11.665 7.02805 11.2781 6.09644 10.5908 5.40919C9.90359 4.72194 8.97198 4.33506 8.00006 4.3333ZM8.00006 10.3333C7.53858 10.3333 7.08745 10.1965 6.70373 9.94006C6.32002 9.68367 6.02095 9.31926 5.84435 8.89289C5.66774 8.46653 5.62153 7.99738 5.71157 7.54476C5.8016 7.09213 6.02383 6.67637 6.35015 6.35005C6.67647 6.02373 7.09223 5.8015 7.54485 5.71147C7.99748 5.62144 8.46663 5.66764 8.89299 5.84425C9.31935 6.02085 9.68377 6.31992 9.94016 6.70364C10.1966 7.08735 10.3334 7.53848 10.3334 7.99997C10.3334 8.61881 10.0876 9.2123 9.64998 9.64988C9.2124 10.0875 8.6189 10.3333 8.00006 10.3333Z" fill="var(--fill-0, #717171)"/>
</g>
</svg>
