<svg preserveAspectRatio="none" width="100%" height="100%" overflow="visible" style="display: block;" viewBox="0 0 20 20" fill="none" xmlns="http://www.w3.org/2000/svg">
<g id="Frame">
<path id="Vector" d="M8.05901 3.44659C8.10493 2.96354 8.32929 2.51496 8.68826 2.18849C9.04724 1.86202 9.51504 1.68111 10.0003 1.68111C10.4855 1.68111 10.9533 1.86202 11.3123 2.18849C11.6712 2.51496 11.8956 2.96354 11.9415 3.44659C11.9691 3.75863 12.0715 4.05944 12.24 4.32354C12.4084 4.58764 12.6381 4.80726 12.9094 4.96382C13.1807 5.12038 13.4858 5.20926 13.7988 5.22294C14.1117 5.23662 14.4234 5.1747 14.7073 5.04242C15.1483 4.84224 15.6479 4.81327 16.109 4.96116C16.5701 5.10905 16.9597 5.42321 17.2019 5.84251C17.4442 6.26181 17.5218 6.75623 17.4195 7.22956C17.3173 7.7029 17.0427 8.12127 16.649 8.40326C16.3927 8.58313 16.1834 8.8221 16.0389 9.09994C15.8945 9.37779 15.8191 9.68635 15.8191 9.99951C15.8191 10.3127 15.8945 10.6212 16.0389 10.8991C16.1834 11.1769 16.3927 11.4159 16.649 11.5958C17.0427 11.8777 17.3173 12.2961 17.4195 12.7694C17.5218 13.2428 17.4442 13.7372 17.2019 14.1565C16.9597 14.5758 16.5701 14.89 16.109 15.0379C15.6479 15.1857 15.1483 15.1568 14.7073 14.9566C14.4234 14.8243 14.1117 14.7624 13.7988 14.7761C13.4858 14.7898 13.1807 14.8786 12.9094 15.0352C12.6381 15.1917 12.4084 15.4114 12.24 15.6755C12.0715 15.9396 11.9691 16.2404 11.9415 16.5524C11.8956 17.0355 11.6712 17.4841 11.3123 17.8105C10.9533 18.137 10.4855 18.3179 10.0003 18.3179C9.51504 18.3179 9.04724 18.137 8.68826 17.8105C8.32929 17.4841 8.10493 17.0355 8.05901 16.5524C8.03147 16.2403 7.92909 15.9393 7.76057 15.6752C7.59204 15.411 7.36232 15.1913 7.09087 15.0347C6.81942 14.8781 6.51424 14.7893 6.20116 14.7757C5.88809 14.7621 5.57635 14.8241 5.29235 14.9566C4.85142 15.1568 4.35179 15.1857 3.89068 15.0379C3.42958 14.89 3.03999 14.5758 2.79775 14.1565C2.55551 13.7372 2.47794 13.2428 2.58015 12.7694C2.68235 12.2961 2.95701 11.8777 3.35068 11.5958C3.60703 11.4159 3.81629 11.1769 3.96075 10.8991C4.10522 10.6212 4.18064 10.3127 4.18064 9.99951C4.18064 9.68635 4.10522 9.37779 3.96075 9.09994C3.81629 8.8221 3.60703 8.58313 3.35068 8.40326C2.95757 8.12113 2.68339 7.70292 2.58143 7.22991C2.47947 6.7569 2.55702 6.26287 2.799 5.84385C3.04098 5.42483 3.43011 5.11074 3.89076 4.96262C4.3514 4.81451 4.85067 4.84295 5.29151 5.04242C5.57548 5.1747 5.88713 5.23662 6.2001 5.22294C6.51306 5.20926 6.81812 5.12038 7.08946 4.96382C7.3608 4.80726 7.59042 4.58764 7.7589 4.32354C7.92738 4.05944 8.02975 3.75863 8.05735 3.44659" stroke="var(--stroke-0, black)" stroke-width="1.45833" stroke-linecap="round" stroke-linejoin="round"/>
<path id="Vector_2" d="M10 12.5C11.3807 12.5 12.5 11.3807 12.5 10C12.5 8.61929 11.3807 7.5 10 7.5C8.61929 7.5 7.5 8.61929 7.5 10C7.5 11.3807 8.61929 12.5 10 12.5Z" stroke="var(--stroke-0, black)" stroke-width="1.45833" stroke-linecap="round" stroke-linejoin="round"/>
</g>
</svg>
