<svg preserveAspectRatio="none" width="100%" height="100%" overflow="visible" style="display: block;" viewBox="0 0 20 20" fill="none" xmlns="http://www.w3.org/2000/svg">
<g id="Arrow-icon" transform="rotate(-90 10 10)">
<path id="Vector" d="M16.6921 7.94254L10.4421 14.1925C10.384 14.2506 10.3151 14.2967 10.2392 14.3282C10.1633 14.3597 10.082 14.3758 9.99988 14.3758C9.91775 14.3758 9.83642 14.3597 9.76055 14.3282C9.68467 14.2967 9.61574 14.2506 9.5577 14.1925L3.3077 7.94254C3.19042 7.82526 3.12454 7.6662 3.12454 7.50035C3.12454 7.3345 3.19042 7.17544 3.3077 7.05816C3.42497 6.94088 3.58403 6.875 3.74988 6.875C3.91574 6.875 4.0748 6.94088 4.19207 7.05816L9.99988 12.8668L15.8077 7.05816C15.8658 7.00009 15.9347 6.95403 16.0106 6.9226C16.0864 6.89117 16.1678 6.875 16.2499 6.875C16.332 6.875 16.4133 6.89117 16.4892 6.9226C16.5651 6.95403 16.634 7.00009 16.6921 7.05816C16.7501 7.11623 16.7962 7.18517 16.8276 7.26104C16.8591 7.33691 16.8752 7.41823 16.8752 7.50035C16.8752 7.58247 16.8591 7.66379 16.8276 7.73966C16.7962 7.81553 16.7501 7.88447 16.6921 7.94254Z" fill="var(--fill-0, #717171)"/>
</g>
</svg>
