<svg preserveAspectRatio="none" width="100%" height="100%" overflow="visible" style="display: block;" viewBox="0 0 16 16" fill="none" xmlns="http://www.w3.org/2000/svg">
<g id="tabler:moon">
<path id="Vector" d="M7.99953 1.99996H8.26153C7.40509 2.79577 6.85459 3.86652 6.70572 5.02611C6.55686 6.18569 6.81903 7.36078 7.44669 8.34712C8.07434 9.33345 9.02777 10.0687 10.1413 10.4249C11.2548 10.7812 12.4579 10.7361 13.5415 10.2973C13.1247 11.3003 12.4434 12.1713 11.5703 12.8175C10.6973 13.4636 9.66516 13.8607 8.58413 13.9662C7.50311 14.0718 6.4137 13.8819 5.43212 13.4169C4.45054 12.9519 3.6136 12.2291 3.01059 11.3257C2.40757 10.4223 2.0611 9.37215 2.00812 8.28728C1.95514 7.2024 2.19765 6.12349 2.70978 5.16564C3.2219 4.20778 3.98444 3.40691 4.91604 2.84845C5.84764 2.28999 6.91336 1.99489 7.99953 1.99463V1.99996Z" stroke="var(--stroke-0, #717171)" stroke-width="1.33333" stroke-linecap="round" stroke-linejoin="round"/>
</g>
</svg>
