<svg preserveAspectRatio="none" width="100%" height="100%" overflow="visible" style="display: block;" viewBox="0 0 24 24" fill="none" xmlns="http://www.w3.org/2000/svg">
<g id="Frame">
<path id="Vector" d="M16.9999 4.00061C16.9999 5.10518 16.1045 6.00061 14.9999 6.00061C13.8953 6.00061 12.9999 5.10518 12.9999 4.00061C12.9999 2.89604 13.8953 2.00061 14.9999 2.00061C16.1045 2.00061 16.9999 2.89604 16.9999 4.00061Z" fill="url(#paint0_linear_0_35)"/>
<path id="Vector_2" fill-rule="evenodd" clip-rule="evenodd" d="M7.25831 5.39232C7.99545 4.93161 8.91147 4.86107 9.71046 5.20349C11.4363 5.94314 11.8694 8.19197 10.5417 9.51968L10.2124 9.84892C10.0802 9.98119 10.0428 10.0193 10.018 10.0479C9.5827 10.5505 9.61696 11.3058 10.0959 11.7669C10.1232 11.7932 10.1639 11.8277 10.3076 11.9474L10.3183 11.9563C10.3991 12.0237 10.4549 12.0702 10.5077 12.1177C11.2618 12.7959 11.709 13.7507 11.7473 14.7643C11.75 14.8352 11.75 14.9079 11.75 15.0131V16.0007C11.75 16.4149 11.4142 16.7507 11 16.7507C10.5858 16.7507 10.25 16.4149 10.25 16.0007V15.027C10.25 14.9027 10.2499 14.86 10.2484 14.8209C10.2254 14.2128 9.9571 13.6399 9.50464 13.2329C9.47553 13.2068 9.44278 13.1793 9.34736 13.0998C9.34017 13.0938 9.33308 13.0879 9.32609 13.0821C9.21351 12.9883 9.12714 12.9163 9.05566 12.8475C8.00192 11.8332 7.92655 10.1715 8.88412 9.06588C8.94908 8.99089 9.02858 8.91142 9.13221 8.80782C9.13864 8.80139 9.14517 8.79487 9.15178 8.78826L9.48102 8.45902C10.0583 7.88169 9.87003 6.90383 9.11958 6.58221C8.77215 6.43331 8.37384 6.46399 8.05331 6.66432L4.8975 8.6367C4.54625 8.85623 4.08353 8.74945 3.864 8.3982C3.64447 8.04695 3.75125 7.58423 4.1025 7.3647L7.25831 5.39232ZM11.7885 9.76353C11.9195 9.37057 12.3442 9.1582 12.7372 9.28919C13.5569 9.56243 14.4431 9.56243 15.2628 9.28919C15.6558 9.1582 16.0805 9.37057 16.2115 9.76353C16.3425 10.1565 16.1301 10.5812 15.7372 10.7122C14.6096 11.0881 13.3904 11.0881 12.2628 10.7122C11.8699 10.5812 11.6575 10.1565 11.7885 9.76353ZM7.53033 13.4704C7.82322 13.7633 7.82322 14.2381 7.53033 14.531C6.42924 15.6321 4.93585 16.2507 3.37868 16.2507H3C2.58579 16.2507 2.25 15.9149 2.25 15.5007C2.25 15.0865 2.58579 14.7507 3 14.7507H3.37868C4.53803 14.7507 5.64989 14.2902 6.46967 13.4704C6.76256 13.1775 7.23744 13.1775 7.53033 13.4704Z" fill="url(#paint1_linear_0_35)"/>
<path id="Vector_3" d="M22.1472 7.73498C22.5534 7.65374 22.8168 7.25862 22.7355 6.85245C22.6543 6.44628 22.2592 6.18287 21.853 6.2641C20.0429 6.62612 18.654 8.08406 18.3802 9.90959L17.2675 17.3273L2.89955 19.8417C2.37949 19.9327 2.00006 20.3843 2.00006 20.9123C2.00006 21.5125 2.48665 21.9991 3.0869 21.9991H19.4889C20.8758 21.9991 22.0001 20.8748 22.0001 19.4879C22.0001 17.9279 20.5927 16.7454 19.056 17.0143L18.8252 17.0547L19.8636 10.1321C20.0437 8.93171 20.9569 7.97302 22.1472 7.73498Z" fill="url(#paint2_linear_0_35)"/>
</g>
<defs>
<linearGradient id="paint0_linear_0_35" x1="14.9999" y1="2.00061" x2="14.9999" y2="6.00061" gradientUnits="userSpaceOnUse">
<stop stop-color="#4868EA"/>
<stop offset="1" stop-color="#26ABE9"/>
</linearGradient>
<linearGradient id="paint1_linear_0_35" x1="9.2501" y1="4.98889" x2="9.2501" y2="16.7507" gradientUnits="userSpaceOnUse">
<stop stop-color="#4868EA"/>
<stop offset="1" stop-color="#26ABE9"/>
</linearGradient>
<linearGradient id="paint2_linear_0_35" x1="12.3751" y1="6.24939" x2="12.3751" y2="21.9991" gradientUnits="userSpaceOnUse">
<stop stop-color="#4868EA"/>
<stop offset="1" stop-color="#26ABE9"/>
</linearGradient>
</defs>
</svg>
