<svg preserveAspectRatio="none" width="100%" height="100%" overflow="visible" style="display: block;" viewBox="0 0 24 24" fill="none" xmlns="http://www.w3.org/2000/svg">
<g id="nimbus:trash" clip-path="url(#clip0_0_40)">
<path id="Vector" d="M19.6647 2.82029C19.4884 2.64087 19.2784 2.49812 19.0467 2.40029C18.815 2.30246 18.5662 2.25148 18.3147 2.25029H13.8147V1.80029C13.8147 1.30301 13.6171 0.826098 13.2655 0.474468C12.9139 0.122837 12.437 -0.074707 11.9397 -0.074707C11.4424 -0.074707 10.9655 0.122837 10.6139 0.474468C10.2622 0.826098 10.0647 1.30301 10.0647 1.80029V2.25029H5.56468C5.07794 2.28122 4.62241 2.5006 4.29475 2.86187C3.96709 3.22313 3.79309 3.69785 3.80968 4.18529L4.42468 22.1853C4.44395 22.6709 4.64951 23.1303 4.99867 23.4683C5.34782 23.8063 5.81375 23.9968 6.29968 24.0003H17.6847C18.1625 23.9889 18.6175 23.794 18.9554 23.456C19.2934 23.1181 19.4883 22.6631 19.4997 22.1853L20.1297 4.18529C20.1579 3.68716 19.9911 3.19759 19.6647 2.82029ZM6.29968 22.1253L5.81968 7.87529H18.1797L17.6847 22.1253H6.29968ZM18.2397 6.00029H5.75968V4.12529H18.3897L18.2397 6.00029Z" fill="var(--fill-0, #A90909)"/>
<path id="Vector_2" d="M7.5 10.5H9.375V18H7.5V10.5ZM11.055 10.5H12.93V18H11.055V10.5ZM14.625 10.5H16.5V18H14.625V10.5Z" fill="var(--fill-0, #A90909)"/>
</g>
<defs>
<clipPath id="clip0_0_40">
<rect width="24" height="24" fill="white"/>
</clipPath>
</defs>
</svg>
