<svg preserveAspectRatio="none" width="100%" height="100%" overflow="visible" style="display: block;" viewBox="0 0 24 24" fill="none" xmlns="http://www.w3.org/2000/svg">
<g id="ic:outline-refresh">
<path id="Vector" d="M17.65 6.35C16.9098 5.60494 16.0295 5.01371 15.0598 4.61038C14.0901 4.20706 13.0502 3.99961 12 4C7.58 4 4.01 7.58 4.01 12C4.01 16.42 7.58 20 12 20C15.73 20 18.84 17.45 19.73 14H17.65C17.2381 15.1695 16.4733 16.1824 15.4613 16.8988C14.4493 17.6153 13.2399 18 12 18C8.69 18 6 15.31 6 12C6 8.69 8.69 6 12 6C13.66 6 15.14 6.69 16.22 7.78L13 11H20V4L17.65 6.35Z" fill="var(--fill-0, black)"/>
</g>
</svg>
