<svg preserveAspectRatio="none" width="100%" height="100%" overflow="visible" style="display: block;" viewBox="0 0 24 24" fill="none" xmlns="http://www.w3.org/2000/svg">
<g id="material-symbols-light:step-over-rounded">
<path id="Vector" d="M10.23 17.772C9.74333 17.286 9.5 16.696 9.5 16.002C9.5 15.308 9.743 14.7177 10.229 14.231C10.715 13.7443 11.3047 13.5007 11.998 13.5C12.6913 13.4993 13.2817 13.7423 13.769 14.229C14.2563 14.7157 14.5 15.3053 14.5 15.998C14.5 16.6907 14.2573 17.281 13.772 17.769C13.2867 18.257 12.6967 18.5007 12.002 18.5C11.3073 18.4993 10.717 18.2567 10.231 17.772M17.45 10.5C16.968 9.45933 16.244 8.616 15.278 7.97C14.3113 7.32333 13.2187 7 12 7C10.7213 7 9.57533 7.365 8.562 8.095C7.54867 8.825 6.826 9.76167 6.394 10.905C6.344 11.0623 6.26633 11.2007 6.161 11.32C6.05633 11.44 5.92767 11.5 5.775 11.5C5.61367 11.5 5.48933 11.4367 5.402 11.31C5.31533 11.184 5.29433 11.05 5.339 10.908C5.77967 9.47733 6.60167 8.30133 7.805 7.38C9.00833 6.45867 10.3983 5.99867 11.975 6C13.2177 6 14.349 6.297 15.369 6.891C16.3897 7.48567 17.209 8.26567 17.827 9.231V6.385C17.827 6.243 17.875 6.124 17.971 6.028C18.067 5.93267 18.1857 5.885 18.327 5.885C18.469 5.885 18.588 5.93267 18.684 6.028C18.78 6.12333 18.8277 6.24233 18.827 6.385V10.692C18.827 10.9213 18.7497 11.1133 18.595 11.268C18.4403 11.4227 18.2483 11.5 18.019 11.5H13.712C13.57 11.5 13.451 11.452 13.355 11.356C13.259 11.26 13.2113 11.141 13.212 10.999C13.2127 10.857 13.2603 10.7383 13.355 10.643C13.4497 10.5477 13.5687 10.5 13.712 10.5H17.45Z" fill="var(--fill-0, black)"/>
</g>
</svg>
