<svg preserveAspectRatio="none" width="100%" height="100%" overflow="visible" style="display: block;" viewBox="0 0 40 40" fill="none" xmlns="http://www.w3.org/2000/svg">
<g id="mdi:notebook">
<path id="Vector" d="M5 11.6667V8.33333H8.33333V6.66667C8.33333 5.78261 8.68452 4.93477 9.30964 4.30964C9.93477 3.68452 10.7826 3.33333 11.6667 3.33333H21.6667V15L25.8333 12.5L30 15V3.33333H31.6667C33.4167 3.33333 35 4.91667 35 6.66667V33.3333C35 35.0833 33.4167 36.6667 31.6667 36.6667H11.6667C9.91667 36.6667 8.33333 35.0833 8.33333 33.3333V31.6667H5V28.3333H8.33333V21.6667H5V18.3333H8.33333V11.6667H5ZM11.6667 18.3333H8.33333V21.6667H11.6667V18.3333ZM11.6667 11.6667V8.33333H8.33333V11.6667H11.6667ZM11.6667 31.6667V28.3333H8.33333V31.6667H11.6667Z" fill="var(--fill-0, #005D8F)"/>
</g>
</svg>
