<svg preserveAspectRatio="none" width="100%" height="100%" overflow="visible" style="display: block;" viewBox="0 0 29.3333 29.3333" fill="none" xmlns="http://www.w3.org/2000/svg">
<g id="Group">
<path id="Vector" d="M1.33333 4.66667V24.6667C1.33333 25.5507 1.68452 26.3986 2.30964 27.0237C2.93477 27.6488 3.78261 28 4.66667 28H24.6667C25.5507 28 26.3986 27.6488 27.0237 27.0237C27.6488 26.3986 28 25.5507 28 24.6667V4.66667C28 3.78261 27.6488 2.93477 27.0237 2.30964C26.3986 1.68452 25.5507 1.33333 24.6667 1.33333H4.66667C3.78261 1.33333 2.93477 1.68452 2.30964 2.30964C1.68452 2.93477 1.33333 3.78261 1.33333 4.66667Z" stroke="var(--stroke-0, #005D8F)" stroke-width="2.66667" stroke-linecap="round" stroke-linejoin="round"/>
<path id="Vector_2" d="M6.33329 18L11.3333 13L14.6666 16.3333L19.6666 11.3333L23 14.6666" stroke="var(--stroke-0, #005D8F)" stroke-width="2.66667" stroke-linecap="round" stroke-linejoin="round"/>
</g>
</svg>
