<svg preserveAspectRatio="none" width="100%" height="100%" overflow="visible" style="display: block;" viewBox="0 0 40 40" fill="none" xmlns="http://www.w3.org/2000/svg">
<g id="material-symbols:explore-outline-rounded">
<path id="Vector" d="M13.9583 27.0833L22.375 24.6667C22.9306 24.5 23.41 24.215 23.8133 23.8117C24.2167 23.4083 24.5011 22.9294 24.6667 22.375L27.0833 13.9583C27.1667 13.6528 27.0906 13.3817 26.855 13.145C26.6194 12.9083 26.3483 12.8322 26.0417 12.9167L17.625 15.3333C17.0694 15.5 16.5906 15.785 16.1883 16.1883C15.7861 16.5917 15.5011 17.0706 15.3333 17.625L12.9167 26.0417C12.8333 26.3472 12.91 26.6183 13.1467 26.855C13.3833 27.0917 13.6539 27.1678 13.9583 27.0833ZM20 22.5C19.3056 22.5 18.7156 22.2572 18.23 21.7717C17.7444 21.2861 17.5011 20.6956 17.5 20C17.4989 19.3044 17.7422 18.7144 18.23 18.23C18.7178 17.7456 19.3078 17.5022 20 17.5C20.6922 17.4978 21.2828 17.7411 21.7717 18.23C22.2606 18.7189 22.5033 19.3089 22.5 20C22.4967 20.6911 22.2539 21.2817 21.7717 21.7717C21.2894 22.2617 20.6989 22.5044 20 22.5ZM20 36.6667C17.6944 36.6667 15.5278 36.2289 13.5 35.3533C11.4722 34.4778 9.70834 33.2906 8.20834 31.7917C6.70834 30.2928 5.52111 28.5289 4.64667 26.5C3.77222 24.4711 3.33445 22.3044 3.33334 20C3.33222 17.6956 3.77 15.5289 4.64667 13.5C5.52334 11.4711 6.71056 9.70722 8.20834 8.20833C9.70611 6.70945 11.47 5.52222 13.5 4.64667C15.53 3.77111 17.6967 3.33333 20 3.33333C22.3033 3.33333 24.47 3.77111 26.5 4.64667C28.53 5.52222 30.2939 6.70945 31.7917 8.20833C33.2894 9.70722 34.4772 11.4711 35.355 13.5C36.2328 15.5289 36.67 17.6956 36.6667 20C36.6633 22.3044 36.2256 24.4711 35.3533 26.5C34.4811 28.5289 33.2939 30.2928 31.7917 31.7917C30.2894 33.2906 28.5256 34.4783 26.5 35.355C24.4744 36.2317 22.3078 36.6689 20 36.6667ZM20 33.3333C23.6944 33.3333 26.8406 32.035 29.4383 29.4383C32.0361 26.8417 33.3344 23.6956 33.3333 20C33.3322 16.3044 32.0339 13.1583 29.4383 10.5617C26.8428 7.965 23.6967 6.66667 20 6.66667C16.3033 6.66667 13.1572 7.96556 10.5617 10.5633C7.96611 13.1611 6.66778 16.3067 6.66667 20C6.66556 23.6933 7.96445 26.8394 10.5633 29.4383C13.1622 32.0372 16.3078 33.3356 20 33.3333Z" fill="var(--fill-0, #005D8F)"/>
</g>
</svg>
