<svg preserveAspectRatio="none" width="100%" height="100%" overflow="visible" style="display: block;" viewBox="0 0 36 34.7072" fill="none" xmlns="http://www.w3.org/2000/svg">
<g id="Group">
<path id="Vector" d="M13.2367 33.3735C10.4801 32.5503 7.98361 31.0276 5.99001 28.9535C6.6314 28.1928 7.03123 27.258 7.13833 26.2687C7.24543 25.2794 7.05493 24.2807 6.59121 23.4003C6.12749 22.52 5.41163 21.798 4.53525 21.3268C3.65886 20.8555 2.66181 20.6565 1.67167 20.7552C1.4456 19.6503 1.33224 18.5254 1.33334 17.3977C1.33334 15.656 1.60001 13.976 2.09667 12.3977H2.16667C3.01647 12.3979 3.85232 12.1816 4.59529 11.7691C5.33826 11.3566 5.96383 10.7616 6.41295 10.0402C6.86207 9.31873 7.1199 8.49474 7.16211 7.64599C7.20432 6.79725 7.0295 5.95175 6.65418 5.18933C8.60862 3.37086 10.9713 2.04849 13.5433 1.33349C13.962 2.15549 14.5999 2.84566 15.3864 3.32762C16.173 3.80958 17.0775 4.06455 18 4.06433C18.9225 4.06455 19.827 3.80958 20.6136 3.32762C21.4001 2.84566 22.038 2.15549 22.4567 1.33349C25.0287 2.04849 27.3914 3.37086 29.3458 5.18933C28.9678 5.95708 28.7931 6.80903 28.8385 7.66362C28.884 8.51821 29.148 9.34683 29.6053 10.0702C30.0627 10.7935 30.698 11.3874 31.4506 11.7949C32.2031 12.2024 33.0476 12.41 33.9033 12.3977C34.4107 14.0158 34.6681 15.7019 34.6667 17.3977C34.6667 18.5477 34.55 19.671 34.3283 20.756C33.3382 20.6573 32.3412 20.8564 31.4648 21.3276C30.5884 21.7988 29.8725 22.5208 29.4088 23.4012C28.9451 24.2816 28.7546 25.2803 28.8617 26.2695C28.9688 27.2588 29.3686 28.1936 30.01 28.9543C28.0163 31.0281 25.5198 32.5505 22.7633 33.3735C22.4396 32.3646 21.8039 31.4845 20.9479 30.8601C20.0918 30.2357 19.0596 29.8993 18 29.8993C16.9404 29.8993 15.9082 30.2357 15.0521 30.8601C14.1961 31.4845 13.5604 32.3646 13.2367 33.3735Z" stroke="var(--stroke-0, #005D8F)" stroke-width="2.66667" stroke-linejoin="round"/>
<path id="Vector_2" d="M18 23.2313C18.7661 23.2313 19.5246 23.0804 20.2324 22.7872C20.9401 22.4941 21.5832 22.0644 22.1248 21.5227C22.6665 20.9811 23.0962 20.338 23.3893 19.6303C23.6825 18.9225 23.8334 18.164 23.8334 17.3979C23.8334 16.6319 23.6825 15.8734 23.3893 15.1656C23.0962 14.4579 22.6665 13.8148 22.1248 13.2732C21.5832 12.7315 20.9401 12.3018 20.2324 12.0086C19.5246 11.7155 18.7661 11.5646 18 11.5646C16.4529 11.5646 14.9692 12.1792 13.8753 13.2732C12.7813 14.3671 12.1667 15.8508 12.1667 17.3979C12.1667 18.945 12.7813 20.4288 13.8753 21.5227C14.9692 22.6167 16.4529 23.2313 18 23.2313Z" stroke="var(--stroke-0, #005D8F)" stroke-width="2.66667" stroke-linejoin="round"/>
</g>
</svg>
