<svg preserveAspectRatio="none" width="100%" height="100%" overflow="visible" style="display: block;" viewBox="0 0 40 40" fill="none" xmlns="http://www.w3.org/2000/svg">
<g id="wpf:create-new" clip-path="url(#clip0_0_37)">
<path id="Vector" d="M34.5202 -0.096905C33.9433 -0.096905 33.3941 0.164633 32.9325 0.626172L31.8279 1.68309L38.3172 8.17233L39.3756 7.06771C40.2987 6.14463 40.2987 4.76925 39.3756 3.84617L36.1541 0.624633C35.6925 0.163095 35.0972 -0.096905 34.5202 -0.096905ZM30.7695 2.59694L29.0864 3.99233L36.0095 10.9154L37.5479 9.37694L30.7695 2.59694ZM28.1725 5.09694L14.2802 18.8477C14.2101 18.9059 14.1452 18.9703 14.0864 19.04L13.991 19.0877C13.8246 19.2809 13.7088 19.5125 13.6541 19.7616L11.7787 26.3477C11.6983 26.6084 11.6906 26.8861 11.7562 27.1508C11.8219 27.4156 11.9586 27.6575 12.1514 27.8503C12.3443 28.0432 12.5862 28.1799 12.851 28.2456C13.1157 28.3112 13.3934 28.3035 13.6541 28.2231L20.2402 26.3477C20.4587 26.2953 20.6627 26.1948 20.8373 26.0535C21.0119 25.9121 21.1527 25.7335 21.2495 25.5308L34.9049 12.02L32.3079 9.23079V9.3754L30.4802 7.54771H30.6249L28.1725 5.09694ZM1.25101 6.15386C0.894592 6.22165 0.5736 6.41322 0.344732 6.69473C0.115865 6.97624 -0.00615044 7.32958 0.000238771 7.69233V38.4616C0.000238771 38.8696 0.162326 39.2609 0.450844 39.5494C0.739361 39.8379 1.13067 40 1.5387 40H32.3079C32.716 40 33.1073 39.8379 33.3958 39.5494C33.6843 39.2609 33.8464 38.8696 33.8464 38.4616V21.5385C33.8464 21.1305 33.6843 20.7391 33.3958 20.4506C33.1073 20.1621 32.716 20 32.3079 20C31.8999 20 31.5086 20.1621 31.2201 20.4506C30.9316 20.7391 30.7695 21.1305 30.7695 21.5385V36.9231H3.07716V9.23079H18.4618C18.8698 9.23079 19.2611 9.0687 19.5496 8.78018C19.8382 8.49166 20.0002 8.10035 20.0002 7.69233C20.0002 7.2843 19.8382 6.89299 19.5496 6.60447C19.2611 6.31595 18.8698 6.15386 18.4618 6.15386H1.5387C1.49052 6.1516 1.44226 6.1516 1.39408 6.15386C1.34591 6.1516 1.29765 6.1516 1.24947 6.15386H1.25101ZM16.3479 21.2508L18.4633 21.3939L18.6079 23.7016L16.4925 24.3262L15.6756 23.5108L16.3479 21.2508Z" fill="var(--fill-0, #005D8F)"/>
</g>
<defs>
<clipPath id="clip0_0_37">
<rect width="40" height="40" fill="white"/>
</clipPath>
</defs>
</svg>
