<svg preserveAspectRatio="none" width="100%" height="100%" overflow="visible" style="display: block;" viewBox="0 0 58.0641 50.5651" fill="none" xmlns="http://www.w3.org/2000/svg">
<path id="Ellipse 5" d="M52.1282 1.7774e-07C54.5662 3.42279 56.3062 7.29226 57.2488 11.3875C58.1913 15.4827 58.3181 19.7235 57.6217 23.8677C56.9254 28.0119 55.4196 31.9784 53.1903 35.5406C50.9611 39.1029 48.052 42.1912 44.6292 44.6292C41.2064 47.0672 37.3369 48.8072 33.2417 49.7497C29.1465 50.6923 24.9057 50.819 20.7615 50.1227C16.6173 49.4263 12.6508 47.9205 9.08856 45.6913C5.5263 43.462 2.438 40.5529 1.64841e-07 37.1301L10.4256 29.7041C11.8884 31.7578 13.7414 33.5032 15.8788 34.8408C18.0161 36.1784 20.396 37.0818 22.8825 37.4996C25.3691 37.9174 27.9135 37.8414 30.3707 37.2759C32.8278 36.7103 35.1495 35.6663 37.2032 34.2035C39.2568 32.7407 41.0023 30.8878 42.3398 28.7504C43.6774 26.6131 44.5809 24.2332 44.9987 21.7466C45.4165 19.2601 45.3405 16.7157 44.7749 14.2585C44.2094 11.8014 43.1654 9.4797 41.7026 7.42603L52.1282 1.7774e-07Z" fill="var(--fill-0, #005D8F)"/>
</svg>
