<svg preserveAspectRatio="none" width="100%" height="100%" overflow="visible" style="display: block;" viewBox="0 0 24 24" fill="none" xmlns="http://www.w3.org/2000/svg">
<g id="lets-icons:moon">
<path id="Vector" d="M14 12C14 10.025 14.817 8.242 16.134 6.968L14.744 5.53C13.8751 6.36855 13.1843 7.37373 12.7128 8.48542C12.2413 9.59711 11.9989 10.7925 12 12H14ZM16.134 17.032C15.4581 16.38 14.9207 15.5982 14.554 14.7336C14.1873 13.8689 13.9989 12.9392 14 12H12C11.9989 13.2075 12.2413 14.4029 12.7128 15.5146C13.1843 16.6263 13.8751 17.6314 14.744 18.47L16.134 17.032ZM15 19C13.1435 19 11.363 18.2625 10.0503 16.9497C8.7375 15.637 8 13.8565 8 12H6C6 14.3869 6.94821 16.6761 8.63604 18.364C10.3239 20.0518 12.6131 21 15 21V19ZM8 12C8 10.1435 8.7375 8.36301 10.0503 7.05025C11.363 5.7375 13.1435 5 15 5V3C12.6131 3 10.3239 3.94821 8.63604 5.63604C6.94821 7.32387 6 9.61305 6 12H8ZM14.744 18.47C14.966 18.685 15.116 18.83 15.221 18.938L15.317 19.042C15.336 19.064 15.317 19.046 15.292 19L17.036 18.02C16.9298 17.8458 16.8017 17.6858 16.655 17.544C16.524 17.409 16.346 17.238 16.134 17.032L14.744 18.47ZM15 21C15.236 21 15.552 21.01 15.864 20.916L15.292 19C15.32 18.992 15.331 18.994 15.288 18.996C15.192 18.9996 15.096 19.001 15 19V21ZM15.292 19L15.864 20.916C16.1515 20.8302 16.416 20.6809 16.638 20.479C16.8599 20.2771 17.0336 20.0279 17.1462 19.7497C17.2587 19.4716 17.3073 19.1717 17.2882 18.8723C17.2691 18.5729 17.1829 18.2816 17.036 18.02L15.292 19ZM16.134 6.968C16.347 6.762 16.524 6.591 16.654 6.456C16.766 6.342 16.927 6.171 17.036 5.979L15.292 5C15.318 4.954 15.336 4.936 15.317 4.959C15.2862 4.99445 15.2542 5.0288 15.221 5.062C15.116 5.17 14.966 5.315 14.744 5.53L16.134 6.968ZM15 5C15.157 5 15.233 5 15.288 5.004C15.331 5.006 15.32 5.008 15.292 5L15.864 3.084C15.552 2.99 15.236 3 15 3V5ZM17.036 5.979C17.1829 5.71741 17.2691 5.42711 17.2882 5.12768C17.3073 4.82826 17.2587 4.52838 17.1462 4.25025C17.0336 3.97213 16.8599 3.7229 16.638 3.52101C16.416 3.31913 16.1515 3.16977 15.864 3.084L15.292 5L17.036 5.979Z" fill="var(--fill-0, black)"/>
</g>
</svg>
