<svg preserveAspectRatio="none" width="100%" height="100%" overflow="visible" style="display: block;" viewBox="0 0 20 20" fill="none" xmlns="http://www.w3.org/2000/svg">
<g id="Frame">
<path id="Vector" d="M10 1.66677V3.33344" stroke="var(--stroke-0, black)" stroke-width="1.45833" stroke-linecap="round" stroke-linejoin="round"/>
<path id="Vector_2" d="M12.3644 13.654C12.1591 14.52 11.7264 15.3155 11.1109 15.9583C10.4955 16.6012 9.71963 17.0682 8.86343 17.311C8.00723 17.5538 7.10174 17.5637 6.24044 17.3397C5.37913 17.1156 4.59324 16.6657 3.9639 16.0365C3.33455 15.4072 2.88457 14.6214 2.6604 13.7601C2.43623 12.8988 2.44601 11.9934 2.68871 11.1371C2.93142 10.2809 3.39826 9.50495 4.04105 8.88943C4.68383 8.2739 5.47925 7.8411 6.34518 7.63569C6.86518 7.51319 7.15352 8.18569 6.94102 8.67569C6.67575 9.28894 6.6009 9.96776 6.72618 10.6241C6.85146 11.2804 7.17109 11.8839 7.6436 12.3563C8.1161 12.8287 8.71968 13.1482 9.37602 13.2734C10.0324 13.3986 10.7112 13.3236 11.3244 13.0582C11.8152 12.8457 12.4877 13.1332 12.3644 13.654Z" stroke="var(--stroke-0, black)" stroke-width="1.45833" stroke-linecap="round" stroke-linejoin="round"/>
<path id="Vector_3" d="M13.3333 10.0001C13.3333 9.11605 12.9821 8.2682 12.357 7.64308C11.7319 7.01796 10.8841 6.66677 10 6.66677" stroke="var(--stroke-0, black)" stroke-width="1.45833" stroke-linecap="round" stroke-linejoin="round"/>
<path id="Vector_4" d="M15.8335 4.16677L14.7868 5.21344" stroke="var(--stroke-0, black)" stroke-width="1.45833" stroke-linecap="round" stroke-linejoin="round"/>
<path id="Vector_5" d="M16.6667 10H18.3333" stroke="var(--stroke-0, black)" stroke-width="1.45833" stroke-linecap="round" stroke-linejoin="round"/>
</g>
</svg>
