<svg preserveAspectRatio="none" width="100%" height="100%" overflow="visible" style="display: block;" viewBox="0 0 20 20" fill="none" xmlns="http://www.w3.org/2000/svg">
<g id="Frame">
<path id="Vector" d="M8.05893 3.44614C8.10485 2.96309 8.32921 2.51451 8.68818 2.18804C9.04716 1.86157 9.51495 1.68066 10.0002 1.68066C10.4854 1.68066 10.9532 1.86157 11.3122 2.18804C11.6712 2.51451 11.8955 2.96309 11.9414 3.44614C11.969 3.75819 12.0714 4.05899 12.2399 4.32309C12.4084 4.58719 12.638 4.80682 12.9093 4.96337C13.1807 5.11993 13.4857 5.20881 13.7987 5.22249C14.1116 5.23617 14.4233 5.17425 14.7073 5.04197C15.1482 4.84179 15.6478 4.81282 16.1089 4.96071C16.57 5.1086 16.9596 5.42277 17.2019 5.84206C17.4441 6.26136 17.5217 6.75579 17.4195 7.22912C17.3173 7.70245 17.0426 8.12082 16.6489 8.40281C16.3926 8.58268 16.1833 8.82165 16.0389 9.0995C15.8944 9.37734 15.819 9.6859 15.819 9.99906C15.819 10.3122 15.8944 10.6208 16.0389 10.8986C16.1833 11.1765 16.3926 11.4154 16.6489 11.5953C17.0426 11.8773 17.3173 12.2957 17.4195 12.769C17.5217 13.2423 17.4441 13.7368 17.2019 14.1561C16.9596 14.5754 16.57 14.8895 16.1089 15.0374C15.6478 15.1853 15.1482 15.1563 14.7073 14.9561C14.4233 14.8239 14.1116 14.7619 13.7987 14.7756C13.4857 14.7893 13.1807 14.8782 12.9093 15.0347C12.638 15.1913 12.4084 15.4109 12.2399 15.675C12.0714 15.9391 11.969 16.2399 11.9414 16.552C11.8955 17.035 11.6712 17.4836 11.3122 17.8101C10.9532 18.1365 10.4854 18.3175 10.0002 18.3175C9.51495 18.3175 9.04716 18.1365 8.68818 17.8101C8.32921 17.4836 8.10485 17.035 8.05893 16.552C8.03138 16.2398 7.92901 15.9389 7.76049 15.6747C7.59196 15.4105 7.36224 15.1908 7.09079 15.0342C6.81934 14.8777 6.51416 14.7888 6.20108 14.7752C5.88801 14.7616 5.57627 14.8237 5.29227 14.9561C4.85134 15.1563 4.3517 15.1853 3.8906 15.0374C3.42949 14.8895 3.03991 14.5754 2.79767 14.1561C2.55543 13.7368 2.47786 13.2423 2.58007 12.769C2.68227 12.2957 2.95693 11.8773 3.3506 11.5953C3.60695 11.4154 3.81621 11.1765 3.96067 10.8986C4.10514 10.6208 4.18056 10.3122 4.18056 9.99906C4.18056 9.6859 4.10514 9.37734 3.96067 9.0995C3.81621 8.82165 3.60695 8.58268 3.3506 8.40281C2.95749 8.12068 2.68331 7.70247 2.58135 7.22946C2.47939 6.75645 2.55694 6.26243 2.79892 5.8434C3.0409 5.42438 3.43003 5.11029 3.89067 4.96218C4.35132 4.81406 4.85059 4.8425 5.29143 5.04197C5.5754 5.17425 5.88705 5.23617 6.20002 5.22249C6.51298 5.20881 6.81804 5.11993 7.08938 4.96337C7.36072 4.80682 7.59034 4.58719 7.75882 4.32309C7.9273 4.05899 8.02967 3.75819 8.05727 3.44614" stroke="var(--stroke-0, black)" stroke-width="1.45833" stroke-linecap="round" stroke-linejoin="round"/>
<path id="Vector_2" d="M10 12.5C11.3807 12.5 12.5 11.3807 12.5 10C12.5 8.61929 11.3807 7.5 10 7.5C8.61929 7.5 7.5 8.61929 7.5 10C7.5 11.3807 8.61929 12.5 10 12.5Z" stroke="var(--stroke-0, black)" stroke-width="1.45833" stroke-linecap="round" stroke-linejoin="round"/>
</g>
</svg>
