<svg preserveAspectRatio="none" width="100%" height="100%" overflow="visible" style="display: block;" viewBox="0 0 20 20" fill="none" xmlns="http://www.w3.org/2000/svg">
<g id="Frame">
<path id="Vector" d="M8.55672 17.5C8.70301 17.7533 8.9134 17.9637 9.16676 18.11C9.42012 18.2563 9.70751 18.3333 10.0001 18.3333C10.2926 18.3333 10.58 18.2563 10.8334 18.11C11.0867 17.9637 11.2971 17.7533 11.4434 17.5" stroke="var(--stroke-0, black)" stroke-width="1.45833" stroke-linecap="round" stroke-linejoin="round"/>
<path id="Vector_2" d="M2.71813 12.7718C2.60927 12.8911 2.53743 13.0395 2.51134 13.1989C2.48526 13.3583 2.50606 13.5218 2.57122 13.6696C2.63638 13.8174 2.74308 13.9431 2.87834 14.0313C3.01361 14.1196 3.17161 14.1667 3.33313 14.1668H16.6665C16.828 14.1668 16.986 14.12 17.1214 14.0319C17.2567 13.9438 17.3635 13.8182 17.4289 13.6705C17.4942 13.5228 17.5152 13.3593 17.4893 13.1999C17.4635 13.0405 17.3918 12.8921 17.2831 12.7726C16.1748 11.6301 14.9998 10.4159 14.9998 6.66677C14.9998 5.34069 14.473 4.06892 13.5353 3.13123C12.5977 2.19355 11.3259 1.66677 9.9998 1.66677C8.67372 1.66677 7.40195 2.19355 6.46426 3.13123C5.52658 4.06892 4.9998 5.34069 4.9998 6.66677C4.9998 10.4159 3.82396 11.6301 2.71813 12.7718Z" stroke="var(--stroke-0, black)" stroke-width="1.45833" stroke-linecap="round" stroke-linejoin="round"/>
</g>
</svg>
