<svg preserveAspectRatio="none" width="100%" height="100%" overflow="visible" style="display: block;" viewBox="0 0 20 20" fill="none" xmlns="http://www.w3.org/2000/svg">
<g id="Frame">
<path id="Vector" d="M10 14.166V18.3327" stroke="var(--stroke-0, #005D8F)" stroke-width="1.5" stroke-linecap="round" stroke-linejoin="round"/>
<path id="Vector_2" d="M7.49996 8.96602C7.49979 9.27609 7.41314 9.57996 7.24973 9.84348C7.08632 10.107 6.85264 10.3197 6.57496 10.4577L5.09163 11.2077C4.81395 11.3457 4.58027 11.5584 4.41686 11.8219C4.25345 12.0854 4.16679 12.3893 4.16663 12.6993V13.3327C4.16663 13.5537 4.25442 13.7657 4.4107 13.9219C4.56698 14.0782 4.77895 14.166 4.99996 14.166H15C15.221 14.166 15.4329 14.0782 15.5892 13.9219C15.7455 13.7657 15.8333 13.5537 15.8333 13.3327V12.6993C15.8331 12.3893 15.7465 12.0854 15.5831 11.8219C15.4196 11.5584 15.186 11.3457 14.9083 11.2077L13.425 10.4577C13.1473 10.3197 12.9136 10.107 12.7502 9.84348C12.5868 9.57996 12.5001 9.27609 12.5 8.96602V5.83268C12.5 5.61167 12.5878 5.39971 12.744 5.24343C12.9003 5.08715 13.1123 4.99935 13.3333 4.99935C13.7753 4.99935 14.1992 4.82375 14.5118 4.51119C14.8244 4.19863 15 3.77471 15 3.33268C15 2.89065 14.8244 2.46673 14.5118 2.15417C14.1992 1.84161 13.7753 1.66602 13.3333 1.66602H6.66663C6.2246 1.66602 5.80068 1.84161 5.48811 2.15417C5.17555 2.46673 4.99996 2.89065 4.99996 3.33268C4.99996 3.77471 5.17555 4.19863 5.48811 4.51119C5.80068 4.82375 6.2246 4.99935 6.66663 4.99935C6.88764 4.99935 7.0996 5.08715 7.25588 5.24343C7.41216 5.39971 7.49996 5.61167 7.49996 5.83268V8.96602Z" stroke="var(--stroke-0, #005D8F)" stroke-width="1.5" stroke-linecap="round" stroke-linejoin="round"/>
</g>
</svg>
