<svg preserveAspectRatio="none" width="100%" height="100%" overflow="visible" style="display: block;" viewBox="0 0 24 24" fill="none" xmlns="http://www.w3.org/2000/svg">
<g id="solar:hourglass-bold">
<path id="Vector" d="M5.198 3.3C5.8 2 7.867 2 12 2C16.133 2 18.2 2 18.802 3.3C18.854 3.41067 18.8973 3.526 18.932 3.646C19.342 5.033 17.88 6.641 14.958 9.856L13 12L14.958 14.143C17.88 17.359 19.341 18.967 18.932 20.353C18.8974 20.4721 18.8539 20.5884 18.802 20.701C18.2 22 16.133 22 12 22C7.867 22 5.8 22 5.198 20.7C5.14619 20.588 5.10274 20.4724 5.068 20.354C4.658 18.967 6.12 17.359 9.042 14.144L11 12L9.042 9.857C6.12 6.64 4.66 5.033 5.068 3.647C5.10267 3.527 5.146 3.412 5.198 3.3Z" fill="var(--fill-0, #005D8F)"/>
</g>
</svg>
