<svg preserveAspectRatio="none" width="100%" height="100%" overflow="visible" style="display: block;" viewBox="0 0 24 24" fill="none" xmlns="http://www.w3.org/2000/svg">
<g id="ion:close">
<path id="Vector" d="M13.5914 12.0005L18.0445 7.54736C18.2559 7.33639 18.3748 7.0501 18.375 6.75148C18.3753 6.45286 18.2569 6.16636 18.046 5.95502C17.835 5.74367 17.5487 5.62479 17.2501 5.62453C16.9515 5.62427 16.665 5.74264 16.4536 5.95361L12.0005 10.4067L7.54736 5.95361C7.33602 5.74227 7.04937 5.62354 6.75049 5.62354C6.4516 5.62354 6.16496 5.74227 5.95361 5.95361C5.74227 6.16496 5.62354 6.4516 5.62354 6.75049C5.62354 7.04937 5.74227 7.33602 5.95361 7.54736L10.4067 12.0005L5.95361 16.4536C5.74227 16.665 5.62354 16.9516 5.62354 17.2505C5.62354 17.5494 5.74227 17.836 5.95361 18.0474C6.16496 18.2587 6.4516 18.3774 6.75049 18.3774C7.04937 18.3774 7.33602 18.2587 7.54736 18.0474L12.0005 13.5942L16.4536 18.0474C16.665 18.2587 16.9516 18.3774 17.2505 18.3774C17.5494 18.3774 17.836 18.2587 18.0474 18.0474C18.2587 17.836 18.3774 17.5494 18.3774 17.2505C18.3774 16.9516 18.2587 16.665 18.0474 16.4536L13.5914 12.0005Z" fill="var(--fill-0, #005D8F)"/>
</g>
</svg>
