<svg preserveAspectRatio="none" width="100%" height="100%" overflow="visible" style="display: block;" viewBox="0 0 40 40" fill="none" xmlns="http://www.w3.org/2000/svg">
<path id="Ellipse 15" d="M20 40C23.9556 40 27.8224 38.827 31.1114 36.6294C34.4004 34.4318 36.9638 31.3082 38.4776 27.6537C39.9913 23.9992 40.3874 19.9778 39.6157 16.0982C38.844 12.2186 36.9392 8.65493 34.1421 5.85787C31.3451 3.06082 27.7814 1.15601 23.9018 0.384304C20.0222 -0.387401 16.0009 0.00866522 12.3463 1.52242C8.69181 3.03617 5.56824 5.59962 3.37061 8.8886C1.17298 12.1776 5.97283e-07 16.0444 0 20L8 20C8 17.6266 8.70379 15.3066 10.0224 13.3332C11.3409 11.3598 13.2151 9.82171 15.4078 8.91345C17.6005 8.0052 20.0133 7.76756 22.3411 8.23059C24.6689 8.69361 26.8071 9.8365 28.4853 11.5147C30.1635 13.193 31.3064 15.3312 31.7694 17.6589C32.2324 19.9867 31.9948 22.3995 31.0866 24.5922C30.1783 26.7849 28.6402 28.6591 26.6668 29.9776C24.6935 31.2962 22.3734 32 20 32L20 40Z" fill="var(--fill-0, white)"/>
</svg>
