<svg preserveAspectRatio="none" width="100%" height="100%" overflow="visible" style="display: block;" viewBox="0 0 32 32" fill="none" xmlns="http://www.w3.org/2000/svg">
<g id="maki:home">
<path id="Vector" d="M4.26671 29.3285C4.26671 29.6229 4.50565 29.8619 4.80005 29.8619H12.7979V23.4619H19.1979V29.8619H27.1958C27.3372 29.8619 27.4729 29.8057 27.5729 29.7057C27.6729 29.6057 27.7291 29.47 27.7291 29.3285V17.0619H4.26671V29.3285ZM29.7174 14.0325L27.7291 12.2832V4.26615C27.7291 3.70035 27.5044 3.15773 27.1043 2.75765C26.7042 2.35757 26.1616 2.13281 25.5958 2.13281C25.03 2.13281 24.4874 2.35757 24.0873 2.75765C23.6872 3.15773 23.4624 3.70035 23.4624 4.26615V8.53281L16.3862 2.32481C16.2894 2.22198 16.1557 2.16175 16.0145 2.15735C15.8733 2.15295 15.7362 2.20474 15.6331 2.30135L15.6096 2.32481L2.27631 13.9792C2.20614 14.0549 2.15942 14.1492 2.14181 14.2509C2.1242 14.3526 2.13646 14.4572 2.17711 14.552C2.21775 14.6469 2.28504 14.7279 2.37081 14.7852C2.45657 14.8426 2.55714 14.8739 2.66031 14.8752L6.40005 14.9328H29.327C29.4311 14.9331 29.5331 14.9028 29.6202 14.8459C29.7074 14.7889 29.7759 14.7076 29.8174 14.6121C29.859 14.5166 29.8716 14.411 29.8538 14.3084C29.836 14.2058 29.7886 14.1085 29.7174 14.0325Z" fill="var(--fill-0, white)"/>
</g>
</svg>
