<svg preserveAspectRatio="none" width="100%" height="100%" overflow="visible" style="display: block;" viewBox="0 0 200 100" fill="none" xmlns="http://www.w3.org/2000/svg">
<path id="Ellipse 5" d="M200 7.62939e-06C200 13.1322 197.413 26.1358 192.388 38.2684C187.362 50.4009 179.997 61.4248 170.711 70.7107C161.425 79.9965 150.401 87.3625 138.268 92.388C126.136 97.4134 113.132 100 100 100C86.8678 100 73.8642 97.4134 61.7317 92.388C49.5991 87.3625 38.5752 79.9965 29.2893 70.7107C20.0035 61.4248 12.6375 50.4009 7.61204 38.2683C2.58657 26.1358 -1.14805e-06 13.1322 0 -1.11288e-06L40 2.38403e-06C40 7.87932 41.5519 15.6815 44.5672 22.961C47.5825 30.2405 52.0021 36.8549 57.5736 42.4264C63.1451 47.9979 69.7595 52.4175 77.039 55.4328C84.3185 58.4481 92.1207 60 100 60C107.879 60 115.681 58.4481 122.961 55.4328C130.241 52.4175 136.855 47.9979 142.426 42.4264C147.998 36.8549 152.417 30.2406 155.433 22.961C158.448 15.6815 160 7.87932 160 7.62939e-06H200Z" fill="var(--fill-0, #005D8F)"/>
</svg>
