<svg preserveAspectRatio="none" width="100%" height="100%" overflow="visible" style="display: block;" viewBox="0 0 24 24" fill="none" xmlns="http://www.w3.org/2000/svg">
<g id="fluent:arrow-redo-28-filled">
<path id="Vector" d="M6.00926 4.6596C6.93456 3.82634 8.14054 3.37348 9.3856 3.39176C10.6307 3.41004 11.8228 3.89811 12.7233 4.75817L17.6158 9.42875H12.0007C11.7734 9.42875 11.5553 9.51905 11.3946 9.6798C11.2339 9.84054 11.1436 10.0586 11.1436 10.2859C11.1436 10.5132 11.2339 10.7312 11.3946 10.892C11.5553 11.0527 11.7734 11.143 12.0007 11.143H19.715C19.9423 11.143 20.1603 11.0527 20.3211 10.892C20.4818 10.7312 20.5721 10.5132 20.5721 10.2859V2.5716C20.5721 2.34427 20.4818 2.12626 20.3211 1.96551C20.1603 1.80477 19.9423 1.71446 19.715 1.71446C19.4876 1.71446 19.2696 1.80477 19.1089 1.96551C18.9481 2.12626 18.8578 2.34427 18.8578 2.5716V8.24417L13.907 3.51789C12.6938 2.35949 11.0878 1.70222 9.41059 1.67775C7.73338 1.65327 6.10885 2.26339 4.86241 3.38589C2.01326 5.9496 1.91469 10.3853 4.64812 13.0733L13.7613 22.039C13.924 22.1944 14.1414 22.2795 14.3664 22.276C14.5914 22.2725 14.806 22.1807 14.9638 22.0203C15.1217 21.86 15.2102 21.644 15.2102 21.419C15.2102 21.1939 15.1217 20.9779 14.9638 20.8176L5.84984 11.8519C5.36929 11.3795 4.99054 10.8137 4.73691 10.1894C4.48328 9.56505 4.36014 8.89542 4.37508 8.22171C4.39001 7.54801 4.5427 6.88449 4.82375 6.27203C5.1048 5.65956 5.50825 5.11026 6.00926 4.6596Z" fill="var(--fill-0, black)"/>
</g>
</svg>
