<svg preserveAspectRatio="none" width="100%" height="100%" overflow="visible" style="display: block;" viewBox="0 0 14 14" fill="none" xmlns="http://www.w3.org/2000/svg">
<g id="streamline:return-2-remix" clip-path="url(#clip0_0_16)">
<path id="Vector" fill-rule="evenodd" clip-rule="evenodd" d="M5.875 1.5C5.875 1.155 6.155 0.875 6.5 0.875H9.75C10.8772 0.875 11.9582 1.32277 12.7552 2.1198C13.5522 2.91683 14 3.99783 14 5.125C14 6.25217 13.5522 7.33317 12.7552 8.1302C11.9582 8.92723 10.8772 9.375 9.75 9.375H4.75V12.5C4.75018 12.599 4.72095 12.6959 4.66602 12.7783C4.61109 12.8606 4.53294 12.9249 4.44146 12.9628C4.34999 13.0007 4.24932 13.0106 4.15221 12.9912C4.0551 12.9719 3.96593 12.9241 3.896 12.854L0.146 9.104C0.0994368 9.05755 0.0624939 9.00238 0.0372875 8.94163C0.012081 8.88089 -0.000893784 8.81577 -0.000893784 8.75C-0.000893784 8.68423 0.012081 8.61911 0.0372875 8.55837C0.0624939 8.49762 0.0994368 8.44245 0.146 8.396L3.896 4.646C3.96593 4.57589 4.0551 4.52813 4.15221 4.50876C4.24932 4.4894 4.34999 4.4993 4.44146 4.53722C4.53294 4.57513 4.61109 4.63936 4.66602 4.72175C4.72095 4.80414 4.75018 4.90098 4.75 5V8.125H9.75C10.144 8.125 10.5341 8.0474 10.8981 7.89664C11.262 7.74587 11.5927 7.5249 11.8713 7.24632C12.1499 6.96774 12.3709 6.63703 12.5216 6.27305C12.6724 5.90907 12.75 5.51897 12.75 5.125C12.75 4.73103 12.6724 4.34093 12.5216 3.97695C12.3709 3.61297 12.1499 3.28226 11.8713 3.00368C11.5927 2.7251 11.262 2.50413 10.8981 2.35336C10.5341 2.2026 10.144 2.125 9.75 2.125H6.5C6.33424 2.125 6.17527 2.05915 6.05806 1.94194C5.94085 1.82473 5.875 1.66576 5.875 1.5Z" fill="var(--fill-0, black)"/>
</g>
<defs>
<clipPath id="clip0_0_16">
<rect width="14" height="14" fill="white"/>
</clipPath>
</defs>
</svg>
