<svg preserveAspectRatio="none" width="100%" height="100%" overflow="visible" style="display: block;" viewBox="0 0 57.0907 51.8609" fill="none" xmlns="http://www.w3.org/2000/svg">
<path id="Ellipse 5" d="M50.1814 3.60851e-07C52.7896 3.29496 54.7232 7.07137 55.8719 11.1136C57.0207 15.1559 57.3619 19.3848 56.8763 23.5589C56.3907 27.7331 55.0877 31.7707 53.0416 35.4413C50.9956 39.1118 48.2466 42.3435 44.9516 44.9516C41.6567 47.5598 37.8803 49.4935 33.838 50.6422C29.7958 51.7909 25.5668 52.1322 21.3927 51.6465C17.2186 51.1609 13.1809 49.8579 9.51037 47.8118C5.8398 45.7658 2.60818 43.0168 1.84441e-07 39.7219L10.0363 31.7775C11.6012 33.7545 13.5402 35.4039 15.7425 36.6315C17.9448 37.8591 20.3674 38.6409 22.8719 38.9323C25.3764 39.2237 27.9137 39.0189 30.3391 38.3297C32.7644 37.6405 35.0303 36.4803 37.0073 34.9154C38.9842 33.3505 40.6336 31.4115 41.8612 29.2091C43.0889 27.0068 43.8707 24.5842 44.1621 22.0797C44.4534 19.5753 44.2487 17.0379 43.5594 14.6125C42.8702 12.1872 41.71 9.92135 40.1451 7.94438L50.1814 3.60851e-07Z" fill="var(--fill-0, #005D8F)"/>
</svg>
