<svg preserveAspectRatio="none" width="100%" height="100%" overflow="visible" style="display: block;" viewBox="0 0 64.0002 56" fill="none" xmlns="http://www.w3.org/2000/svg">
<g id="Frame 303">
<path id="Ellipse 6" d="M50.6001 55.026C51.433 56.0571 52.9513 56.224 53.9171 55.3162C58.3474 51.1518 61.5125 45.798 63.0165 39.8726C64.7179 33.1694 64.2019 26.0955 61.5459 19.7102C58.8899 13.3249 54.2368 7.97186 48.2834 4.45278C43.0207 1.34196 36.9923 -0.187745 30.9155 0.0183922C29.5908 0.0633296 28.6389 1.25775 28.7829 2.57538L28.9568 4.1659C29.1009 5.48353 30.287 6.42303 31.6123 6.40295C36.3106 6.33174 40.9551 7.55548 45.0267 9.96223C49.7894 12.7775 53.5119 17.0599 55.6367 22.1682C57.7615 27.2764 58.1743 32.9356 56.8132 38.2981C55.6496 42.8824 53.2431 47.0391 49.8803 50.321C48.9317 51.2467 48.7618 52.7503 49.5947 53.7814L50.6001 55.026Z" fill="var(--fill-0, #DFDFE6)"/>
<path id="Ellipse 5" d="M13.3336 54.9723C12.4977 56.001 10.9791 56.1636 10.0159 55.253C5.79136 51.2591 2.72297 46.1777 1.1623 40.5461C-0.612619 34.1415 -0.349389 27.3432 1.91544 21.095C4.18027 14.8469 8.33432 9.45886 13.8008 5.67913C18.6075 2.35563 24.2192 0.420574 30.0217 0.0612254C31.3446 -0.020705 32.4064 1.07722 32.389 2.40259L32.3679 4.00245C32.3505 5.32782 31.2598 6.37642 29.9386 6.48315C25.4671 6.84435 21.1536 8.37603 17.4407 10.9433C13.0675 13.9671 9.74422 18.2775 7.93235 23.276C6.12049 28.2746 5.9099 33.7132 7.32984 38.8369C8.5354 43.1871 10.8655 47.1269 14.067 50.2694C15.0129 51.1979 15.1785 52.7019 14.3426 53.7306L13.3336 54.9723Z" fill="var(--fill-0, #005D8F)"/>
<g id="Frame">
<path id="Vector" d="M37.8335 22.6674C37.8335 23.956 36.7889 25.0007 35.5002 25.0007C34.2115 25.0007 33.1668 23.956 33.1668 22.6674C33.1668 21.3787 34.2115 20.334 35.5002 20.334C36.7889 20.334 37.8335 21.3787 37.8335 22.6674Z" fill="url(#paint0_linear_0_72)"/>
<path id="Vector_2" fill-rule="evenodd" clip-rule="evenodd" d="M26.4682 24.291C27.3282 23.7535 28.3969 23.6712 29.3291 24.0707C31.3426 24.9336 31.8478 27.5573 30.2989 29.1063L29.9147 29.4904C29.7604 29.6447 29.7168 29.6892 29.6879 29.7225C29.18 30.3089 29.22 31.1901 29.7788 31.728C29.8106 31.7587 29.8581 31.799 30.0257 31.9386L30.0382 31.949C30.1325 32.0276 30.1976 32.0819 30.2592 32.1373C31.139 32.9285 31.6607 34.0425 31.7054 35.225C31.7085 35.3077 31.7085 35.3925 31.7085 35.5153V36.6675C31.7085 37.1507 31.3168 37.5425 30.8335 37.5425C30.3503 37.5425 29.9585 37.1507 29.9585 36.6675V35.5315C29.9585 35.3865 29.9584 35.3366 29.9567 35.291C29.9298 34.5816 29.6168 33.9132 29.089 33.4384C29.055 33.4079 29.0168 33.3758 28.9055 33.2831C28.8971 33.2761 28.8888 33.2692 28.8806 33.2624C28.7493 33.153 28.6485 33.069 28.5651 32.9887C27.3358 31.8054 27.2479 29.8667 28.365 28.5768C28.4408 28.4893 28.5336 28.3966 28.6545 28.2758C28.662 28.2683 28.6696 28.2607 28.6773 28.2529L29.0614 27.8688C29.7349 27.1953 29.5152 26.0544 28.6397 25.6792C28.2344 25.5055 27.7697 25.5413 27.3957 25.775L23.714 28.0761C23.3042 28.3322 22.7643 28.2077 22.5082 27.7979C22.2521 27.3881 22.3767 26.8482 22.7865 26.5921L26.4682 24.291ZM31.7535 29.3908C31.9063 28.9323 32.4018 28.6845 32.8603 28.8374C33.8166 29.1561 34.8505 29.1561 35.8068 28.8374C36.2653 28.6845 36.7608 28.9323 36.9136 29.3908C37.0665 29.8492 36.8187 30.3447 36.3603 30.4975C35.0447 30.9361 33.6223 30.9361 32.3068 30.4975C31.8484 30.3447 31.6006 29.8492 31.7535 29.3908ZM26.7856 33.7154C27.1273 34.0572 27.1273 34.6111 26.7856 34.9528C25.501 36.2374 23.7587 36.9591 21.942 36.9591H21.5002C21.017 36.9591 20.6252 36.5674 20.6252 36.0841C20.6252 35.6009 21.017 35.2091 21.5002 35.2091H21.942C23.2946 35.2091 24.5917 34.6719 25.5482 33.7154C25.8899 33.3737 26.4439 33.3737 26.7856 33.7154Z" fill="url(#paint1_linear_0_72)"/>
<path id="Vector_3" d="M43.8385 27.0242C44.3124 26.9295 44.6197 26.4685 44.5249 25.9946C44.4301 25.5208 43.9692 25.2134 43.4953 25.3082C41.3835 25.7306 39.7631 27.4315 39.4437 29.5613L38.1456 38.2153L21.383 41.1488C20.7763 41.255 20.3336 41.7818 20.3336 42.3978C20.3336 43.0981 20.9013 43.6658 21.6016 43.6658H40.7372C42.3552 43.6658 43.6669 42.3541 43.6669 40.736C43.6669 38.916 42.025 37.5364 40.2321 37.8502L39.9629 37.8973L41.1743 29.8209C41.3845 28.4204 42.4499 27.302 43.8385 27.0242Z" fill="url(#paint2_linear_0_72)"/>
</g>
</g>
<defs>
<linearGradient id="paint0_linear_0_72" x1="35.5002" y1="20.334" x2="35.5002" y2="25.0007" gradientUnits="userSpaceOnUse">
<stop stop-color="#4868EA"/>
<stop offset="1" stop-color="#26ABE9"/>
</linearGradient>
<linearGradient id="paint1_linear_0_72" x1="28.792" y1="23.8203" x2="28.792" y2="37.5425" gradientUnits="userSpaceOnUse">
<stop stop-color="#4868EA"/>
<stop offset="1" stop-color="#26ABE9"/>
</linearGradient>
<linearGradient id="paint2_linear_0_72" x1="32.4378" y1="25.2911" x2="32.4378" y2="43.6658" gradientUnits="userSpaceOnUse">
<stop stop-color="#4868EA"/>
<stop offset="1" stop-color="#26ABE9"/>
</linearGradient>
</defs>
</svg>
