<svg preserveAspectRatio="none" width="100%" height="100%" overflow="visible" style="display: block;" viewBox="0 0 72 72" fill="none" xmlns="http://www.w3.org/2000/svg">
<g id="Frame">
<path id="Vector" d="M51 12C51 15.3137 48.3138 18 45 18C41.6862 18 39 15.3137 39 12C39 8.68629 41.6862 6 45 6C48.3138 6 51 8.68629 51 12Z" fill="url(#paint0_linear_0_183)"/>
<path id="Vector_2" fill-rule="evenodd" clip-rule="evenodd" d="M21.7749 16.1751C23.9864 14.793 26.7344 14.5814 29.1314 15.6086C34.3089 17.8276 35.6082 24.5741 31.6251 28.5572L30.6372 29.5449C30.2406 29.9417 30.1284 30.0561 30.054 30.1419C28.7481 31.6497 28.8509 33.9156 30.2877 35.2989C30.3696 35.3778 30.4917 35.4813 30.9228 35.8404L30.9549 35.8671C31.1973 36.0693 31.3647 36.2088 31.5231 36.3513C33.7854 38.3859 35.127 41.2503 35.2419 44.2911C35.25 44.5038 35.25 44.7219 35.25 45.0375V48.0003C35.25 49.2429 34.2426 50.2503 33 50.2503C31.7574 50.2503 30.75 49.2429 30.75 48.0003V45.0792C30.75 44.7063 30.7497 44.5782 30.7452 44.4609C30.6762 42.6366 29.8713 40.9179 28.5139 39.6969C28.4266 39.6186 28.3283 39.5361 28.0421 39.2976C28.0205 39.2796 27.9992 39.2619 27.9783 39.2445C27.6405 38.9631 27.3814 38.7471 27.167 38.5407C24.0058 35.4978 23.7797 30.5127 26.6524 27.1958C26.8472 26.9708 27.0857 26.7324 27.3966 26.4216C27.4159 26.4023 27.4355 26.3828 27.4553 26.363L28.4431 25.3752C30.1749 23.6432 29.6101 20.7097 27.3587 19.7448C26.3165 19.2981 25.1215 19.3901 24.1599 19.9911L14.6925 25.9083C13.6388 26.5669 12.2506 26.2465 11.592 25.1928C10.9334 24.139 11.2538 22.7509 12.3075 22.0923L21.7749 16.1751ZM35.3655 29.2888C35.7585 28.1099 37.0326 27.4728 38.2116 27.8657C40.6707 28.6855 43.3293 28.6855 45.7884 27.8657C46.9674 27.4728 48.2415 28.1099 48.6345 29.2888C49.0275 30.4677 48.3903 31.7418 47.2116 32.1348C43.8288 33.2625 40.1712 33.2625 36.7884 32.1348C35.6097 31.7418 34.9725 30.4677 35.3655 29.2888ZM22.591 40.4094C23.4697 41.2881 23.4697 42.7125 22.591 43.5912C19.2877 46.8945 14.8076 48.7503 10.136 48.7503H9C7.75737 48.7503 6.75 47.7429 6.75 46.5003C6.75 45.2577 7.75737 44.2503 9 44.2503H10.136C13.6141 44.2503 16.9497 42.8688 19.409 40.4094C20.2877 39.5307 21.7123 39.5307 22.591 40.4094Z" fill="url(#paint1_linear_0_183)"/>
<path id="Vector_3" d="M66.4413 23.2068C67.6599 22.963 68.4501 21.7777 68.2062 20.5592C67.9626 19.3407 66.7773 18.5504 65.5587 18.7941C60.1284 19.8802 55.9617 24.254 55.1403 29.7306L51.8022 51.9838L8.69847 59.527C7.13829 59.8 6 61.1548 6 62.7388C6 64.5394 7.45977 65.9992 9.26052 65.9992H58.4664C62.6271 65.9992 66 62.6263 66 58.4656C66 53.7856 61.7778 50.2381 57.1677 51.0448L56.4753 51.166L59.5905 30.3982C60.1308 26.797 62.8704 23.9209 66.4413 23.2068Z" fill="url(#paint2_linear_0_183)"/>
</g>
<defs>
<linearGradient id="paint0_linear_0_183" x1="45" y1="6" x2="45" y2="18" gradientUnits="userSpaceOnUse">
<stop stop-color="#4868EA"/>
<stop offset="1" stop-color="#26ABE9"/>
</linearGradient>
<linearGradient id="paint1_linear_0_183" x1="27.7503" y1="14.9648" x2="27.7503" y2="50.2503" gradientUnits="userSpaceOnUse">
<stop stop-color="#4868EA"/>
<stop offset="1" stop-color="#26ABE9"/>
</linearGradient>
<linearGradient id="paint2_linear_0_183" x1="37.1252" y1="18.75" x2="37.1252" y2="65.9992" gradientUnits="userSpaceOnUse">
<stop stop-color="#4868EA"/>
<stop offset="1" stop-color="#26ABE9"/>
</linearGradient>
</defs>
</svg>
