<svg preserveAspectRatio="none" width="100%" height="100%" overflow="visible" style="display: block;" viewBox="0 0 20 20" fill="none" xmlns="http://www.w3.org/2000/svg">
<g id="Frame">
<path id="Vector" d="M17.4874 10.4057C17.4093 11.8524 16.9138 13.2456 16.0608 14.4168C15.2078 15.588 14.0339 16.4871 12.6808 17.0053C11.3277 17.5235 9.85355 17.6387 8.43643 17.3369C7.0193 17.0352 5.71991 16.3294 4.69533 15.305C3.67076 14.2805 2.96486 12.9812 2.66296 11.5641C2.36107 10.147 2.47611 8.67278 2.99418 7.31967C3.51225 5.96656 4.41116 4.79248 5.58226 3.93935C6.75336 3.08623 8.1465 2.59058 9.59328 2.51232C9.93078 2.49399 10.1074 2.89566 9.92828 3.18149C9.32902 4.14029 9.07243 5.27388 9.20036 6.39728C9.3283 7.52068 9.83322 8.56756 10.6327 9.36706C11.4322 10.1666 12.4791 10.6715 13.6025 10.7994C14.7259 10.9273 15.8595 10.6707 16.8183 10.0715C17.1049 9.89232 17.5058 10.0682 17.4874 10.4057Z" stroke="var(--stroke-0, #141414)" stroke-width="1.33333" stroke-linecap="round" stroke-linejoin="round"/>
</g>
</svg>
