<svg preserveAspectRatio="none" width="100%" height="100%" overflow="visible" style="display: block;" viewBox="0 0 20 20" fill="none" xmlns="http://www.w3.org/2000/svg">
<g id="Frame">
<path id="Vector" d="M17.4875 10.4057C17.4094 11.8524 16.9139 13.2456 16.0609 14.4168C15.2079 15.588 14.0339 16.4871 12.6809 17.0053C11.3278 17.5235 9.85361 17.6387 8.43649 17.3369C7.01936 17.0352 5.71997 16.3294 4.69539 15.305C3.67082 14.2805 2.96492 12.9812 2.66302 11.5641C2.36113 10.147 2.47617 8.67278 2.99424 7.31967C3.51231 5.96656 4.41122 4.79248 5.58232 3.93935C6.75342 3.08623 8.14656 2.59058 9.59334 2.51232C9.93084 2.49399 10.1075 2.89566 9.92834 3.18149C9.32909 4.14029 9.07249 5.27388 9.20042 6.39728C9.32836 7.52068 9.83328 8.56756 10.6328 9.36706C11.4323 10.1666 12.4792 10.6715 13.6026 10.7994C14.726 10.9273 15.8595 10.6707 16.8183 10.0715C17.105 9.89232 17.5058 10.0682 17.4875 10.4057Z" stroke="var(--stroke-0, #141414)" stroke-width="1.33333" stroke-linecap="round" stroke-linejoin="round"/>
</g>
</svg>
