<svg preserveAspectRatio="none" width="100%" height="100%" overflow="visible" style="display: block;" viewBox="0 0 12 12" fill="none" xmlns="http://www.w3.org/2000/svg">
<g id="Frame">
<path id="Vector" d="M6.99995 8.00007C7.13256 8.00007 7.25974 7.94739 7.35351 7.85362C7.44728 7.75986 7.49995 7.63268 7.49995 7.50007V6.50007C7.49995 6.36746 7.55263 6.24029 7.6464 6.14652C7.74017 6.05275 7.86735 6.00007 7.99995 6.00007H9.64645C9.71638 6.00009 9.78474 5.97936 9.84289 5.94052C9.90104 5.90168 9.94636 5.84646 9.97312 5.78186C9.99988 5.71726 10.0069 5.64617 9.99323 5.57759C9.97959 5.509 9.94591 5.44601 9.89645 5.39657L6.42695 1.92707C6.3709 1.87095 6.30434 1.82643 6.23107 1.79606C6.15781 1.76568 6.07927 1.75005 5.99995 1.75005C5.92064 1.75005 5.8421 1.76568 5.76883 1.79606C5.69557 1.82643 5.629 1.87095 5.57295 1.92707L2.10295 5.39707C2.05367 5.44653 2.02014 5.50949 2.0066 5.57798C1.99305 5.64648 2.00009 5.71745 2.02683 5.78196C2.05357 5.84646 2.09882 5.90159 2.15686 5.94041C2.2149 5.97923 2.28313 5.99999 2.35295 6.00007H3.99995C4.13256 6.00007 4.25974 6.05275 4.35351 6.14652C4.44728 6.24029 4.49995 6.36746 4.49995 6.50007V7.50007C4.49995 7.63268 4.55263 7.75986 4.6464 7.85362C4.74017 7.94739 4.86735 8.00007 4.99995 8.00007H6.99995Z" stroke="var(--stroke-0, #007C05)" stroke-linecap="round" stroke-linejoin="round"/>
<path id="Vector_2" d="M4.5 10H7.5" stroke="var(--stroke-0, #007C05)" stroke-linecap="round" stroke-linejoin="round"/>
</g>
</svg>
