<svg preserveAspectRatio="none" width="100%" height="100%" overflow="visible" style="display: block;" viewBox="0 0 20 20" fill="none" xmlns="http://www.w3.org/2000/svg">
<g id="Frame">
<path id="Vector" d="M18.3333 14.1673C18.3333 11.9572 17.4553 9.83756 15.8925 8.27476C14.3297 6.71196 12.2101 5.83398 9.99996 5.83398C7.78982 5.83398 5.67021 6.71196 4.1074 8.27476C2.5446 9.83756 1.66663 11.9572 1.66663 14.1673" stroke="var(--stroke-0, #005D8F)" stroke-width="1.5" stroke-linecap="round" stroke-linejoin="round"/>
<path id="Vector_2" d="M5 14.166C5 12.8399 5.52678 11.5682 6.46447 10.6305C7.40215 9.6928 8.67392 9.16602 10 9.16602C11.3261 9.16602 12.5979 9.6928 13.5355 10.6305C14.4732 11.5682 15 12.8399 15 14.166" stroke="var(--stroke-0, #005D8F)" stroke-width="1.5" stroke-linecap="round" stroke-linejoin="round"/>
<path id="Vector_3" d="M8.33333 14.1667C8.33333 13.7246 8.50893 13.3007 8.82149 12.9882C9.13405 12.6756 9.55797 12.5 10 12.5C10.442 12.5 10.8659 12.6756 11.1785 12.9882C11.4911 13.3007 11.6667 13.7246 11.6667 14.1667" stroke="var(--stroke-0, #005D8F)" stroke-width="1.5" stroke-linecap="round" stroke-linejoin="round"/>
</g>
</svg>
