<svg preserveAspectRatio="none" width="100%" height="100%" overflow="visible" style="display: block;" viewBox="0 0 16 16" fill="none" xmlns="http://www.w3.org/2000/svg">
<g id="Frame">
<path id="Vector" d="M9.33327 10.6664C9.51008 10.6664 9.67965 10.5961 9.80468 10.4711C9.9297 10.3461 9.99994 10.1765 9.99994 9.9997V8.66637C9.99994 8.48956 10.0702 8.31999 10.1952 8.19497C10.3202 8.06994 10.4898 7.9997 10.6666 7.9997H12.8619C12.9552 7.99972 13.0463 7.97209 13.1239 7.9203C13.2014 7.86851 13.2618 7.79489 13.2975 7.70876C13.3332 7.62262 13.3425 7.52783 13.3243 7.43639C13.3061 7.34495 13.2612 7.26096 13.1953 7.19504L8.56927 2.56904C8.49454 2.49421 8.40579 2.43485 8.3081 2.39435C8.21041 2.35385 8.10569 2.33301 7.99994 2.33301C7.89419 2.33301 7.78947 2.35385 7.69178 2.39435C7.59409 2.43485 7.50534 2.49421 7.43061 2.56904L2.80394 7.1957C2.73823 7.26166 2.69352 7.34559 2.67546 7.43692C2.6574 7.52825 2.66679 7.62288 2.70244 7.70888C2.7381 7.79488 2.79842 7.8684 2.87581 7.92016C2.95319 7.97191 3.04417 7.99959 3.13727 7.9997H5.33327C5.51008 7.9997 5.67965 8.06994 5.80468 8.19497C5.9297 8.31999 5.99994 8.48956 5.99994 8.66637V9.9997C5.99994 10.1765 6.07018 10.3461 6.1952 10.4711C6.32023 10.5961 6.4898 10.6664 6.66661 10.6664H9.33327Z" stroke="var(--stroke-0, #007C05)" stroke-linecap="round" stroke-linejoin="round"/>
<path id="Vector_2" d="M6 13.333H10" stroke="var(--stroke-0, #007C05)" stroke-linecap="round" stroke-linejoin="round"/>
</g>
</svg>
