<svg preserveAspectRatio="none" width="100%" height="100%" overflow="visible" style="display: block;" viewBox="0 0 64.0002 64" fill="none" xmlns="http://www.w3.org/2000/svg">
<g id="Frame 303">
<path id="Ellipse 6" d="M46.6301 57.7317C47.2853 58.8839 48.7565 59.2943 49.8564 58.5547C55.0513 55.0615 59.1234 50.1094 61.5427 44.2976C64.2703 37.745 64.742 30.4716 62.8837 23.6216C61.0254 16.7716 56.9424 10.7338 51.2772 6.4581C45.612 2.18241 38.6861 -0.0885017 31.5891 0.00264071C24.4921 0.0937831 17.6268 2.54181 12.0732 6.96157C6.51971 11.3813 2.59316 17.522 0.911355 24.4175C-0.770452 31.3129 -0.112075 38.5719 2.78291 45.0522C5.35061 50.8 9.54854 55.6459 14.8314 59.0045C15.95 59.7156 17.4102 59.2676 18.0355 58.0989L18.7904 56.6882C19.4157 55.5195 18.9675 54.0742 17.8625 53.3423C13.8255 50.6681 10.6148 46.893 8.62633 42.4418C6.31034 37.2575 5.78364 31.4503 7.12909 25.934C8.47453 20.4176 11.6158 15.5051 16.0586 11.9693C20.5014 8.43344 25.9937 6.47503 31.6713 6.40211C37.3489 6.3292 42.8896 8.14593 47.4218 11.5665C51.954 14.987 55.2203 19.8173 56.707 25.2973C58.1936 30.7773 57.8162 36.596 55.6342 41.8381C53.7606 46.3389 50.648 50.1952 46.6809 52.9722C45.5951 53.7323 45.1842 55.1885 45.8393 56.3408L46.6301 57.7317Z" fill="var(--fill-0, #C9C9C9)"/>
<g id="Frame">
<path id="Vector" d="M29.0835 20.334C28.117 20.334 27.3335 21.1175 27.3335 22.084V23.2507C27.3335 24.2172 28.117 25.0007 29.0835 25.0007H34.9168C35.8833 25.0007 36.6668 24.2172 36.6668 23.2507V22.084C36.6668 21.1175 35.8833 20.334 34.9168 20.334H29.0835Z" fill="url(#paint0_linear_0_67)"/>
<path id="Vector_2" fill-rule="evenodd" clip-rule="evenodd" d="M22.5254 23.6913C23.1895 23.0271 24.116 22.7933 25.5836 22.7109V23.2515C25.5836 25.1845 27.1506 26.7515 29.0836 26.7515H34.9169C36.8499 26.7515 38.4169 25.1845 38.4169 23.2515V22.7109C39.8844 22.7933 40.8109 23.0271 41.4751 23.6913C42.5002 24.7164 42.5002 26.3663 42.5002 29.6662V36.6662C42.5002 39.966 42.5002 41.6159 41.4751 42.6411C40.4499 43.6662 38.8 43.6662 35.5002 43.6662H28.5002C25.2004 43.6662 23.5505 43.6662 22.5254 42.6411C21.5002 41.6159 21.5002 39.966 21.5002 36.6662V29.6662C21.5002 26.3663 21.5002 24.7164 22.5254 23.6913ZM32.8752 30.8349C32.8752 30.3516 32.4835 29.9599 32.0002 29.9599C31.517 29.9599 31.1252 30.3516 31.1252 30.8349V33.4599H28.5002C28.017 33.4599 27.6252 33.8516 27.6252 34.3349C27.6252 34.8181 28.017 35.2099 28.5002 35.2099H31.1252V37.8349C31.1252 38.3181 31.517 38.7099 32.0002 38.7099C32.4835 38.7099 32.8752 38.3181 32.8752 37.8349V35.2099H35.5002C35.9835 35.2099 36.3752 34.8181 36.3752 34.3349C36.3752 33.8516 35.9835 33.4599 35.5002 33.4599H32.8752V30.8349Z" fill="url(#paint1_linear_0_67)"/>
</g>
</g>
<defs>
<linearGradient id="paint0_linear_0_67" x1="32.0001" y1="20.334" x2="32.0001" y2="25.0007" gradientUnits="userSpaceOnUse">
<stop stop-color="#4868EA"/>
<stop offset="1" stop-color="#26ABE9"/>
</linearGradient>
<linearGradient id="paint1_linear_0_67" x1="32.0002" y1="22.7109" x2="32.0002" y2="43.6662" gradientUnits="userSpaceOnUse">
<stop stop-color="#4868EA"/>
<stop offset="1" stop-color="#26ABE9"/>
</linearGradient>
</defs>
</svg>
