<svg preserveAspectRatio="none" width="100%" height="100%" overflow="visible" style="display: block;" viewBox="0 0 24 24" fill="none" xmlns="http://www.w3.org/2000/svg">
<g id="Frame">
<path id="Vector" d="M17 4C17 5.10457 16.1046 6 15 6C13.8954 6 13 5.10457 13 4C13 2.89543 13.8954 2 15 2C16.1046 2 17 2.89543 17 4Z" fill="url(#paint0_linear_0_68)"/>
<path id="Vector_2" fill-rule="evenodd" clip-rule="evenodd" d="M7.25831 5.39171C7.99545 4.931 8.91147 4.86046 9.71046 5.20288C11.4363 5.94253 11.8694 8.19136 10.5417 9.51907L10.2124 9.84831C10.0802 9.98058 10.0428 10.0187 10.018 10.0473C9.5827 10.5499 9.61696 11.3052 10.0959 11.7663C10.1232 11.7926 10.1639 11.8271 10.3076 11.9468L10.3183 11.9557C10.3991 12.0231 10.4549 12.0696 10.5077 12.1171C11.2618 12.7953 11.709 13.7501 11.7473 14.7637C11.75 14.8346 11.75 14.9073 11.75 15.0125V16.0001C11.75 16.4143 11.4142 16.7501 11 16.7501C10.5858 16.7501 10.25 16.4143 10.25 16.0001V15.0264C10.25 14.9021 10.2499 14.8594 10.2484 14.8203C10.2254 14.2122 9.9571 13.6393 9.50464 13.2323C9.47553 13.2062 9.44278 13.1787 9.34736 13.0992C9.34017 13.0932 9.33308 13.0873 9.32609 13.0815C9.21351 12.9877 9.12714 12.9157 9.05566 12.8469C8.00192 11.8326 7.92655 10.1709 8.88412 9.06527C8.94908 8.99028 9.02858 8.91081 9.13221 8.80721C9.13864 8.80078 9.14517 8.79426 9.15178 8.78765L9.48102 8.45841C10.0583 7.88108 9.87003 6.90322 9.11958 6.5816C8.77215 6.4327 8.37384 6.46338 8.05331 6.66371L4.8975 8.63609C4.54625 8.85562 4.08353 8.74884 3.864 8.39759C3.64447 8.04634 3.75125 7.58362 4.1025 7.36409L7.25831 5.39171ZM11.7885 9.76292C11.9195 9.36996 12.3442 9.15759 12.7372 9.28858C13.5569 9.56182 14.4431 9.56182 15.2628 9.28858C15.6558 9.15759 16.0805 9.36996 16.2115 9.76292C16.3425 10.1559 16.1301 10.5806 15.7372 10.7116C14.6096 11.0875 13.3904 11.0875 12.2628 10.7116C11.8699 10.5806 11.6575 10.1559 11.7885 9.76292ZM7.53033 13.4698C7.82322 13.7627 7.82322 14.2375 7.53033 14.5304C6.42924 15.6315 4.93585 16.2501 3.37868 16.2501H3C2.58579 16.2501 2.25 15.9143 2.25 15.5001C2.25 15.0859 2.58579 14.7501 3 14.7501H3.37868C4.53803 14.7501 5.64989 14.2896 6.46967 13.4698C6.76256 13.1769 7.23744 13.1769 7.53033 13.4698Z" fill="url(#paint1_linear_0_68)"/>
<path id="Vector_3" d="M22.1471 7.73559C22.5533 7.65435 22.8167 7.25923 22.7354 6.85306C22.6542 6.44689 22.2591 6.18348 21.8529 6.26471C20.0428 6.62673 18.6539 8.08467 18.3801 9.9102L17.2674 17.3279L2.89949 19.8423C2.37943 19.9333 2 20.3849 2 20.9129C2 21.5131 2.48659 21.9997 3.08684 21.9997H19.4888C20.8757 21.9997 22 20.8754 22 19.4885C22 17.9285 20.5926 16.746 19.0559 17.0149L18.8251 17.0553L19.8635 10.1327C20.0436 8.93232 20.9568 7.97363 22.1471 7.73559Z" fill="url(#paint2_linear_0_68)"/>
</g>
<defs>
<linearGradient id="paint0_linear_0_68" x1="15" y1="2" x2="15" y2="6" gradientUnits="userSpaceOnUse">
<stop stop-color="#4868EA"/>
<stop offset="1" stop-color="#26ABE9"/>
</linearGradient>
<linearGradient id="paint1_linear_0_68" x1="9.2501" y1="4.98828" x2="9.2501" y2="16.7501" gradientUnits="userSpaceOnUse">
<stop stop-color="#4868EA"/>
<stop offset="1" stop-color="#26ABE9"/>
</linearGradient>
<linearGradient id="paint2_linear_0_68" x1="12.3751" y1="6.25" x2="12.3751" y2="21.9997" gradientUnits="userSpaceOnUse">
<stop stop-color="#4868EA"/>
<stop offset="1" stop-color="#26ABE9"/>
</linearGradient>
</defs>
</svg>
