<svg preserveAspectRatio="none" width="100%" height="100%" overflow="visible" style="display: block;" viewBox="0 0 20 20" fill="none" xmlns="http://www.w3.org/2000/svg">
<g id="Frame">
<path id="Vector" fill-rule="evenodd" clip-rule="evenodd" d="M3.67814 14.8825C3.97633 14.7087 4.35901 14.8094 4.53289 15.1076C5.22194 16.2893 6.27536 17.1827 7.57442 17.7626C7.88962 17.9032 8.03111 18.2728 7.89042 18.5881C7.74974 18.9033 7.38017 19.0448 7.06497 18.9041C5.55537 18.2303 4.28887 17.1705 3.45308 15.7373C3.27919 15.4391 3.37996 15.0564 3.67814 14.8825Z" fill="url(#paint0_linear_0_55)"/>
<path id="Vector_2" fill-rule="evenodd" clip-rule="evenodd" d="M15.7548 3.26828C14.9099 2.40538 13.7049 2.0871 12.5253 2.42275C12.1933 2.51722 11.8476 2.32466 11.7531 1.99266C11.6587 1.66066 11.8512 1.31493 12.1832 1.22047C13.7983 0.760894 15.4788 1.19966 16.6479 2.39375C16.8894 2.64038 16.8852 3.03609 16.6387 3.27758C16.392 3.51908 15.9963 3.51492 15.7548 3.26828Z" fill="url(#paint1_linear_0_55)"/>
<path id="Vector_3" fill-rule="evenodd" clip-rule="evenodd" d="M9.32508 2.75699C9.14675 2.45109 8.62692 2.26558 8.09882 2.56738C7.57268 2.86807 7.48015 3.3981 7.65543 3.69867L9.76017 7.30793C9.934 7.60612 9.83325 7.9888 9.53508 8.16268C9.23692 8.33658 8.85425 8.2358 8.68033 7.93762L5.87404 3.12527C5.69566 2.81937 5.17582 2.63386 4.64776 2.93565C4.12163 3.23634 4.02909 3.76638 4.20438 4.06694L7.36144 9.48083C7.53533 9.779 7.43456 10.1618 7.13638 10.3356C6.83819 10.5095 6.45551 10.4087 6.28163 10.1105L4.87848 7.70435C4.7001 7.39845 4.18026 7.21294 3.6522 7.51473C3.12607 7.81543 3.03353 8.34542 3.20882 8.646L6.36588 14.0599C7.70667 16.3592 11.0153 17.1053 13.8211 15.5017C16.625 13.8993 17.6217 10.6981 16.284 8.40417L14.1793 4.79489C14.0009 4.48899 13.4811 4.30348 12.953 4.60528C12.4269 4.90597 12.3343 5.436 12.5097 5.73658L13.9127 8.14275C13.9967 8.28676 14.0197 8.45833 13.9766 8.61933C13.9334 8.78042 13.8277 8.9175 13.683 9.00025C12.3976 9.73483 12.0037 11.1552 12.5664 12.1202C12.7403 12.4185 12.6396 12.8012 12.3413 12.975C12.0432 13.1489 11.6605 13.0482 11.4866 12.75C10.726 11.4457 11.0333 9.87508 12.0157 8.76508C12.2904 8.45475 12.3844 8.0033 12.1757 7.64532L9.32508 2.75699Z" fill="url(#paint2_linear_0_55)"/>
</g>
<defs>
<linearGradient id="paint0_linear_0_55" x1="5.65636" y1="14.7973" x2="5.65636" y2="18.9585" gradientUnits="userSpaceOnUse">
<stop stop-color="#4868EA"/>
<stop offset="1" stop-color="#26ABE9"/>
</linearGradient>
<linearGradient id="paint1_linear_0_55" x1="14.2777" y1="1.04167" x2="14.2777" y2="3.45602" gradientUnits="userSpaceOnUse">
<stop stop-color="#4868EA"/>
<stop offset="1" stop-color="#26ABE9"/>
</linearGradient>
<linearGradient id="paint2_linear_0_55" x1="9.9999" y1="2.41378" x2="9.9999" y2="16.3573" gradientUnits="userSpaceOnUse">
<stop stop-color="#4868EA"/>
<stop offset="1" stop-color="#26ABE9"/>
</linearGradient>
</defs>
</svg>
