<svg preserveAspectRatio="none" width="100%" height="100%" overflow="visible" style="display: block;" viewBox="0 0 24 24" fill="none" xmlns="http://www.w3.org/2000/svg">
<g id="Frame">
<path id="Vector" fill-rule="evenodd" clip-rule="evenodd" d="M14.2502 4.47856V7.53622C14.25 7.64744 14.2498 7.80601 14.271 7.94212C14.297 8.10853 14.3826 8.42981 14.7153 8.62513C15.0357 8.81324 15.349 8.74338 15.498 8.69708C15.6278 8.65672 15.7702 8.5889 15.8764 8.53832L17.0002 8.00447L18.124 8.53832C18.2302 8.58889 18.3725 8.65672 18.5024 8.69708C18.6513 8.74338 18.9647 8.81324 19.2851 8.62513C19.6177 8.42981 19.7033 8.10854 19.7293 7.94212C19.7506 7.80602 19.7504 7.64747 19.7502 7.53625V3.03032C19.863 3.02502 19.9737 3.02054 20.082 3.01677C21.1538 2.97943 22 3.85977 22 4.93221V16.1426C22 17.2536 21.094 18.1525 19.9851 18.2218C19.0157 18.2825 17.8767 18.401 17 18.6324C15.9185 18.9177 14.6271 19.5355 13.6276 20.0682C13.3485 20.217 13.0531 20.3247 12.7502 20.3915V5.17289C13.0709 5.09432 13.3824 4.97044 13.6738 4.80177C13.8581 4.69512 14.0514 4.58634 14.2502 4.47856ZM19.7278 12.8171C19.8282 13.2189 19.5839 13.6261 19.1821 13.7266L15.1821 14.7266C14.7802 14.8271 14.373 14.5827 14.2726 14.1809C14.1721 13.7791 14.4164 13.3719 14.8183 13.2714L18.8183 12.2714C19.2201 12.1709 19.6273 12.4153 19.7278 12.8171Z" fill="url(#paint0_linear_0_47)"/>
<path id="Vector_2" fill-rule="evenodd" clip-rule="evenodd" d="M11.2502 5.21493C10.9159 5.15144 10.5894 5.03881 10.2823 4.87642C9.29611 4.35497 8.04921 3.76527 7 3.4884C6.11349 3.25447 4.95877 3.13586 3.9824 3.07585C2.8863 3.00848 2 3.90059 2 4.99876V16.1446C2 17.2556 2.90605 18.1545 4.01486 18.2238C4.98428 18.2845 6.12329 18.403 7 18.6344C8.08145 18.9197 9.37293 19.5375 10.3724 20.0702C10.6516 20.219 10.9472 20.3268 11.2502 20.3936V5.21493ZM4.27257 8.81906C4.37303 8.41721 4.78023 8.17289 5.18208 8.27335L9.18208 9.27335C9.58393 9.37381 9.82825 9.78102 9.72778 10.1829C9.62732 10.5847 9.22012 10.8291 8.81828 10.7286L4.81828 9.72857C4.41643 9.62811 4.17211 9.2209 4.27257 8.81906ZM5.18208 12.2734C4.78023 12.1729 4.37303 12.4173 4.27257 12.8191C4.17211 13.2209 4.41643 13.6281 4.81828 13.7286L8.81828 14.7286C9.22012 14.8291 9.62732 14.5847 9.72778 14.1829C9.82825 13.7811 9.58393 13.3739 9.18208 13.2734L5.18208 12.2734Z" fill="url(#paint1_linear_0_47)"/>
<path id="Vector_3" d="M18.2502 3.15039C17.6301 3.22369 17.0206 3.33097 16.5 3.48682C16.2585 3.55913 16.0064 3.65079 15.7502 3.75578V3.9494V6.93797L16.4995 6.58204L16.5083 6.5776C16.5573 6.55254 16.7638 6.44695 17.0002 6.44695C17.0477 6.44695 17.094 6.45122 17.1381 6.45825C17.3132 6.48617 17.4529 6.55758 17.4921 6.5776L17.5009 6.58203L18.2502 6.93797V3.64603V3.15039Z" fill="url(#paint2_linear_0_47)"/>
</g>
<defs>
<linearGradient id="paint0_linear_0_47" x1="17.3751" y1="3.01563" x2="17.3751" y2="20.3915" gradientUnits="userSpaceOnUse">
<stop stop-color="#4868EA"/>
<stop offset="1" stop-color="#26ABE9"/>
</linearGradient>
<linearGradient id="paint1_linear_0_47" x1="6.6251" y1="3.07227" x2="6.6251" y2="20.3936" gradientUnits="userSpaceOnUse">
<stop stop-color="#4868EA"/>
<stop offset="1" stop-color="#26ABE9"/>
</linearGradient>
<linearGradient id="paint2_linear_0_47" x1="17.0002" y1="3.15039" x2="17.0002" y2="6.93797" gradientUnits="userSpaceOnUse">
<stop stop-color="#4868EA"/>
<stop offset="1" stop-color="#26ABE9"/>
</linearGradient>
</defs>
</svg>
