<svg preserveAspectRatio="none" width="100%" height="100%" overflow="visible" style="display: block;" viewBox="0 0 24 24" fill="none" xmlns="http://www.w3.org/2000/svg">
<g id="Frame">
<path id="Vector" d="M7.57208 3.06083C6.9904 3.74794 6.86972 4.75364 6.62835 6.76503L6.53744 7.52264C6.28694 9.61009 6.1617 10.6538 6.7585 11.3265C7.35531 11.9992 8.40652 11.9992 10.5089 11.9992H11.2501V13.7492H7.0001C6.67914 13.7492 6.37835 13.8356 6.11975 13.9864L5.84079 13.1496C5.77206 12.9433 5.72357 12.7978 5.63478 12.6063C5.5489 12.421 5.50517 12.3477 5.43669 12.2351C5.15178 11.7666 4.78062 11.3596 4.17921 11.0944C3.61284 10.8446 2.90523 10.7492 2.0001 10.7492C1.58589 10.7492 1.2501 11.085 1.2501 11.4992C1.2501 11.9134 1.58589 12.2492 2.0001 12.2492C2.82748 12.2492 3.28957 12.3414 3.57388 12.4668C3.82315 12.5768 3.98363 12.7326 4.15509 13.0145C4.18549 13.0645 4.19809 13.0855 4.21157 13.1102C4.22458 13.1342 4.24218 13.1687 4.2739 13.2371C4.32457 13.3464 4.34899 13.4176 4.42343 13.6409L5.28859 16.2364C5.32103 16.3337 5.37148 16.4199 5.43501 16.4926C5.83334 17.5204 6.83162 18.2492 8.0001 18.2492H11.2501V19.4152C10.0935 19.7402 9.16994 20.618 8.78859 21.762C8.6576 22.155 8.86997 22.5797 9.26293 22.7107C9.65589 22.8417 10.0806 22.6293 10.2116 22.2364C10.3886 21.7053 10.7647 21.2721 11.2501 21.0198V21.9992C11.2501 22.4134 11.5859 22.7492 12.0001 22.7492C12.4143 22.7492 12.7501 22.4134 12.7501 21.9992V21.0198C13.2355 21.2721 13.6116 21.7053 13.7886 22.2364C13.9196 22.6293 14.3443 22.8417 14.7373 22.7107C15.1302 22.5797 15.3426 22.155 15.2116 21.762C14.8303 20.618 13.9067 19.7402 12.7501 19.4152V18.2492H16.0001C17.1686 18.2492 18.1669 17.5204 18.5652 16.4926C18.6287 16.4199 18.6792 16.3337 18.7116 16.2364L19.5768 13.6409C19.6512 13.4176 19.6756 13.3464 19.7263 13.2371C19.758 13.1687 19.7756 13.1342 19.7886 13.1102C19.8021 13.0855 19.8147 13.0645 19.8451 13.0145C20.0166 12.7326 20.1771 12.5768 20.4263 12.4668C20.7106 12.3414 21.1727 12.2492 22.0001 12.2492C22.4143 12.2492 22.7501 11.9134 22.7501 11.4992C22.7501 11.085 22.4143 10.7492 22.0001 10.7492C21.095 10.7492 20.3874 10.8446 19.821 11.0944C19.2196 11.3596 18.8484 11.7666 18.5635 12.2351C18.495 12.3477 18.4513 12.421 18.3654 12.6063C18.2766 12.7978 18.2281 12.9433 18.1594 13.1496L17.8805 13.9864C17.6218 13.8356 17.3211 13.7492 17.0001 13.7492H12.7501V11.9992H13.4915C15.594 11.9992 16.6452 11.9992 17.242 11.3265C17.8388 10.6538 17.7135 9.61009 17.4631 7.52264L17.3721 6.76503C17.1308 4.75364 17.0101 3.74794 16.4284 3.06083C16.2438 2.84277 16.029 2.6522 15.7905 2.49489C15.039 1.99922 14.0261 1.99922 12.0002 1.99922C9.97442 1.99922 8.96151 1.99922 8.21 2.49489C7.97149 2.6522 7.75669 2.84277 7.57208 3.06083Z" fill="url(#paint0_linear_0_62)"/>
</g>
<defs>
<linearGradient id="paint0_linear_0_62" x1="12.0001" y1="1.99922" x2="12.0001" y2="22.7494" gradientUnits="userSpaceOnUse">
<stop stop-color="#4868EA"/>
<stop offset="1" stop-color="#26ABE9"/>
</linearGradient>
</defs>
</svg>
