<svg preserveAspectRatio="none" width="100%" height="100%" overflow="visible" style="display: block;" viewBox="0 0 20 20" fill="none" xmlns="http://www.w3.org/2000/svg">
<g id="Frame">
<path id="Vector" fill-rule="evenodd" clip-rule="evenodd" d="M7.70833 3.33333C7.70833 2.06768 8.73433 1.04167 10 1.04167C11.2657 1.04167 12.2917 2.06768 12.2917 3.33333C12.2917 4.59898 11.2657 5.625 10 5.625C8.73433 5.625 7.70833 4.59898 7.70833 3.33333Z" fill="url(#paint0_linear_0_51)"/>
<path id="Vector_2" d="M6.85258 9.64508L5.03983 9.04083C4.51838 8.867 4.16667 8.379 4.16667 7.82938C4.16667 7.01641 4.91628 6.41041 5.71121 6.58076L7.29252 6.91961C7.38045 6.93845 7.42442 6.94787 7.46801 6.95688C9.13833 7.30238 10.8617 7.30238 12.532 6.95688C12.5756 6.94787 12.6196 6.93845 12.7075 6.91961L14.2887 6.58075C15.0837 6.41041 15.8333 7.01641 15.8333 7.82938C15.8333 8.379 15.4816 8.867 14.9602 9.04083L13.1474 9.64508C12.9283 9.71808 12.8188 9.75458 12.7364 9.8055C12.4559 9.97858 12.3038 10.3008 12.3485 10.6275C12.3617 10.7234 12.4031 10.8312 12.486 11.0467L13.525 13.7481C13.8342 14.5522 13.2407 15.4164 12.3791 15.4164C11.9386 15.4164 11.5318 15.1804 11.3132 14.7978L10 12.4997L8.68683 14.7978C8.46825 15.1804 8.06144 15.4164 7.62088 15.4164C6.75932 15.4164 6.16574 14.5522 6.47503 13.7481L7.51402 11.0467C7.59691 10.8312 7.63836 10.7234 7.65148 10.6275C7.69613 10.3008 7.54406 9.97858 7.26354 9.8055C7.18118 9.75458 7.07164 9.71808 6.85258 9.64508Z" fill="url(#paint1_linear_0_51)"/>
<path id="Vector_3" d="M10 18.3332C14.6023 18.3332 18.3333 16.6542 18.3333 14.5832C18.3333 13.1483 16.5424 11.9017 13.9117 11.2712L14.6917 13.2992C15.3158 14.9221 14.1179 16.6663 12.3791 16.6663C11.49 16.6663 10.669 16.1899 10.2279 15.4179L10 15.0191L9.77208 15.4179C9.331 16.1899 8.51 16.6663 7.62088 16.6663C5.88209 16.6663 4.68416 14.9221 5.30834 13.2992L6.08836 11.2712C3.45756 11.9017 1.66667 13.1483 1.66667 14.5832C1.66667 16.6542 5.39763 18.3332 10 18.3332Z" fill="url(#paint2_linear_0_51)"/>
</g>
<defs>
<linearGradient id="paint0_linear_0_51" x1="10" y1="1.04167" x2="10" y2="5.625" gradientUnits="userSpaceOnUse">
<stop stop-color="#4868EA"/>
<stop offset="1" stop-color="#26ABE9"/>
</linearGradient>
<linearGradient id="paint1_linear_0_51" x1="10" y1="6.55192" x2="10" y2="15.4164" gradientUnits="userSpaceOnUse">
<stop stop-color="#4868EA"/>
<stop offset="1" stop-color="#26ABE9"/>
</linearGradient>
<linearGradient id="paint2_linear_0_51" x1="10" y1="11.2712" x2="10" y2="18.3332" gradientUnits="userSpaceOnUse">
<stop stop-color="#4868EA"/>
<stop offset="1" stop-color="#26ABE9"/>
</linearGradient>
</defs>
</svg>
