<svg preserveAspectRatio="none" width="100%" height="100%" overflow="visible" style="display: block;" viewBox="0 0 24 24" fill="none" xmlns="http://www.w3.org/2000/svg">
<g id="Frame">
<path id="Vector" d="M9.75 12C9.75 13.2426 10.7574 14.25 12 14.25C13.2426 14.25 14.25 13.2426 14.25 12C14.25 10.7574 13.2426 9.75 12 9.75C10.7574 9.75 9.75 10.7574 9.75 12Z" fill="url(#paint0_linear_0_38)"/>
<path id="Vector_2" fill-rule="evenodd" clip-rule="evenodd" d="M3.77782 18.3251C4.78671 18.9992 6.19118 18.9992 9.0001 18.9992H15.0001C17.809 18.9992 19.2135 18.9992 20.2224 18.3251C20.6591 18.0332 21.0341 17.6582 21.326 17.2215C22.0001 16.2126 22.0001 14.8081 22.0001 11.9992C22.0001 9.19029 22.0001 7.78583 21.326 6.77694C21.0341 6.34018 20.6591 5.96517 20.2224 5.67334C19.2135 4.99922 17.809 4.99922 15.0001 4.99922H9.0001C6.19118 4.99922 4.78671 4.99922 3.77782 5.67334C3.34106 5.96518 2.96606 6.34018 2.67422 6.77694C2.0001 7.78583 2.0001 9.1903 2.0001 11.9992C2.0001 14.8081 2.0001 16.2126 2.67422 17.2215C2.96606 17.6582 3.34106 18.0332 3.77782 18.3251ZM12.0001 15.7492C9.92903 15.7492 8.2501 14.0703 8.2501 11.9992C8.2501 9.92815 9.92903 8.24922 12.0001 8.24922C14.0712 8.24922 15.7501 9.92815 15.7501 11.9992C15.7501 14.0703 14.0712 15.7492 12.0001 15.7492ZM5.5001 15.7492C5.08589 15.7492 4.7501 15.4134 4.7501 14.9992V8.99922C4.7501 8.58501 5.08589 8.24922 5.5001 8.24922C5.91431 8.24922 6.2501 8.58501 6.2501 8.99922V14.9992C6.2501 15.4134 5.91431 15.7492 5.5001 15.7492ZM17.7501 14.9992C17.7501 15.4134 18.0859 15.7492 18.5001 15.7492C18.9143 15.7492 19.2501 15.4134 19.2501 14.9992V8.99922C19.2501 8.58501 18.9143 8.24922 18.5001 8.24922C18.0859 8.24922 17.7501 8.58501 17.7501 8.99922V14.9992Z" fill="url(#paint1_linear_0_38)"/>
</g>
<defs>
<linearGradient id="paint0_linear_0_38" x1="12" y1="9.75" x2="12" y2="14.25" gradientUnits="userSpaceOnUse">
<stop stop-color="#4868EA"/>
<stop offset="1" stop-color="#26ABE9"/>
</linearGradient>
<linearGradient id="paint1_linear_0_38" x1="12.0001" y1="4.99922" x2="12.0001" y2="18.9992" gradientUnits="userSpaceOnUse">
<stop stop-color="#4868EA"/>
<stop offset="1" stop-color="#26ABE9"/>
</linearGradient>
</defs>
</svg>
