<svg preserveAspectRatio="none" width="100%" height="100%" overflow="visible" style="display: block;" viewBox="0 0 24 24" fill="none" xmlns="http://www.w3.org/2000/svg">
<g id="Frame">
<path id="Vector" d="M8.10627 18.247C5.29819 16.0835 2 13.5424 2 9.13735C2 4.27441 7.50016 0.825709 12 5.50088L14 7.49953C14.2929 7.79237 14.7678 7.79228 15.0607 7.49933C15.3535 7.20639 15.3534 6.73152 15.0605 6.43868L13.1285 4.50737C17.3685 1.40334 22 4.6749 22 9.13735C22 13.5424 18.7018 16.0835 15.8937 18.247C15.6019 18.4719 15.3153 18.6927 15.0383 18.9111C14 19.7296 13 20.5002 12 20.5002C11 20.5002 10 19.7296 8.96173 18.9111C8.68471 18.6927 8.39814 18.4719 8.10627 18.247Z" fill="url(#paint0_linear_0_66)"/>
</g>
<defs>
<linearGradient id="paint0_linear_0_66" x1="12" y1="3.28516" x2="12" y2="20.5002" gradientUnits="userSpaceOnUse">
<stop stop-color="#4868EA"/>
<stop offset="1" stop-color="#26ABE9"/>
</linearGradient>
</defs>
</svg>
