<svg preserveAspectRatio="none" width="100%" height="100%" overflow="visible" style="display: block;" viewBox="0 0 28.0497 29.6667" fill="none" xmlns="http://www.w3.org/2000/svg">
<path id="Vector" fill-rule="evenodd" clip-rule="evenodd" d="M0.0526277 3.18461C0.130412 1.4125 1.59179 3.7194e-05 3.38274 7.37394e-10C5.22371 -3.83052e-05 6.71611 1.49236 6.71607 3.33333C6.71605 4.55233 6.06168 5.61851 5.08506 6.19977C5.36897 6.38753 5.69404 6.5778 6.06483 6.76958C8.2349 7.89199 11.3452 8.68787 14.5485 9.0082C15.0147 9.05481 15.4681 9.10796 15.9092 9.1681C15.9327 9.17082 15.956 9.17403 15.9793 9.17773C18.7722 9.56437 21.068 10.2337 22.9528 11.299C25.1925 12.5649 26.7437 14.3285 27.8734 16.5879C28.2851 17.4112 27.9514 18.4123 27.1281 18.824C26.3048 19.2356 25.3036 18.9019 24.892 18.0786C24.0217 16.3381 22.9063 15.1016 21.3126 14.2009C20.3187 13.6391 19.1004 13.1862 17.5761 12.8452C17.7545 15.1737 17.757 17.2791 17.2578 19.4727C16.6036 22.348 15.1274 25.2263 12.3973 28.9802C11.8559 29.7246 10.8135 29.8892 10.0691 29.3478C9.32466 28.8064 9.16008 27.7641 9.70148 27.0196C12.3047 23.4403 13.4952 20.9852 14.0076 18.7332C14.1731 18.0059 14.2719 17.2843 14.3189 16.532C13.8879 17.6837 13.286 18.7755 12.4708 19.8373C10.4551 22.4629 7.23532 24.7656 2.54294 27.447C1.74374 27.9037 0.725649 27.626 0.268966 26.8268C-0.187718 26.0276 0.0899437 25.0095 0.889139 24.5529C5.53009 21.9009 8.24315 19.8703 9.82685 17.8074C11.0954 16.1552 11.7062 14.3912 11.8691 12.0106C9.1937 11.5598 6.5958 10.797 4.53347 9.73033C2.03964 8.44047 -0.390523 6.28254 0.0526277 3.18461ZM11.3827 3.66663C11.3827 1.82571 12.8751 0.333336 14.716 0.333298C16.557 0.33326 18.0494 1.82565 18.0494 3.66663C18.0493 5.50755 16.557 6.99993 14.716 6.99996C12.8751 7 11.3827 5.5076 11.3827 3.66663Z" fill="var(--fill-0, #141414)"/>
</svg>
