<svg preserveAspectRatio="none" width="100%" height="100%" overflow="visible" style="display: block;" viewBox="0 0 32 32" fill="none" xmlns="http://www.w3.org/2000/svg">
<g id="barbells_02">
<path id="Vector" fill-rule="evenodd" clip-rule="evenodd" d="M29.7383 1.0498C30.6313 1.27314 31.1741 2.17809 30.9508 3.07106L29.6169 8.40439C29.3935 9.29736 28.4886 9.8402 27.5956 9.61686C26.7026 9.39352 26.1598 8.48858 26.3831 7.59561L26.5622 6.87987C26.2905 6.85704 25.9824 6.83172 25.6441 6.80485C25.5106 9.22946 24.7826 11.9903 23.4338 14.2663C22.4065 16 20.9346 17.5727 18.9998 18.3962L18.9998 21.5825C19.608 21.1481 20.2394 20.7519 20.855 20.4175C21.5116 20.0608 22.1869 19.7543 22.8283 19.5492C23.4302 19.3568 24.1739 19.1964 24.8949 19.3054C25.2781 19.3632 25.7249 19.5081 26.125 19.8327C26.5422 20.1712 26.8034 20.6206 26.9239 21.1007C27.1399 21.9608 26.8954 22.8572 26.5885 23.6043C26.1564 24.6561 25.3489 25.9938 24.1068 27.6694C24.9775 27.7245 25.6667 28.4481 25.6667 29.3327C25.6667 30.2532 24.9205 30.9994 24 30.9994H20.6662C20.0194 30.9994 19.4311 30.6253 19.1568 30.0396C18.8825 29.4539 18.9718 28.7625 19.3858 28.2657C21.438 25.8033 22.6108 24.0935 23.2041 22.9712C22.9681 23.0757 22.7138 23.2011 22.4462 23.3465C21.3796 23.9259 20.2485 24.742 19.4066 25.5569C18.5509 26.3853 17.3594 26.9989 15.9999 26.9989C14.6403 26.9989 13.4489 26.3853 12.5931 25.557C11.7512 24.742 10.62 23.9259 9.55351 23.3465C9.28572 23.2011 9.0313 23.0756 8.7952 22.9711C9.38843 24.0933 10.5611 25.8032 12.6132 28.2657C13.0272 28.7625 13.1164 29.454 12.8421 30.0396C12.5678 30.6253 11.9795 30.9994 11.3328 30.9994H8C7.07953 30.9994 6.33333 30.2532 6.33333 29.3327C6.33333 28.4484 7.02206 27.7249 7.89238 27.6695C6.65043 25.9938 5.84294 24.656 5.41095 23.6042C5.10408 22.8571 4.85968 21.9607 5.07571 21.1006C5.19628 20.6205 5.45752 20.1711 5.87467 19.8327C6.27476 19.5081 6.72159 19.3632 7.10472 19.3054C7.82575 19.1965 8.56948 19.3568 9.17133 19.5492C9.81279 19.7543 10.4881 20.0608 11.1447 20.4175C11.7603 20.7519 12.3917 21.1481 12.9998 21.5825L12.9998 18.3961C11.0653 17.5724 9.5935 15.9998 8.56623 14.2663C7.21743 11.9903 6.48938 9.22947 6.35586 6.80485C6.01764 6.83172 5.70952 6.85703 5.43793 6.87986L5.6169 7.59577C5.84015 8.48877 5.29722 9.39366 4.40423 9.6169C3.51123 9.84015 2.60634 9.29722 2.3831 8.40423L1.04976 3.07089C0.826515 2.1779 1.36945 1.27301 2.26244 1.04976C3.15543 0.826515 4.06032 1.36945 4.28357 2.26244L4.61906 3.60438C4.74528 3.5934 4.88526 3.58136 5.03777 3.56844C5.78203 3.50542 6.82591 3.42142 8.02605 3.3374C10.4172 3.17002 13.4637 3 16 3C18.5363 3 21.5828 3.17002 23.9739 3.3374C25.1741 3.42142 26.218 3.50542 26.9622 3.56844C27.1149 3.58138 27.255 3.59343 27.3814 3.60442L27.717 2.26228C27.9404 1.36931 28.8453 0.826465 29.7383 1.0498ZM9.68126 6.56841C9.77949 8.51668 10.3728 10.7764 11.4339 12.567C12.5957 14.5275 14.1368 15.6667 16 15.6667C17.8633 15.6667 19.4044 14.5275 20.5662 12.567C21.6272 10.7765 22.2205 8.51669 22.3187 6.56841C20.2559 6.43994 17.9529 6.33333 16 6.33333C14.0471 6.33333 11.7441 6.43994 9.68126 6.56841ZM12.6667 11C12.6668 9.15908 14.1592 7.66671 16.0001 7.66667C17.8411 7.66663 19.3335 9.15902 19.3334 11C19.3334 12.8409 17.841 14.3333 16.0001 14.3333C14.1591 14.3334 12.6667 12.841 12.6667 11Z" fill="var(--fill-0, #141414)"/>
</g>
</svg>
