<svg preserveAspectRatio="none" width="100%" height="100%" overflow="visible" style="display: block;" viewBox="0 0 32 32" fill="none" xmlns="http://www.w3.org/2000/svg">
<g id="Frame">
<path id="Vector" d="M20 6.00033C20 7.84127 18.5076 9.33366 16.6667 9.33366C14.8258 9.33366 13.3334 7.84127 13.3334 6.00033C13.3334 4.15938 14.8258 2.66699 16.6667 2.66699C18.5076 2.66699 20 4.15938 20 6.00033Z" fill="var(--fill-0, #141414)"/>
<path id="Vector_2" fill-rule="evenodd" clip-rule="evenodd" d="M14.5723 12.3559C14.8387 12.3415 15.0956 12.333 15.3334 12.333C16.0722 12.333 16.8719 12.4151 17.5918 12.5185C19.6206 12.8099 21.1566 14.307 21.7704 16.1486C21.9095 16.5657 22.3312 16.8195 22.765 16.7473L25.169 16.3466C25.7138 16.2558 26.229 16.6238 26.3198 17.1686C26.4106 17.7134 26.0426 18.2286 25.4978 18.3194L23.0938 18.7201C21.6892 18.9542 20.3234 18.1317 19.8731 16.781C19.4634 15.5519 18.4827 14.667 17.3075 14.4982C16.9506 14.4469 16.5872 14.4035 16.2343 14.3742L15.8727 17.9894C15.7608 19.109 15.7478 19.4046 15.8234 19.6687C15.8988 19.9327 16.0663 20.1767 16.7536 21.0675L22.659 28.7222C22.9964 29.1594 22.9154 29.7874 22.478 30.1247C22.0408 30.4621 21.4128 30.3811 21.0755 29.9438L15.17 22.2893C15.1382 22.2479 15.1067 22.2071 15.0755 22.1669C14.528 21.4585 14.0948 20.8981 13.9004 20.219C13.7062 19.5398 13.7772 18.835 13.8672 17.9443C13.8723 17.8937 13.8775 17.8423 13.8827 17.7905L14.2215 14.4027C11.9904 14.7677 10.3334 16.8651 10.3334 19.333C10.3334 19.8853 9.88569 20.333 9.33341 20.333C8.78112 20.333 8.33341 19.8853 8.33341 19.333C8.33341 15.8121 10.8851 12.5558 14.5723 12.3559ZM13.5295 22.3525C14.0711 22.4607 14.4223 22.9875 14.314 23.5291C13.8372 25.9129 12.5352 28.0522 10.637 29.5707L9.95811 30.1139C9.52684 30.4589 8.89755 30.389 8.55255 29.9577C8.20753 29.5265 8.27745 28.8971 8.70872 28.5521L9.3876 28.009C10.9184 26.7843 11.9684 25.0591 12.3528 23.1369C12.4611 22.5953 12.988 22.2441 13.5295 22.3525Z" fill="var(--fill-0, #141414)"/>
</g>
</svg>
