<svg preserveAspectRatio="none" width="100%" height="100%" overflow="visible" style="display: block;" viewBox="0 0 32 32" fill="none" xmlns="http://www.w3.org/2000/svg">
<g id="playing_hockey">
<path id="Vector" fill-rule="evenodd" clip-rule="evenodd" d="M24.3335 2.33333C22.4926 2.33337 21.0002 3.82574 21.0002 5.66667C21.0001 7.50764 22.4925 9.00004 24.3335 9C26.1744 8.99996 27.6668 7.50759 27.6668 5.66667C27.6669 3.82569 26.1745 2.33329 24.3335 2.33333ZM17.6604 7.03246C17.1286 6.92603 16.5944 6.99315 16.1812 7.08183C15.7375 7.17708 15.2763 7.33251 14.8294 7.52148C13.9403 7.89744 12.981 8.46018 12.1743 9.1398C11.4074 9.78582 10.573 10.7095 10.2782 11.8582C10.1207 12.4718 10.1189 13.1518 10.3737 13.8295C10.5925 14.4112 10.9659 14.9006 11.4295 15.3054C10.9516 16.848 10.1545 18.7197 9.24342 20.2148C9.0933 20.4611 8.91425 20.7889 8.73685 21.1137L8.73678 21.1139C8.66159 21.2515 8.58669 21.3886 8.51442 21.5188C8.24902 21.9967 7.95633 22.4996 7.62233 22.9871C6.93415 23.9915 6.17627 24.7709 5.33197 25.1403C4.7395 25.3995 4.35045 25.978 4.33388 26.6245C4.31732 27.271 4.67622 27.8687 5.25465 28.1579L7.92131 29.4912C8.74461 29.9029 9.74573 29.5692 10.1574 28.7459C10.569 27.9226 10.2353 26.9215 9.41203 26.5098L9.16288 26.3852C9.63471 25.8873 10.0349 25.3633 10.3721 24.8711C10.7924 24.2577 11.1434 23.6506 11.4286 23.137C11.5381 22.9399 11.632 22.7677 11.7152 22.6152C11.866 22.3389 11.9814 22.1273 12.0899 21.9493C12.8073 20.7721 13.4573 19.4148 13.976 18.0982C14.7552 19.928 14.9057 22.8388 13.7163 27.5963C13.5918 28.0942 13.7037 28.6218 14.0196 29.0263C14.3356 29.4309 14.8203 29.6673 15.3335 29.6672L18.0005 29.6667C18.9209 29.6665 19.667 28.9202 19.6668 27.9997C19.6666 27.0792 18.9203 26.3332 17.9998 26.3333L17.4111 26.3334C18.4922 20.7355 17.8179 16.8093 15.4396 14.3071C15.6495 14.0867 15.9338 13.8379 16.3072 13.568C17.0327 13.0434 17.8534 12.6077 18.4969 12.2823C19.1407 13.5029 19.9096 15.2332 20.9973 17.6809L20.9973 17.6809L21.1436 18.0102C21.3611 18.4994 21.7852 18.8322 22.2675 18.9516L25.7286 28.346C25.7416 28.3813 25.7566 28.4159 25.7736 28.4496C26.4252 29.7452 28.0885 30.1388 29.2517 29.2726L29.4069 29.157C29.8498 28.8272 29.9415 28.2007 29.6117 27.7577C29.2818 27.3148 28.6553 27.2231 28.2124 27.5529L28.0572 27.6685C27.9013 27.7846 27.6826 27.7423 27.5792 27.5839L24.1099 18.1671C24.367 17.7212 24.4147 17.1628 24.1897 16.6564L23.9736 16.17C22.7704 13.4616 21.869 11.4323 21.0693 10.0435C20.2473 8.61583 19.2596 7.35255 17.6604 7.03246Z" fill="var(--fill-0, #141414)"/>
</g>
</svg>
