<svg preserveAspectRatio="none" width="100%" height="100%" overflow="visible" style="display: block;" viewBox="0 0 32 32" fill="none" xmlns="http://www.w3.org/2000/svg">
<g id="freestyle_skiing">
<path id="Vector" fill-rule="evenodd" clip-rule="evenodd" d="M9.16057 1.08897C9.34946 0.569992 9.9233 0.302404 10.4423 0.491297L29.8578 7.55798C31.4148 8.12466 32.2175 9.84618 31.6508 11.4031C31.462 11.9221 30.8881 12.1897 30.3691 12.0008C29.8502 11.8119 29.5826 11.2381 29.7715 10.7191C29.9604 10.2001 29.6928 9.62626 29.1738 9.43736L24.7794 7.83795C25.0234 8.26436 25.0774 8.79408 24.8808 9.28565C24.7757 9.54849 24.6111 9.76982 24.4088 9.94036L25.1899 10.2246C26.7468 10.7913 27.5496 12.5128 26.9829 14.0698C26.794 14.5888 26.2201 14.8563 25.7012 14.6675C25.1822 14.4786 24.9146 13.9047 25.1035 13.3857C25.2924 12.8668 25.0248 12.2929 24.5058 12.104L20.7215 10.7267C20.6298 11.0251 20.531 11.3452 20.425 11.6865C19.7249 13.9399 18.7125 17.1154 17.3877 21.0644C20.506 22.3398 23.0165 24.8538 25.3865 28.4087C25.8971 29.1746 25.6901 30.2094 24.9242 30.72C24.1583 31.2305 23.1236 31.0236 22.613 30.2577C20.0522 26.4165 17.6837 24.4554 14.9223 23.7532C12.0948 23.0341 8.49456 23.537 3.25161 25.5031C2.38974 25.8263 1.42905 25.3897 1.10585 24.5278C0.782644 23.6659 1.21932 22.7052 2.08118 22.382C5.85484 20.9669 9.13285 20.1482 12.0713 20.1099C12.3191 19.4501 12.3674 18.6029 12.19 17.5606C11.9766 16.3068 11.4641 14.9443 10.8334 13.6435C10.208 12.3537 9.49866 11.1897 8.94129 10.3437C8.66385 9.92262 8.42705 9.5848 8.26148 9.3547C8.17877 9.23975 8.11403 9.15197 8.07113 9.09442L8.02369 9.03126L8.0132 9.01746L8.01202 9.01591L8.01165 9.01543C7.55416 8.42025 7.55102 7.59264 8.00404 6.994C8.22216 6.70577 8.5201 6.50488 8.84823 6.40514L5.09027 5.03735C4.57129 4.84846 4.30371 4.27461 4.4926 3.75564C4.68149 3.23666 5.25533 2.96907 5.77431 3.15796L18.1647 7.66771C18.2347 7.43218 18.289 7.24779 18.3275 7.11621L18.3809 6.93263L18.394 6.88739L18.3971 6.87654L18.3979 6.87408L18.398 6.87359L18.398 6.87353C18.528 6.42056 18.8437 6.04381 19.2669 5.83653L19.2728 5.83369L9.75824 2.37068C9.23926 2.18179 8.97168 1.60795 9.16057 1.08897ZM13.9411 8.25877C14.3243 8.71426 14.4504 9.36075 14.2139 9.95205C14.0221 10.4313 13.6329 10.7726 13.1772 10.9196C13.3984 11.324 13.6193 11.7491 13.8328 12.1893C14.4678 13.4991 15.0633 14.9968 15.3835 16.5159C16.1485 14.178 16.7679 12.2227 17.2417 10.6976C17.3662 10.2967 17.4807 9.92563 17.5851 9.58509L13.9411 8.25877ZM13.3331 24.9411C11.4921 24.9411 9.99973 26.4335 9.99973 28.2745C9.99973 30.1154 11.4921 31.6078 13.3331 31.6078C15.174 31.6078 16.6664 30.1154 16.6664 28.2745C16.6664 26.4335 15.174 24.9411 13.3331 24.9411Z" fill="var(--fill-0, #141414)"/>
</g>
</svg>
