<svg preserveAspectRatio="none" width="100%" height="100%" overflow="visible" style="display: block;" viewBox="0 0 32 32" fill="none" xmlns="http://www.w3.org/2000/svg">
<g id="surfing">
<path id="Vector" fill-rule="evenodd" clip-rule="evenodd" d="M13.0671 5.3334C13.0671 3.49248 14.5595 2.00011 16.4004 2.00007C18.2414 2.00003 19.7338 3.49243 19.7338 5.3334C19.7337 7.17432 18.2414 8.6667 16.4004 8.66674C14.5595 8.66678 13.0671 7.17438 13.0671 5.3334ZM28.1248 4.80468C29.0139 5.04292 29.5416 5.95681 29.3033 6.84592C28.7265 8.99887 27.236 10.5447 25.3814 11.6076C23.8346 12.4941 21.9746 13.0841 19.9921 13.4571C20.1139 14.0157 20.2263 14.7415 20.2134 15.5054C20.2133 15.5129 20.2131 15.5204 20.213 15.5279C20.2747 15.6646 20.3448 15.8152 20.424 15.9798C20.7995 16.7607 21.3191 17.7354 21.9479 18.813C23.208 20.9724 24.8687 23.4797 26.6203 25.6074C26.9209 25.9726 27.0472 26.4409 26.9846 26.8946C28.0294 26.6901 28.5708 26.51 28.7141 26.4526C29.5687 26.1106 30.5387 26.5262 30.8807 27.3807C31.2227 28.2353 30.8072 29.2054 29.9526 29.5474C29.0082 29.9253 25.2138 31 16.6667 31C8.1193 31 4.32567 29.9252 3.38114 29.5475C2.52648 29.2057 2.1107 28.2358 2.45249 27.3811C2.79427 26.5265 3.76419 26.1107 4.61886 26.4525C4.75029 26.5051 5.21542 26.6605 6.09494 26.8434C6.00386 26.597 5.96985 26.3255 6.00689 26.047C6.12823 25.1346 6.96627 24.4932 7.87871 24.6146L8.72428 24.727C8.62051 23.6586 8.60023 22.7258 8.67009 21.913C8.78537 20.5717 9.15926 19.4118 9.95511 18.5261C10.7527 17.6385 11.781 17.2426 12.7493 17.0368C13.1675 16.9479 13.6133 16.8873 14.0682 16.842C14.0666 16.6433 14.0678 16.4475 14.069 16.2546C14.0693 16.1992 14.0697 16.144 14.0699 16.0891C14.0729 15.4883 14.0722 14.8237 14.0118 14.0015C10.5041 14.0415 6.8628 13.6671 3.66645 13.0508C2.76262 12.8765 2.17122 12.0025 2.3455 11.0987C2.51978 10.1949 3.39376 9.60347 4.29759 9.77775C8.76453 10.6391 14.0659 10.9767 18.3953 10.3444C20.5625 10.028 22.3858 9.48249 23.7239 8.71556C25.0414 7.96049 25.7977 7.05 26.0836 5.98319C26.3218 5.09408 27.2357 4.56645 28.1248 4.80468ZM18.3863 19.2893C17.7241 19.7351 16.908 19.991 15.9701 20.0473C14.8731 20.1131 14.0814 20.1614 13.4424 20.2972C12.834 20.4266 12.5767 20.5958 12.4345 20.7541C12.2904 20.9144 12.07 21.2812 11.9912 22.1985C11.9114 23.1261 11.9901 24.4638 12.311 26.3933C12.3781 26.7965 12.2941 27.2058 12.0826 27.5462C13.4046 27.6206 14.9263 27.6667 16.6667 27.6667C18.3726 27.6667 19.8684 27.6224 21.172 27.5506C21.0114 27.2944 20.9186 26.9914 20.9186 26.6667C20.9186 25.9384 21.3857 25.3192 22.0368 25.0924C20.9237 23.5296 19.9086 21.9321 19.0689 20.493C18.8275 20.0793 18.5993 19.6765 18.3863 19.2893Z" fill="var(--fill-0, #141414)"/>
</g>
</svg>
