<svg preserveAspectRatio="none" width="100%" height="100%" overflow="visible" style="display: block;" viewBox="0 0 32 32" fill="none" xmlns="http://www.w3.org/2000/svg">
<g id="exercise_dumbbells">
<path id="Vector" fill-rule="evenodd" clip-rule="evenodd" d="M4.19477 2.33323C3.93758 1.74459 3.35022 1.33323 2.66678 1.33323C1.74631 1.33323 1.00012 2.07942 1.00012 2.9999V4.9999C1.00012 5.92037 1.74631 6.66656 2.66678 6.66656C3.35022 6.66656 3.93758 6.2552 4.19477 5.66656H4.36168C4.45265 7.22317 4.76523 8.54935 5.32489 9.6575C6.0182 11.0303 7.03997 11.9666 8.25468 12.574C9.43127 13.1623 10.7441 13.4205 12.0274 13.5443C12.3397 13.5745 12.6576 13.5972 12.9787 13.6143C12.8666 17.8028 12.313 21.7557 11.2964 26.9998H10C9.07953 26.9998 8.33333 27.746 8.33333 28.6664C8.33333 29.5869 9.07953 30.3331 10 30.3331H12.6667C13.4611 30.3331 14.1452 29.7723 14.301 28.9933C15.1026 24.985 15.6717 21.6622 16.0001 18.4656C16.3284 21.6622 16.8974 24.985 17.699 28.9933C17.8548 29.7723 18.5389 30.3331 19.3333 30.3331H22C22.9205 30.3331 23.6667 29.5869 23.6667 28.6664C23.6667 27.746 22.9205 26.9998 22 26.9998H20.7036C19.687 21.7557 19.1335 17.8028 19.0215 13.6143C19.3426 13.5972 19.6604 13.5745 19.9727 13.5443C21.2561 13.4205 22.5689 13.1623 23.7455 12.574C24.9602 11.9666 25.982 11.0303 26.6753 9.65758C27.235 8.54944 27.5476 7.22328 27.6385 5.6667H27.8055C28.0627 6.25533 28.65 6.6667 29.3335 6.6667C30.2539 6.6667 31.0001 5.92051 31.0001 5.00003V3.00003C31.0001 2.07956 30.2539 1.33337 29.3335 1.33337C28.65 1.33337 28.0627 1.74473 27.8055 2.33337H24.1948C23.9376 1.74473 23.3502 1.33337 22.6668 1.33337C21.7463 1.33337 21.0001 2.07956 21.0001 3.00003V5.00003C21.0001 5.92051 21.7463 6.6667 22.6668 6.6667C23.3502 6.6667 23.9376 6.25533 24.1948 5.6667H24.298C24.2137 6.79052 23.987 7.58649 23.6999 8.15486C23.3516 8.84456 22.8734 9.28327 22.2548 9.59258C21.5981 9.92094 20.7442 10.1211 19.6526 10.2264C18.5599 10.3319 17.3523 10.3333 16.0001 10.3333C14.6479 10.3333 13.4403 10.3319 12.3476 10.2264C11.256 10.1211 10.4021 9.92094 9.74543 9.59257C9.12683 9.28326 8.64863 8.84455 8.3003 8.15482C8.01324 7.58643 7.78653 6.79042 7.70227 5.66656H7.80547C8.06265 6.2552 8.65001 6.66656 9.33345 6.66656C10.2539 6.66656 11.0001 5.92037 11.0001 4.9999V2.9999C11.0001 2.07942 10.2539 1.33323 9.33345 1.33323C8.65001 1.33323 8.06265 1.74459 7.80547 2.33323H4.19477ZM12.6668 5.66656C12.6668 3.82564 14.1592 2.33327 16.0001 2.33323C17.8411 2.33319 19.3335 3.82558 19.3334 5.66656C19.3334 7.50748 17.841 8.99986 16.0001 8.9999C14.1591 8.99993 12.6667 7.50753 12.6668 5.66656Z" fill="var(--fill-0, #141414)"/>
</g>
</svg>
