<svg preserveAspectRatio="none" width="100%" height="100%" overflow="visible" style="display: block;" viewBox="0 0 32 32" fill="none" xmlns="http://www.w3.org/2000/svg">
<g id="hiking">
<path id="Vector" fill-rule="evenodd" clip-rule="evenodd" d="M11.3333 4.33333C11.3333 2.49241 12.8257 1.00004 14.6666 1C16.5076 0.999962 18 2.49236 18 4.33333C17.9999 6.17425 16.5076 7.66663 14.6666 7.66667C12.8257 7.66671 11.3333 6.17431 11.3333 4.33333ZM7.95232 7.11921C8.80696 7.46106 9.22265 8.43101 8.88079 9.28565L7.54746 12.619C7.20561 13.4736 6.23565 13.8893 5.38102 13.5475C4.52638 13.2056 4.11068 12.2357 4.45254 11.381L5.78587 8.04768C6.12773 7.19304 7.09768 6.77735 7.95232 7.11921ZM11.6176 8.37791C12.0985 8.26438 12.6051 8.37015 13.0004 8.66665C14.0781 9.47489 15.0604 9.79715 16.1492 9.78557C17.3033 9.7733 18.7173 9.38431 20.6268 8.49052C21.0575 8.28888 21.5539 8.28089 21.991 8.46857C22.428 8.65626 22.7641 9.02172 22.9145 9.47295L26.7507 20.9817L28.8914 20.393C29.7789 20.1489 30.6963 20.6705 30.9403 21.5581C31.1844 22.4456 30.6628 23.3629 29.7753 23.607L3.10859 30.9403C2.22107 31.1844 1.30373 30.6628 1.05966 29.7753C0.815588 28.8877 1.33721 27.9704 2.22474 27.7263L6.73062 26.4872C6.42279 26.3678 6.15024 26.1571 5.95567 25.8713C5.56262 25.294 5.57118 24.5329 5.97711 23.9646C7.67307 21.5903 9.0098 18.9527 9.98303 16.5327C9.35823 15.9735 9.00021 15.2427 8.92371 14.4009C8.85074 13.5981 9.04034 12.7735 9.30933 11.99C9.58506 11.187 9.99906 10.2758 10.5098 9.25454C10.7308 8.81255 11.1366 8.49144 11.6176 8.37791ZM13.0517 17.8358C12.4078 19.4302 11.6211 21.1037 10.6908 22.7498C11.1365 22.9531 11.4888 23.3502 11.6169 23.8624C11.7375 24.3447 11.6346 24.8304 11.3738 25.2103L14.8375 24.2578C14.584 24.1788 14.3489 24.0392 14.1549 23.8452C13.741 23.4312 13.5745 22.8304 13.7165 22.2625C14.0357 20.9856 14.1716 20.0768 14.1881 19.4266C14.2044 18.7795 14.0994 18.496 14.0369 18.3814C13.9572 18.2353 13.7975 18.0711 13.0517 17.8358ZM19.3127 23.0271L23.5321 21.8668L20.3231 12.2397C18.8811 12.7837 17.5138 13.1046 16.1846 13.1187C15.6609 13.1243 15.1542 13.0822 14.6619 12.9937C14.5251 13.5283 14.364 14.0966 14.1785 14.6911C15.2061 15.0283 16.3126 15.5925 16.9632 16.7852C17.4007 17.5873 17.5456 18.5121 17.5203 19.5109C17.5131 19.7981 17.4915 20.1002 17.4561 20.418L17.5959 20.3831C18.4889 20.1598 19.3938 20.7028 19.617 21.5958C19.7466 22.1141 19.618 22.6364 19.3127 23.0271ZM30.9297 26.8544C31.1942 27.7361 30.6939 28.6652 29.8122 28.9297L23.1456 30.9297C22.2639 31.1942 21.3348 30.6939 21.0703 29.8122C20.8058 28.9306 21.3061 28.0015 22.1878 27.737L28.8544 25.737C29.7361 25.4725 30.6652 25.9728 30.9297 26.8544Z" fill="var(--fill-0, #141414)"/>
</g>
</svg>
