<svg preserveAspectRatio="none" width="100%" height="100%" overflow="visible" style="display: block;" viewBox="0 0 32 32" fill="none" xmlns="http://www.w3.org/2000/svg">
<g id="Frame">
<path id="Vector" fill-rule="evenodd" clip-rule="evenodd" d="M6.09339 23.8209C7.00917 22.3892 8.96999 22.4361 9.9436 23.6824C11.2636 25.3721 13.1062 27 16.0003 27C18.9451 27 20.7599 25.6949 22.0068 24.0279C22.9668 22.7447 25.0545 22.5351 26.0611 24.058C26.8944 25.3188 27.7984 26.3075 29.5629 26.7232C30.1005 26.8499 30.4336 27.3883 30.3069 27.9259C30.1803 28.4635 29.6417 28.7965 29.1043 28.6699C26.6349 28.088 25.3608 26.6256 24.3925 25.1607C24.3165 25.0459 24.2025 24.9875 24.0544 24.9903C23.8964 24.9932 23.7248 25.0703 23.6084 25.226C22.0515 27.3072 19.6805 29 16.0003 29C12.2101 29 9.85168 26.8135 8.36753 24.9137C8.27189 24.7912 8.14709 24.7447 8.03975 24.7469C7.93851 24.7492 7.84589 24.7928 7.7782 24.8987C6.79221 26.4401 5.51905 28.0519 2.89624 28.6699C2.35868 28.7965 1.82021 28.4635 1.69355 27.9259C1.56688 27.3883 1.89997 26.8499 2.43755 26.7232C4.30547 26.2831 5.21033 25.2015 6.09339 23.8209Z" fill="var(--fill-0, #141414)"/>
<path id="Vector_2" d="M29.5629 20.0565C27.7984 19.6408 26.8944 18.6521 26.0611 17.3913C25.1271 15.9783 23.2625 16.0568 22.2315 17.1004L20.6669 15.3333L12.0012 5.51223C11.2781 4.69276 10.0136 4.65328 9.24084 5.42605C8.54079 6.12611 8.49773 7.24709 9.14203 7.99877L10.459 9.53523C11.2649 10.4755 9.96947 12.5518 9.96947 12.5518L6.66471 16.5329C6.44916 16.6951 6.255 16.9016 6.09339 17.1543C5.21033 18.5348 4.30547 19.6164 2.43755 20.0565C1.89997 20.1832 1.56688 20.7216 1.69355 21.2592C1.82021 21.7968 2.35868 22.1299 2.89624 22.0032C5.51905 21.3852 6.79221 19.7735 7.7782 18.232C7.84589 18.1261 7.93851 18.0825 8.03975 18.0803C8.14709 18.078 8.27189 18.1245 8.36753 18.2471C9.85168 20.1468 12.2101 22.3333 16.0003 22.3333C19.6805 22.3333 22.0515 20.6405 23.6084 18.5593C23.7248 18.4036 23.8964 18.3265 24.0544 18.3236C24.2025 18.3208 24.3165 18.3792 24.3925 18.494C25.3608 19.9589 26.6349 21.4213 29.1043 22.0032C29.6417 22.1299 30.1803 21.7968 30.3069 21.2592C30.4336 20.7216 30.1005 20.1832 29.5629 20.0565Z" fill="var(--fill-0, #141414)"/>
<path id="Vector_3" d="M22.6669 10.6667C24.5079 10.6667 26.0003 9.17428 26.0003 7.33333C26.0003 5.49239 24.5079 4 22.6669 4C20.826 4 19.3336 5.49239 19.3336 7.33333C19.3336 9.17428 20.826 10.6667 22.6669 10.6667Z" fill="var(--fill-0, #141414)"/>
</g>
</svg>
