<svg preserveAspectRatio="none" width="100%" height="100%" overflow="visible" style="display: block;" viewBox="0 0 32 32" fill="none" xmlns="http://www.w3.org/2000/svg">
<g id="meditation">
<path id="Vector" d="M14.6667 12.6667V20.6667M17.3328 20.6667L17.3333 12.6667M21.3333 28.6667C16 26.9694 5.33333 23.1676 5.33333 21.5382C5.33333 19.7724 12.0137 21.0682 14.9501 22.1079C15.6191 22.3447 16.3809 22.3447 17.0499 22.1079C19.9863 21.0682 26.6667 19.7724 26.6667 21.5382C26.6667 23.1676 16 26.9694 10.6667 28.6667M4 16.6667C10.4 16.6667 12 12.7194 13.6 11.9274C15.2 11.1354 16.8 11.1352 18.4 11.9276C20 12.72 21.6 16.6667 28 16.6667M17.6667 5.66667C17.6667 6.58714 16.9205 7.33333 16 7.33333C15.0795 7.33333 14.3333 6.58714 14.3333 5.66667C14.3333 4.74619 15.0795 4 16 4C16.9205 4 17.6667 4.74619 17.6667 5.66667Z" stroke="var(--stroke-0, #141414)" stroke-width="2.5" stroke-linecap="round" stroke-linejoin="round"/>
</g>
</svg>
