<svg preserveAspectRatio="none" width="100%" height="100%" overflow="visible" style="display: block;" viewBox="0 0 32 32" fill="none" xmlns="http://www.w3.org/2000/svg">
<g id="Frame">
<path id="Vector" d="M18.6667 7.33333C18.6667 9.17428 17.1743 10.6667 15.3333 10.6667C13.4924 10.6667 12.0001 9.17428 12.0001 7.33333C12.0001 5.49239 13.4924 4 15.3333 4C17.1743 4 18.6667 5.49239 18.6667 7.33333Z" fill="var(--fill-0, #141414)"/>
<path id="Vector_2" fill-rule="evenodd" clip-rule="evenodd" d="M25.3333 8.33301C25.8857 8.33301 26.3333 8.78073 26.3333 9.33301V27.9997C26.3333 28.5519 25.8857 28.9997 25.3333 28.9997C24.7811 28.9997 24.3333 28.5519 24.3333 27.9997V14.6585C22.0753 15.9729 19.2747 16.0883 16.8861 14.8941C16.8632 14.8826 16.8408 14.8703 16.8188 14.8571C15.8979 14.3046 14.7151 14.8985 14.6083 15.9671L14.5168 16.8819C14.4392 17.657 14.8083 18.409 15.4688 18.8218L15.9132 19.0995C18.2471 20.5581 19.762 23.0265 20.0059 25.7678L20.1965 27.911C20.2456 28.4611 19.8393 28.9467 19.2892 28.9957C18.7391 29.0447 18.2535 28.6383 18.2045 28.0883L18.0137 25.9451C17.8255 23.8281 16.6555 21.9219 14.8532 20.7955L14.4088 20.5178C13.103 19.7017 12.3735 18.2151 12.5267 16.683L12.6182 15.7682C12.8696 13.2542 15.6376 11.8508 17.8109 13.1203C19.8793 14.1397 22.3556 13.8461 24.1288 12.3684L24.3333 12.1979V9.33301C24.3333 8.78073 24.7811 8.33301 25.3333 8.33301ZM12.2543 21.0325C12.7884 21.1729 13.1076 21.7197 12.9672 22.2538L12.0001 21.9997C12.9672 22.2538 12.9672 22.2538 12.9672 22.2538L12.9664 22.257L12.9647 22.2631L12.959 22.2846L12.9378 22.3621C12.9195 22.4281 12.8928 22.5223 12.8585 22.6385C12.7901 22.8703 12.6905 23.1919 12.5656 23.553C12.3234 24.2527 11.9579 25.1838 11.5043 25.8793C11.0278 26.6099 10.2797 27.3481 9.7028 27.8703C9.40513 28.1398 9.13455 28.3681 8.93807 28.5294C8.83961 28.6102 8.75924 28.6746 8.70271 28.7194L8.6364 28.7717L8.61792 28.7859L8.61092 28.7914C8.61092 28.7914 8.60993 28.7922 8.00005 27.9997L8.61092 28.7914C8.17324 29.1282 7.54439 29.0473 7.20756 28.6095C6.8708 28.1719 6.95245 27.5443 7.38989 27.2074L7.39291 27.205L7.40592 27.1949L7.46056 27.1519C7.50901 27.1135 7.5804 27.0563 7.66909 26.9835C7.84691 26.8375 8.09213 26.6306 8.36057 26.3875C8.91587 25.8849 9.50109 25.2897 9.82911 24.7867C10.1414 24.3078 10.4426 23.5722 10.6756 22.8989C10.7882 22.5734 10.8784 22.2819 10.9403 22.0722C10.9712 21.9677 10.9949 21.8841 11.0106 21.8274L11.028 21.7638L11.0321 21.7486L11.0329 21.7455C11.1734 21.2115 11.7202 20.8922 12.2543 21.0325Z" fill="var(--fill-0, #141414)"/>
</g>
</svg>
