<svg preserveAspectRatio="none" width="100%" height="100%" overflow="visible" style="display: block;" viewBox="0 0 32 32" fill="none" xmlns="http://www.w3.org/2000/svg">
<g id="skateboarding">
<path id="Vector" fill-rule="evenodd" clip-rule="evenodd" d="M19.6665 1.66667C17.8256 1.6667 16.3332 3.15907 16.3332 5C16.3331 6.84097 17.8255 8.33337 19.6665 8.33333C21.5074 8.3333 22.9998 6.84092 22.9998 5C22.9999 3.15902 21.5075 1.66663 19.6665 1.66667ZM2.66667 5.66667C1.74619 5.66667 1 6.41286 1 7.33333C1 8.25381 1.74619 9 2.66667 9C4.37036 9 7.73616 9.3182 10.6427 10.0349C11.4543 10.235 12.1944 10.4578 12.8335 10.6981C12.3289 11.188 11.8809 11.6603 11.504 12.1111C10.8566 12.8855 10.2115 13.8333 10.0799 14.8544C10.0058 15.4288 10.0912 16.0563 10.4476 16.6313C10.6347 16.9332 10.8689 17.1759 11.1228 17.3711C11.0088 17.4812 10.893 17.5915 10.7755 17.7019C8.1194 20.197 4.77263 22.5735 1.98975 23.8103C1.52603 24.0164 1.18147 24.4226 1.0537 24.9137C0.925923 25.4048 1.02886 25.9274 1.33333 26.3333L3.33333 29C3.88562 29.7364 4.93029 29.8856 5.66667 29.3333C6.40305 28.781 6.55229 27.7364 6 27L5.19756 25.9301C7.90668 24.4375 10.7489 22.3003 13.0577 20.1314C13.6903 19.5371 14.2922 18.9318 14.8472 18.3273C15.0069 18.3314 15.169 18.3333 15.3331 18.3333C16.4055 18.3333 17.1949 18.3618 17.7584 18.4382L17.7445 18.4619C17.2719 19.2656 16.3249 20.4589 14.7541 22.226C14.3181 22.7166 14.2105 23.4173 14.4794 24.0161C14.5306 24.13 14.5936 24.2362 14.6665 24.3335H11.3333C10.4129 24.3335 9.66667 25.0797 9.66667 26.0002C9.66667 26.9207 10.4129 27.6668 11.3333 27.6668H12.6873C12.8513 28.9823 13.9735 30.0002 15.3333 30.0002C16.6932 30.0002 17.8153 28.9823 17.9794 27.6668H21.354C21.518 28.9823 22.6401 30.0002 24 30.0002C25.3601 30.0002 26.4824 28.982 26.6461 27.6662C28.0672 27.6423 29.3883 26.9224 30.1784 25.7372L30.7201 24.9247C31.2307 24.1588 31.0237 23.124 30.2578 22.6134C29.492 22.1028 28.4572 22.3098 27.9466 23.0757L27.4049 23.8882C27.2194 24.1664 26.9072 24.3335 26.5728 24.3335H19.9999C20.2092 24.0549 20.3332 23.7086 20.3332 23.3333C20.3332 22.6886 19.9672 22.1294 19.4316 21.8522C19.923 21.2218 20.3209 20.6566 20.6179 20.1515C20.943 19.5986 21.232 18.9797 21.3206 18.3342C21.4202 17.6076 21.2615 16.8217 20.6718 16.193C19.9876 15.4637 18.9835 15.2446 18.2572 15.1421C17.9744 15.1022 17.6692 15.0729 17.3451 15.0516C17.5697 14.6651 17.7709 14.2672 17.9321 13.8645C19.2977 14.3016 20.7638 14.3313 22.053 14.0568C24.4372 13.5491 26.9998 11.7747 26.9998 8.66663C26.9998 7.74616 26.2536 6.99996 25.3332 6.99996C24.4127 6.99996 23.6665 7.74616 23.6665 8.66663C23.6665 9.5586 22.9351 10.4609 21.3588 10.7965C19.9002 11.1071 18.3997 10.7361 17.5336 9.82166C17.4697 9.74227 17.4032 9.6654 17.3346 9.59099C17.3024 9.55414 17.269 9.51903 17.2345 9.48567C16.8008 9.04261 16.2957 8.69176 15.8296 8.42204C14.6033 7.71245 13.0205 7.18801 11.4407 6.79847C8.26384 6.01514 4.62964 5.66667 2.66667 5.66667Z" fill="var(--fill-0, #141414)"/>
</g>
</svg>
