<svg preserveAspectRatio="none" width="100%" height="100%" overflow="visible" style="display: block;" viewBox="0 0 32 32" fill="none" xmlns="http://www.w3.org/2000/svg">
<g id="rock_climbing">
<path id="Vector" fill-rule="evenodd" clip-rule="evenodd" d="M15.176 1.92131C15.5876 1.09801 16.5887 0.764306 17.412 1.17595L25.7201 5.33001C27.7303 6.33507 29 8.38956 29 10.6369V29.3333C29 30.2538 28.2538 31 27.3333 31C26.4129 31 25.6667 30.2538 25.6667 29.3333V22.0237L24.5118 23.1785C24.1079 23.5825 23.5251 23.7514 22.9677 23.6261C22.4103 23.5007 21.9559 23.0986 21.7638 22.5606C21.6793 22.3241 21.5978 22.0955 21.5189 21.8744C20.8064 19.8769 20.3135 18.495 19.8913 17.5363C19.6783 17.0525 19.514 16.7498 19.3884 16.5638C19.2766 16.6087 19.1094 16.6844 18.8724 16.8118C18.5172 17.0027 18.1031 17.251 17.567 17.5725L17.482 17.6235C16.9176 17.9619 16.2517 18.3593 15.4761 18.7903C15.2362 18.9235 15.0006 19.0495 14.7692 19.1677C15.221 20.9141 15.4528 22.5186 14.9108 23.8721C14.3073 25.3791 12.965 26.0906 11.6764 26.5887C10.9324 26.8762 9.96564 27.1733 8.87547 27.5083C8.70744 27.56 8.53648 27.6125 8.36296 27.666L8.82397 28.5878C9.2357 29.4111 8.9021 30.4122 8.07885 30.824C7.25559 31.2357 6.25444 30.9021 5.8427 30.0788L4.50923 27.4126C4.29266 26.9796 4.27509 26.4738 4.4611 26.0268C4.6471 25.5798 5.01829 25.2358 5.47812 25.0842C6.49675 24.7484 7.35215 24.4872 8.09041 24.2616C9.04904 23.9688 9.81017 23.7363 10.4747 23.4795C11.6104 23.0405 11.7632 22.7655 11.8164 22.6328C11.9155 22.3853 11.9789 21.7959 11.6131 20.286C11.5216 20.2987 11.431 20.309 11.3414 20.3167C10.7127 20.3711 10.0733 20.3068 9.4717 20.0474C8.85859 19.7831 8.38956 19.3611 8.04635 18.8654C7.41133 17.9481 7.19891 16.7626 7.10088 15.7061C6.99996 14.6184 6.99998 13.3458 7 12.0564L7 12C7 11.2473 7.50448 10.588 8.231 10.3913C10.0801 9.89051 11.4204 9.49502 12.4299 9.0959C13.4335 8.69914 13.9862 8.34488 14.3377 7.99142C14.9595 7.3662 15.2725 6.44777 15.5849 3.93507C15.0147 3.44954 14.826 2.62118 15.176 1.92131ZM18.7287 5.56107C18.5498 6.70126 18.3062 7.72393 17.8867 8.62432C18.6393 8.00003 19.1313 7.17496 19.5729 5.98315L18.7287 5.56107ZM22.5682 7.48084C21.8592 9.26695 20.8331 10.8468 18.8787 11.9785C17.4083 12.8299 15.5074 13.369 13.016 13.6733C13.2954 14.4794 13.5511 15.2264 13.7812 15.9185C13.8064 15.9046 13.8317 15.8906 13.8573 15.8764C14.5816 15.474 15.2074 15.1006 15.768 14.7646C15.8063 14.7416 15.8445 14.7187 15.8825 14.6959C16.3877 14.3929 16.8669 14.1054 17.2942 13.8757C18.0725 13.4574 19.3325 12.833 20.641 13.3782C21.2788 13.644 21.7303 14.1091 22.0619 14.5706C22.3907 15.0284 22.6746 15.5858 22.9419 16.1929C23.2617 16.919 23.6102 17.841 24.0158 18.9605L24.1548 18.8215C24.5655 18.4108 25.1372 18.2593 25.6667 18.3668V10.6369C25.6667 9.65214 25.1103 8.75185 24.2294 8.31143L22.5682 7.48084ZM5 5.66667C5 3.82572 6.49239 2.33333 8.33333 2.33333C10.1743 2.33333 11.6667 3.82572 11.6667 5.66667C11.6667 7.50762 10.1743 9 8.33333 9C6.49239 9 5 7.50762 5 5.66667Z" fill="var(--fill-0, #141414)"/>
</g>
</svg>
