<svg preserveAspectRatio="none" width="100%" height="100%" overflow="visible" style="display: block;" viewBox="0 0 32 32" fill="none" xmlns="http://www.w3.org/2000/svg">
<g id="kayaking" clip-path="url(#clip0_0_153)">
<path id="Vector" fill-rule="evenodd" clip-rule="evenodd" d="M13.2759 0.0180821C14.2313 -0.307438 15.1745 -0.120289 15.9432 0.323477C16.7118 0.767244 17.3455 1.49052 17.5413 2.48071C17.7296 3.43293 17.4597 4.3635 16.9966 5.16557C16.764 5.56844 16.4606 5.89602 16.1359 6.16186C17.6421 7.16768 19.2621 8.46534 20.4679 10.0365C21.3276 11.1567 22.0236 12.4756 22.2749 13.9775C22.3504 14.4291 22.3841 14.8878 22.373 15.3522C23.6399 16.1455 24.8167 16.9042 25.7407 17.6215C26.6301 18.3118 27.6003 19.192 27.9867 20.2726C28.2085 20.8929 28.2445 21.5947 27.9691 22.2922C27.7098 22.9486 27.2373 23.4422 26.7376 23.8152C25.9974 24.3676 24.9602 24.8287 23.6736 25.2435C24.9281 25.1806 26.3314 25.101 27.8961 25.0032C28.7459 24.9501 29.4868 25.5437 29.6384 26.3602C30.1701 26.4597 30.6432 26.8157 30.8691 27.3514C31.2267 28.1995 30.829 29.177 29.9809 29.5346C29.0188 29.9403 25.6526 31 16.6667 31C7.67477 31 4.31592 29.9338 3.36221 29.5387C2.51183 29.1864 2.10806 28.2114 2.46037 27.361C2.81268 26.5106 3.78765 26.1068 4.63803 26.4591C4.95586 26.5908 7.01702 27.3493 12.8432 27.592C12.8381 27.5838 12.8331 27.5756 12.8281 27.5672C12.3998 26.8555 12.5726 26.1202 12.8501 25.6735C13.0702 25.3193 13.3663 25.1022 13.5223 24.9966C13.868 24.7628 14.3058 24.5716 14.7022 24.4173C15.1275 24.2517 15.628 24.0825 16.1673 23.9131C17.4597 23.5072 19.1107 23.0586 20.7433 22.6151C21.0174 22.5406 21.291 22.4663 21.5623 22.3923C21.9369 22.2902 22.2746 22.1904 22.5785 22.0937C22.2474 21.7934 21.8457 21.4784 21.4367 21.1809C21.0379 20.8909 20.6529 20.6325 20.3549 20.4391C19.6663 21.213 18.8513 21.787 17.948 22.1771C16.5137 22.7964 14.9572 22.9103 13.4901 22.7727C11.058 22.5447 8.60757 21.6005 6.74524 20.6473C6.85915 21.3792 6.93651 22.5902 6.3302 23.6403C5.86712 24.4424 5.19619 25.1414 4.27739 25.4545C3.32195 25.78 2.37874 25.5928 1.61011 25.1491C0.841486 24.7053 0.207804 23.982 0.0119923 22.9918C-0.17631 22.0396 0.093616 21.1091 0.556693 20.307C1.20003 19.1927 2.38501 18.6545 3.06308 18.4051C3.28997 18.3216 3.5056 18.2546 3.69684 18.2014L10.9697 5.60446C10.9201 5.41228 10.8703 5.19202 10.8292 4.95379C10.7061 4.24187 10.5798 2.94653 11.2231 1.83224C11.6862 1.03016 12.3571 0.331119 13.2759 0.0180821ZM13.2686 8.28933L7.94356 17.5125C9.60939 18.4031 11.7927 19.2656 13.8013 19.454C14.9056 19.5575 15.8598 19.4479 16.6266 19.1168C17.3584 18.8008 18.0145 18.2446 18.5096 17.2543C19.0266 16.2203 19.1205 15.3239 18.9872 14.5275C18.8499 13.7066 18.4519 12.8846 17.8236 12.0659C16.6703 10.5632 14.903 9.27767 13.2686 8.28933ZM11.3336 14.9996C11.3336 13.1587 12.826 11.6663 14.6669 11.6663C16.5079 11.6663 18.0003 13.1586 18.0003 14.9996C18.0002 16.8406 16.5078 18.3329 14.6669 18.333C12.8259 18.333 11.3336 16.8406 11.3336 14.9996Z" fill="var(--fill-0, #141414)"/>
</g>
<defs>
<clipPath id="clip0_0_153">
<rect width="32" height="32" fill="white"/>
</clipPath>
</defs>
</svg>
