<svg preserveAspectRatio="none" width="100%" height="100%" overflow="visible" style="display: block;" viewBox="0 0 32 32" fill="none" xmlns="http://www.w3.org/2000/svg">
<g id="Frame">
<path id="Vector" d="M21.3333 5.33366C21.3333 6.80642 20.1395 8.00033 18.6667 8.00033C17.1939 8.00033 16 6.80642 16 5.33366C16 3.8609 17.1939 2.66699 18.6667 2.66699C20.1395 2.66699 21.3333 3.8609 21.3333 5.33366Z" fill="var(--fill-0, #141414)"/>
<path id="Vector_2" fill-rule="evenodd" clip-rule="evenodd" d="M14.5587 11.3413C13.35 10.3791 11.5678 10.7228 10.8037 12.0654C10.0639 13.3651 10.6138 15.0192 11.9844 15.6173L16.1053 17.4155C17.8789 18.1895 18.6952 20.2497 17.9329 22.0284L16.9192 24.3939C16.7016 24.9016 16.1137 25.1367 15.6061 24.9192C15.0984 24.7016 14.8633 24.1137 15.0808 23.6061L16.0947 21.2405C16.4239 20.4725 16.0713 19.5828 15.3055 19.2485L11.1846 17.4504C8.72484 16.3771 7.73796 13.4085 9.06548 11.0761C10.4369 8.66663 13.6352 8.04984 15.8043 9.77653L18.6821 12.0674C18.8984 12.2396 19.1667 12.3333 19.4431 12.3333H24.6667C25.2189 12.3333 25.6667 12.7811 25.6667 13.3333C25.6667 13.8856 25.2189 14.3333 24.6667 14.3333H19.4431C18.7141 14.3333 18.0068 14.0861 17.4364 13.6321L14.5587 11.3413ZM8 21C6.34315 21 5 22.3432 5 24C5 25.6568 6.34315 27 8 27C9.65685 27 11 25.6568 11 24C11 22.3432 9.65685 21 8 21ZM3 24C3 21.2385 5.23857 19 8 19C10.7614 19 13 21.2385 13 24C13 26.7615 10.7614 29 8 29C5.23857 29 3 26.7615 3 24ZM24 21C22.3432 21 21 22.3432 21 24C21 25.6568 22.3432 27 24 27C25.6568 27 27 25.6568 27 24C27 22.3432 25.6568 21 24 21ZM19 24C19 21.2385 21.2385 19 24 19C26.7615 19 29 21.2385 29 24C29 26.7615 26.7615 29 24 29C21.2385 29 19 26.7615 19 24Z" fill="var(--fill-0, #141414)"/>
</g>
</svg>
