<svg preserveAspectRatio="none" width="100%" height="100%" overflow="visible" style="display: block;" viewBox="0 0 9.81652 14" fill="none" xmlns="http://www.w3.org/2000/svg">
<path id="Vector 2" d="M0 9.26471C0 11.7696 0.892124 12.9302 2.74503 14C2.12745 12.9706 2.05882 11.4608 3.29412 10.4657C3.22549 11.0147 3.36275 11.2549 3.67157 11.2549C3.98039 11.2549 4.08164 10.9213 3.98039 10.4657C3.70588 9.23039 4.08333 7.68627 4.46078 7.34314C4.32353 7.9951 4.46078 8.30392 4.59804 8.57843C5.07843 9.43627 7.13719 10.2255 7.51471 12.0098C7.65196 12.799 7.44608 13.3824 7.13719 13.9314C9.71078 12.6618 10.1224 10.2255 9.64209 8.20098C9.16177 6.17647 7.20582 5.31863 7.20582 5.31863C7.20582 5.31863 7.51471 6.07353 7.4117 6.45098C7.3167 6.79907 6.9819 6.9631 6.62248 6.93137C6.2721 6.90044 5.994 6.695 5.93621 6.34804C5.87334 5.97059 5.98186 5.50727 5.90196 4.76961C5.45595 0.651961 3.9117 0 3.9117 0C3.9117 0 4.46065 1.5098 3.80876 2.88235C3.15686 4.2549 0 6.7598 0 9.26471Z" fill="url(#paint0_linear_0_83)"/>
<defs>
<linearGradient id="paint0_linear_0_83" x1="6.62255" y1="2.99792e-07" x2="2.26471" y2="14" gradientUnits="userSpaceOnUse">
<stop stop-color="#F5740E"/>
<stop offset="1" stop-color="#FF4508"/>
</linearGradient>
</defs>
</svg>
