<svg preserveAspectRatio="none" width="100%" height="100%" overflow="visible" style="display: block;" viewBox="0 0 81.951 64.0384" fill="none" xmlns="http://www.w3.org/2000/svg">
<g id="g3074">
<path id="path14" d="M6.0309 0.116306C6.00997 0.189563 5.90531 0.608176 5.81112 1.03725C5.71694 1.46633 5.58089 2.05239 5.49716 2.34542C4.6704 5.45362 4.56575 7.77693 5.19367 9.43045C5.66461 10.7072 5.92624 11.1782 6.12508 11.1782C6.37625 11.1886 7.40185 9.52463 7.82047 8.41531C8.49025 6.68853 8.52164 6.53155 8.52164 4.89896C8.53211 3.2559 8.51118 3.18265 7.82047 1.79076C7.61116 1.38261 7.25534 0.901205 6.88905 0.555849C6.29253 -0.0197438 6.09369 -0.113931 6.0309 0.116306Z" fill="var(--fill-0, #C4C6D4)"/>
<path id="path16" d="M75.2278 0.430806C74.4324 1.18431 74.0138 1.81223 73.6684 2.83783C73.365 3.71692 73.344 5.98789 73.6266 6.9507C74.1603 8.78214 75.4685 11.231 75.8662 11.1578C76.0127 11.1368 76.4313 10.4043 76.7034 9.72402C76.9336 9.12749 77.2371 7.47397 77.2371 6.79372C77.2371 5.98789 76.9336 4.20879 76.4522 2.29363C76.379 1.97967 76.222 1.34129 76.1173 0.891281C76.0022 0.430807 75.8766 0.0435898 75.8138 0.0226592C75.7615 0.00172852 75.4999 0.190104 75.2278 0.430806Z" fill="var(--fill-0, #C4C6D4)"/>
<path id="path18" d="M1.00787 7.80913C0.903222 7.91378 0.934618 9.1173 1.04974 9.73475C1.11253 10.0487 1.20672 10.6766 1.25904 11.1371C1.48928 13.2406 2.09627 15.4174 2.8707 16.9454C3.46723 18.1384 4.83818 19.5512 5.41378 19.5617C5.61262 19.5617 5.64401 19.4884 5.71727 18.8501C5.88472 17.2384 5.64401 14.5593 5.16261 12.8639C4.52422 10.572 3.32071 8.75101 2.07534 8.17542C1.3323 7.84053 1.07067 7.74634 1.00787 7.80913Z" fill="var(--fill-0, #C4C6D4)"/>
<path id="path20" d="M80.4812 7.90305C79.5707 8.19608 78.5661 9.08563 77.9382 10.1322C76.7032 12.2148 76.0125 15.6683 76.2428 18.6195C76.3265 19.687 76.4207 19.7707 77.0591 19.3312C78.5661 18.2846 79.4975 16.6521 80.1987 13.8578C80.4917 12.7171 80.6905 11.6601 80.6905 11.3461C80.6905 11.1682 80.7638 10.6659 80.8475 10.2159C80.9312 9.76588 81.0045 9.04377 81.0045 8.61469C81.0045 7.79839 80.9626 7.74607 80.4812 7.90305Z" fill="var(--fill-0, #C4C6D4)"/>
<path id="path22" d="M10.6255 12.9368C9.24409 14.674 7.96732 17.1438 7.4022 19.1427C6.96265 20.6706 6.91033 21.016 6.91033 22.3974C6.91033 24.187 7.10917 24.8568 7.94639 25.9347C8.28128 26.3638 8.31268 26.3742 8.44873 26.1963C8.59524 25.9975 10.2592 22.6277 10.5523 21.9683C10.636 21.7695 10.772 21.466 10.8453 21.309C10.929 21.1416 10.9918 20.9427 10.9918 20.8485C10.9918 20.7648 11.0546 20.566 11.1383 20.4195C11.2953 20.116 11.5046 19.4462 11.7558 18.4625C12.1639 16.8717 12.2476 15.4066 11.9965 14.224C11.85 13.4914 11.3581 12.3402 11.1906 12.3402C11.1383 12.3402 10.8871 12.6123 10.6255 12.9368Z" fill="var(--fill-0, #C4C6D4)"/>
<path id="path24" d="M70.5707 12.6223C70.1626 13.2398 69.8068 14.6944 69.8068 15.6887C69.8172 16.6933 70.1835 18.6817 70.4975 19.4352C70.5812 19.6236 70.644 19.8434 70.644 19.9271C70.644 20.0108 70.7068 20.2306 70.7905 20.419C70.8742 20.6074 71.0417 21.026 71.1672 21.3399C71.7952 22.9097 73.4696 26.2586 73.6266 26.2586C73.9092 26.2586 74.558 25.2854 74.872 24.3958C75.029 23.9563 75.0708 23.5272 75.0603 22.4283C75.0603 20.9422 74.9348 20.2201 74.4429 18.7759C74.2964 18.3678 74.1499 17.8968 74.0975 17.7294C73.7208 16.5049 71.1882 12.3397 70.8114 12.3397C70.78 12.3397 70.6649 12.4653 70.5707 12.6223Z" fill="var(--fill-0, #C4C6D4)"/>
<path id="path26" d="M0.0662993 15.8773C-0.0592846 15.9924 0.00350735 18.0436 0.170953 19.132C0.369794 20.5343 0.610496 21.7797 0.798872 22.3867C1.07097 23.2972 1.364 24.1763 1.45819 24.3542C1.92913 25.2856 2.08611 25.5682 2.47332 26.1647C2.94426 26.8763 4.53499 28.488 4.95361 28.6659C5.07919 28.7287 5.38269 28.8961 5.63385 29.0427C6.2827 29.4194 6.40829 29.3357 6.32457 28.5926C6.14665 26.7926 5.42455 23.6216 4.84895 22.1251C4.76523 21.8948 4.61872 21.5181 4.52453 21.2878C4.33615 20.796 4.02219 20.1157 3.84428 19.8227C3.11171 18.6087 2.68263 18.0331 2.05471 17.3738C1.32214 16.6203 0.181418 15.7517 0.0662993 15.8773Z" fill="var(--fill-0, #C4C6D4)"/>
<path id="path28" d="M81.1093 16.3385C80.1779 17.0397 79.7279 17.4897 79.0686 18.3688C77.75 20.106 76.7767 22.5445 76.1488 25.6317C75.9185 26.762 75.6883 28.112 75.6255 28.6981C75.5522 29.3574 75.6883 29.3993 76.4732 28.9702C77.729 28.2795 78.9953 27.0341 79.8221 25.6841C80.0419 25.3282 80.6907 23.9573 80.6907 23.8526C80.6907 23.8003 80.7535 23.6015 80.8372 23.4131C81.1617 22.6596 81.507 21.1526 81.7896 19.2793C81.957 18.17 82.0093 15.9408 81.8733 15.8676C81.821 15.8362 81.4861 16.056 81.1093 16.3385Z" fill="var(--fill-0, #C4C6D4)"/>
<path id="path30" d="M11.1483 24.1031C11.0646 24.302 10.9913 24.595 10.9913 24.752C10.9913 24.8985 10.9076 25.3171 10.8134 25.6729C10.5518 26.6567 10.5518 31.3347 10.8134 32.4335C11.2739 34.3068 11.4937 34.9243 12.1425 36.3057C12.7704 37.6453 14.0995 39.6546 14.3507 39.6546C14.5809 39.6546 14.874 38.8278 15.0728 37.6139C15.1147 37.3208 15.2089 36.8813 15.2926 36.6197C15.5019 35.8662 15.4705 31.837 15.2403 30.9684C14.7065 28.9277 14.1728 27.5672 13.503 26.5206C13.3879 26.3427 13.2518 26.1125 13.1995 25.9974C13.0321 25.652 11.5774 23.8206 11.4309 23.7682C11.3576 23.7473 11.232 23.8938 11.1483 24.1031Z" fill="var(--fill-0, #C4C6D4)"/>
<path id="path32" d="M69.8279 24.5531C69.2 25.338 68.3209 26.6776 68.122 27.1381C68.0697 27.2532 67.986 27.4311 67.9336 27.5148C67.5569 28.1532 67.0546 29.6183 66.7092 31.0626C66.4894 32.0044 66.458 35.7406 66.6673 36.515C66.7406 36.7766 66.8348 37.2476 66.8871 37.5615C67.0336 38.5243 67.3371 39.4662 67.5255 39.5918C67.672 39.6755 67.7453 39.6546 67.8709 39.4976C68.0697 39.236 68.9802 37.8859 69.1372 37.6138C69.4197 37.1324 70.3302 35.2696 70.3302 35.165C70.3302 35.1022 70.393 34.9033 70.4767 34.7149C71.2407 32.9149 71.5756 30.0369 71.3349 27.3578C71.2512 26.4369 71.1256 25.5159 71.0732 25.3171C71.0105 25.1182 70.9581 24.8148 70.9581 24.6368C70.9581 24.2915 70.7593 23.8415 70.5814 23.7787C70.5186 23.7578 70.1732 24.1031 69.8279 24.5531Z" fill="var(--fill-0, #C4C6D4)"/>
<path id="path34" d="M0.0655217 27.808C-0.0286662 27.9545 0.421343 29.3569 0.871352 30.3406C1.61439 31.9837 3.21558 33.5849 5.30865 34.7884C5.75866 35.05 6.1982 35.3116 6.28193 35.364C6.95171 35.7616 10.4262 37.457 10.5832 37.457C10.7611 37.457 10.782 37.4047 10.7297 37.0593C10.6146 36.3791 10.3529 35.6151 9.87153 34.5791C9.0971 32.8941 7.44358 31.272 5.07841 29.8487C4.53422 29.5243 2.61906 28.6243 1.67718 28.2475C1.36322 28.1324 0.96554 27.9545 0.80856 27.8708C0.47367 27.7033 0.149244 27.6824 0.0655217 27.808Z" fill="var(--fill-0, #C4C6D4)"/>
<path id="path36" d="M81.1093 27.9018C80.9105 27.996 80.586 28.132 80.4081 28.2053C79.6337 28.5297 79.3093 28.6657 78.9848 28.8018C78.4825 29.0216 77.2162 29.6704 76.8081 29.9111C76.6092 30.0367 76.379 30.1623 76.2952 30.2041C76.1487 30.2669 75.8138 30.5076 74.8824 31.1983C74.3068 31.6379 73.051 32.967 72.6847 33.5321C72.2766 34.181 71.5859 35.6147 71.5859 35.824C71.5859 35.8973 71.5126 36.138 71.4289 36.3368C71.2196 36.8287 71.2196 37.4566 71.4184 37.4566C71.544 37.4566 75.3848 35.5519 76.2952 35.0391C78.2104 33.9507 79.9163 32.4228 80.7639 31.0204C81.2872 30.1623 82.0302 28.0483 81.8942 27.8285C81.8 27.682 81.5384 27.7134 81.1093 27.9018Z" fill="var(--fill-0, #C4C6D4)"/>
<path id="path38" d="M2.47361 35.9812C2.41082 36.0754 2.50501 36.4208 2.60966 36.515C2.64106 36.5464 2.78757 36.7347 2.93409 36.9336C4.21086 38.765 6.69114 41.1092 8.42838 42.1244C8.71095 42.2918 9.04584 42.4802 9.16096 42.5534C9.27607 42.6267 9.47492 42.7314 9.61097 42.7941C9.74701 42.8465 10.0924 43.0035 10.3959 43.1395C11.9238 43.8407 13.3785 44.2174 15.3878 44.4686C16.5181 44.6047 16.539 44.6047 16.539 44.4163C16.539 44.207 15.4506 42.5534 14.7076 41.643C13.8808 40.6383 11.6726 38.629 11.097 38.3673C11.0133 38.3255 10.804 38.1999 10.6261 38.0848C10.1761 37.8022 9.09816 37.2371 8.79467 37.1429C8.64815 37.0905 8.28187 36.9545 7.96791 36.8394C7.10975 36.515 5.83298 36.2324 4.60854 36.0963C2.65152 35.887 2.5364 35.8766 2.47361 35.9812Z" fill="var(--fill-0, #C4C6D4)"/>
<path id="path40" d="M78.7021 35.9494C75.7195 36.2215 74.338 36.5668 72.3705 37.5297C70.874 38.2727 69.8903 38.9634 68.6344 40.2088C67.1484 41.6635 65.2018 44.2902 65.432 44.531C65.5158 44.6042 67.3577 44.3949 68.2891 44.1961C69.9321 43.8507 70.8845 43.5158 72.4229 42.7414C73.1136 42.396 74.5787 41.496 74.7252 41.3286C74.7566 41.2972 74.9869 41.1088 75.2485 40.91C76.3578 40.0727 77.7602 38.618 78.7963 37.2471C79.6021 36.1692 79.6753 36.0226 79.4765 35.9494C79.3823 35.918 79.2567 35.8971 79.1939 35.9075C79.1207 35.9075 78.9009 35.9389 78.7021 35.9494Z" fill="var(--fill-0, #C4C6D4)"/>
<path id="path42" d="M16.7058 36.379C16.507 36.5883 16.9465 39.236 17.3861 40.5442C17.4489 40.7117 17.5431 40.9942 17.5849 41.1721C17.7733 41.8314 18.3594 43.2757 18.6314 43.7361C18.6838 43.8199 18.8408 44.1129 18.9873 44.385C19.3222 45.0024 19.9396 45.9652 20.1175 46.1536C20.1908 46.2373 20.4629 46.5618 20.7245 46.8757C21.6559 48.006 22.9955 49.2095 24.2932 50.0467C24.9106 50.4549 25.1095 50.5177 25.1304 50.2979C25.256 48.8537 24.6909 45.8606 23.9583 44.1024C23.7281 43.5373 23.1211 42.3338 22.9222 42.0094C22.8071 41.8314 22.6815 41.6221 22.6397 41.5384C22.4722 41.1617 21.5617 40.0628 20.7873 39.2779C20.0129 38.5035 18.328 37.143 18.15 37.143C18.1082 37.143 17.9931 37.0802 17.9093 36.9965C17.6268 36.7558 16.7686 36.3162 16.7058 36.379Z" fill="var(--fill-0, #C4C6D4)"/>
<path id="path44" d="M64.8356 36.5257C64.6681 36.6303 64.4484 36.7559 64.3646 36.7978C64.2809 36.8396 63.9983 37.0071 63.7367 37.185C62.0204 38.3257 60.2832 40.0211 59.3831 41.4339C58.5459 42.763 57.7087 44.6259 57.4575 45.7247C57.4157 45.9236 57.3319 46.3003 57.2691 46.5619C56.9656 47.7968 56.8296 48.7387 56.8296 49.5341C56.8296 50.005 56.861 50.4236 56.8924 50.4655C57.0494 50.6225 59.2262 48.9899 60.3355 47.8701C61.8948 46.3108 62.8786 44.8247 63.8832 42.5328C64.7205 40.6281 65.5786 36.7245 65.2437 36.4106C65.1914 36.3687 65.0135 36.421 64.8356 36.5257Z" fill="var(--fill-0, #C4C6D4)"/>
<path id="path46" d="M9.89223 44.688C9.21199 44.7718 8.54221 44.9915 8.35383 45.1799C8.28057 45.2532 8.17592 45.3055 8.11313 45.3055C7.94568 45.3055 7.53754 45.7555 7.53754 45.9544C7.53754 46.0799 9.09687 47.1997 9.73525 47.5346C9.81898 47.5765 10.0387 47.7021 10.2062 47.8172C10.3841 47.9323 10.6143 48.0683 10.7295 48.1311C10.8446 48.1939 11.2213 48.4032 11.5667 48.6021C12.3202 49.0416 14.7272 50.2242 15.3865 50.4858C15.6482 50.5905 16.004 50.7265 16.1714 50.7998C16.3493 50.8731 16.747 51.0091 17.061 51.0928C17.3749 51.187 17.9191 51.3335 18.2645 51.4382C19.1959 51.6998 21.6553 51.7103 22.2936 51.4382C23.0053 51.1452 23.0785 51.1033 23.1099 50.9254C23.1518 50.7161 21.7913 49.5126 20.1169 48.2986C19.761 48.0369 19.4471 47.8172 19.4261 47.8172C19.3948 47.8172 19.1017 47.6393 18.7668 47.4195C18.118 46.98 18.0238 46.9276 16.7784 46.3206C15.3761 45.6195 14.1726 45.1381 13.6074 45.0229C13.4609 44.9915 13.1365 44.9078 12.8749 44.8346C12.2783 44.6567 10.7085 44.5834 9.89223 44.688Z" fill="var(--fill-0, #C4C6D4)"/>
<path id="path48" d="M70.0685 44.6784C69.2627 44.7621 68.3836 44.9819 67.5045 45.3168C67.1906 45.4319 66.8034 45.5679 66.6569 45.6203C66.5103 45.6621 66.301 45.7458 66.1859 45.8086C66.0813 45.8714 65.6313 46.0912 65.2022 46.3005C63.2661 47.2424 61.0056 48.7808 59.3939 50.2564C58.6823 50.9157 58.6823 51.0727 59.3939 51.3448C61.0684 51.9727 63.9568 51.6274 66.615 50.4866C67.2743 50.1936 68.4046 49.6808 68.5511 49.5971C68.6348 49.5448 69.0848 49.3145 69.5453 49.0738C70.0058 48.8436 70.529 48.5506 70.6965 48.4459C70.8744 48.3308 71.1046 48.1947 71.2197 48.1319C71.3349 48.0691 71.5756 47.9331 71.743 47.818C71.9209 47.7029 72.1302 47.5773 72.2139 47.5354C72.2977 47.4936 72.6639 47.2633 73.0302 47.0121C73.3965 46.761 73.7105 46.5621 73.7419 46.5621C73.7733 46.5621 73.9303 46.4575 74.0977 46.3319C74.5582 45.997 74.5058 45.7249 73.8989 45.3272C73.6058 45.1493 73.3233 44.9923 73.2605 44.9923C73.1977 44.9923 73.0198 44.9295 72.8628 44.8458C72.507 44.6679 71.0209 44.5737 70.0685 44.6784Z" fill="var(--fill-0, #C4C6D4)"/>
<path id="path50" d="M26.7422 45.0446C26.6899 45.0655 26.512 45.1074 26.355 45.1388C25.9783 45.2225 25.9783 45.4841 26.3341 46.0074C26.4806 46.2272 26.648 46.4993 26.7004 46.6144C26.7527 46.7295 26.8887 46.9597 27.0039 47.1377C27.119 47.3051 27.255 47.5458 27.3178 47.6609C27.3806 47.776 27.5167 48.0063 27.6318 48.1842C27.7469 48.3516 27.883 48.5923 27.9457 48.7075C28.0085 48.8226 28.1341 49.0423 28.2388 49.1993C28.333 49.3563 28.6051 49.7749 28.8248 50.1412C29.8504 51.7843 31.4726 53.6471 32.6551 54.5576C33.3772 55.1122 34.4028 55.5936 35.2296 55.7611C36.0564 55.939 36.3599 55.8867 36.4017 55.5832C36.4541 55.2588 36.0773 54.0134 35.6378 52.9982C35.2296 52.0564 35.0203 51.6691 34.518 50.8738C34.3505 50.6226 34.2249 50.4028 34.2249 50.3714C34.2249 50.34 33.8796 49.8586 33.4505 49.304C32.1319 47.5772 30.447 46.1016 29.1493 45.526C28.4585 45.2225 27.0562 44.9399 26.7422 45.0446Z" fill="var(--fill-0, #C4C6D4)"/>
<path id="path52" d="M53.8473 45.2017C52.7484 45.4842 52.4344 45.6412 51.2309 46.5308C49.8704 47.525 48.4158 49.1994 47.3378 51.0099C47.1181 51.3762 46.1866 53.3018 46.0192 53.7309C45.7576 54.4112 45.4959 55.5309 45.5587 55.7089C45.6424 55.9077 46.0715 55.9182 46.8878 55.7298C48.8972 55.2902 51.0007 53.4169 53.0833 50.225C53.5124 49.5657 54.8729 47.3261 54.9775 47.0854C55.0194 47.0017 55.145 46.7819 55.2601 46.6145C55.3752 46.4366 55.5008 46.2273 55.5426 46.1435C55.574 46.0598 55.6892 45.8819 55.7938 45.7459C56.045 45.4214 55.9508 45.2331 55.4903 45.097C54.9775 44.961 54.7159 44.9714 53.8473 45.2017Z" fill="var(--fill-0, #C4C6D4)"/>
<path id="path54" d="M17.8465 52.9454C17.5011 52.9977 16.8941 53.0919 16.486 53.1443C14.058 53.5001 12.2266 54.6408 11.5463 56.2106C11.4731 56.3676 11.4521 56.5141 11.494 56.535C11.6405 56.6187 13.4929 56.9222 14.9162 57.0897C17.0092 57.3513 21.6768 57.3513 22.9221 57.0897C24.921 56.6815 26.4176 56.0432 27.2966 55.2164C27.8827 54.6513 27.956 54.4733 27.642 54.3164C27.2129 54.0757 25.3815 53.5838 24.021 53.3222C22.064 52.9559 19.0186 52.7675 17.8465 52.9454Z" fill="var(--fill-0, #C4C6D4)"/>
<path id="path56" d="M61.4352 52.8935C61.3514 52.9144 60.7131 52.9877 60.0223 53.0505C58.8293 53.1656 57.7723 53.333 56.7258 53.5947C56.4641 53.6575 56.0874 53.7412 55.8885 53.783C55.0722 53.9714 54.1094 54.3691 54.1094 54.5261C54.1094 54.6621 54.8525 55.4156 55.3129 55.7296C55.7211 56.0017 56.7886 56.5145 57.1967 56.6191C57.3746 56.661 57.6572 56.7447 57.8246 56.7971C58.0025 56.8598 58.5886 56.9959 59.1328 57.0901C60.5037 57.3517 64.941 57.3517 67.0341 57.0901C68.719 56.8912 70.3516 56.6087 70.4667 56.5145C70.7388 56.2738 69.3993 54.5889 68.6144 54.2017C68.3841 54.0761 68.112 53.94 68.0283 53.8982C67.4841 53.5842 66.155 53.2179 64.941 53.0505C64.0724 52.9354 61.7073 52.8202 61.4352 52.8935Z" fill="var(--fill-0, #C4C6D4)"/>
<path id="path58" d="M30.4569 56.7753C29.1801 56.9951 28.0603 57.2358 27.5789 57.4033C27.3382 57.487 27.0766 57.5498 26.9824 57.5498C26.8777 57.5498 26.6475 57.6126 26.4591 57.6963C26.2707 57.78 25.9045 57.9265 25.6428 58.0207C22.2521 59.3393 19.9811 61.4219 19.7299 63.4522C19.6671 63.9022 19.6881 64.0383 19.7927 64.0383C20.002 64.0383 22.3149 63.6197 23.6021 63.3476C24.0102 63.2638 24.4288 63.201 24.544 63.201C24.7428 63.201 25.4126 63.065 26.8463 62.7092C29.9231 61.9661 32.1837 60.9615 33.6174 59.6847C34.4965 58.9103 35.6163 57.2253 35.3965 57.0056C35.0093 56.6184 32.215 56.4823 30.4569 56.7753Z" fill="var(--fill-0, #C4C6D4)"/>
<path id="path60" d="M47.097 56.7967C46.783 56.9014 46.5214 57.027 46.5214 57.0793C46.5214 57.1421 46.6679 57.4665 46.8353 57.8014C47.2121 58.5444 48.3528 59.8003 49.1377 60.3235C49.7342 60.7107 51.3145 61.5584 51.6599 61.6631C51.7645 61.6945 52.1936 61.8305 52.5913 61.9771C53.2715 62.2073 53.5541 62.291 55.0611 62.7201C55.3855 62.8143 55.7309 62.8875 55.846 62.8875C55.9506 62.8875 56.3483 62.9503 56.7251 63.0341C58.1065 63.348 58.9856 63.5155 59.2158 63.5155C59.3519 63.5155 59.7496 63.5783 60.1054 63.662C61.0996 63.8922 62.2717 64.0806 62.324 64.0178C62.3973 63.9445 62.1252 62.8247 61.9368 62.4166C61.3612 61.1398 59.8647 59.7165 58.2949 58.9212C58.0332 58.7956 57.7507 58.6491 57.667 58.6072C57.4472 58.4816 56.8507 58.2305 56.3588 58.0421C56.1286 57.9584 55.7518 57.8223 55.5216 57.7281C52.989 56.7967 48.6458 56.3153 47.097 56.7967Z" fill="var(--fill-0, #C4C6D4)"/>
<path id="path62" d="M38.9866 58.9107C38.6412 59.0886 38.1389 59.3607 37.8668 59.5177C36.2342 60.47 34.9365 62.0189 34.8318 63.1491L34.8004 63.4631L35.4388 63.4945C36.2656 63.5364 37.1028 63.1596 37.804 62.448C38.3691 61.8724 38.84 60.9619 39.6773 58.827C39.7924 58.5235 39.7296 58.5339 38.9866 58.9107Z" fill="var(--fill-0, #C4C6D4)"/>
<path id="path64" d="M42.3874 58.9839C42.5444 59.4863 42.806 60.1665 42.9002 60.3549C42.9525 60.4491 43.1095 60.763 43.2455 61.0351C43.6746 61.9351 43.7479 62.0293 44.3653 62.5945C45.0874 63.2433 45.7467 63.5154 46.6049 63.5154H47.2224L47.1491 63.0968C47.1072 62.8666 46.9607 62.4793 46.8247 62.2282C46.6886 61.9875 46.5316 61.6944 46.4793 61.5793C46.2491 61.0561 44.7316 59.8421 43.413 59.1304C42.4502 58.6072 42.2618 58.5862 42.3874 58.9839Z" fill="var(--fill-0, #C4C6D4)"/>
</g>
</svg>
