<svg preserveAspectRatio="none" width="100%" height="100%" overflow="visible" style="display: block;" viewBox="0 0 81.1148 63.3856" fill="none" xmlns="http://www.w3.org/2000/svg">
<g id="g3074">
<path id="path14" d="M5.9701 0.115155C5.94938 0.187665 5.8458 0.602007 5.75257 1.02671C5.65934 1.45141 5.52468 2.03149 5.44181 2.32152C4.62349 5.39801 4.5199 7.69761 5.14142 9.33426C5.60755 10.598 5.86651 11.0641 6.06333 11.0641C6.31193 11.0745 7.32707 9.42748 7.74141 8.32948C8.40435 6.62032 8.43543 6.46494 8.43543 4.84901C8.44579 3.22272 8.42507 3.15021 7.74141 1.77252C7.53424 1.36854 7.18205 0.892045 6.8195 0.550213C6.22906 -0.0195061 6.03225 -0.112733 5.9701 0.115155Z" fill="var(--fill-0, #C4C6D4)"/>
<path id="path16" d="M74.4601 0.426145C73.6729 1.17196 73.2585 1.79347 72.9167 2.80861C72.6163 3.67873 72.5956 5.92653 72.8753 6.87951C73.4036 8.69226 74.6984 11.1162 75.092 11.0436C75.237 11.0229 75.6514 10.2978 75.9207 9.62453C76.1486 9.03409 76.449 7.39744 76.449 6.72414C76.449 5.92653 76.1486 4.16558 75.6721 2.26997C75.5996 1.95921 75.4442 1.32734 75.3406 0.881922C75.2267 0.426146 75.1024 0.0428802 75.0402 0.0221631C74.9884 0.00144606 74.7294 0.187899 74.4601 0.426145Z" fill="var(--fill-0, #C4C6D4)"/>
<path id="path18" d="M0.997504 7.72918C0.893918 7.83276 0.924994 9.024 1.03894 9.63515C1.10109 9.94591 1.19432 10.5674 1.24611 11.0232C1.474 13.1053 2.07479 15.2598 2.84132 16.7722C3.43176 17.9531 4.78873 19.3515 5.35845 19.3618C5.55526 19.3618 5.58634 19.2893 5.65885 18.6574C5.82458 17.0622 5.58634 14.4104 5.10984 12.7324C4.47797 10.4638 3.28674 8.66145 2.05407 8.09173C1.31862 7.76025 1.05965 7.66703 0.997504 7.72918Z" fill="var(--fill-0, #C4C6D4)"/>
<path id="path20" d="M79.6601 7.82271C78.7589 8.11275 77.7645 8.99322 77.143 10.0291C75.9207 12.0904 75.237 15.5087 75.4649 18.4299C75.5478 19.4864 75.641 19.5693 76.2729 19.1342C77.7645 18.0984 78.6864 16.4824 79.3804 13.7167C79.6705 12.5876 79.8673 11.5414 79.8673 11.2307C79.8673 11.0546 79.9398 10.5574 80.0226 10.1119C80.1055 9.66653 80.178 8.95179 80.178 8.52709C80.178 7.71912 80.1366 7.66733 79.6601 7.82271Z" fill="var(--fill-0, #C4C6D4)"/>
<path id="path22" d="M10.5173 12.8048C9.14995 14.5243 7.88621 16.9689 7.32685 18.9474C6.89179 20.4598 6.83999 20.8016 6.83999 22.1689C6.83999 23.9402 7.03681 24.6032 7.86549 25.6701C8.19696 26.0948 8.22804 26.1052 8.3627 25.9291C8.50772 25.7322 10.1547 22.3968 10.4448 21.7442C10.5276 21.5474 10.6623 21.247 10.7348 21.0916C10.8177 20.9259 10.8798 20.7291 10.8798 20.6358C10.8798 20.553 10.942 20.3562 11.0248 20.2111C11.1802 19.9108 11.3874 19.2478 11.636 18.2741C12.04 16.6996 12.1228 15.2494 11.8742 14.0789C11.7292 13.3538 11.2424 12.2144 11.0766 12.2144C11.0248 12.2144 10.7762 12.4837 10.5173 12.8048Z" fill="var(--fill-0, #C4C6D4)"/>
<path id="path24" d="M69.8507 12.4944C69.4467 13.1055 69.0945 14.5454 69.0945 15.5294C69.1048 16.5239 69.4674 18.492 69.7781 19.2378C69.861 19.4243 69.9232 19.6418 69.9232 19.7246C69.9232 19.8075 69.9853 20.025 70.0682 20.2115C70.1511 20.398 70.3168 20.8123 70.4411 21.1231C71.0626 22.6768 72.72 25.9916 72.8753 25.9916C73.155 25.9916 73.7973 25.0282 74.108 24.1477C74.2634 23.7127 74.3048 23.288 74.2945 22.2003C74.2945 20.7294 74.1702 20.0147 73.6833 18.5852C73.5383 18.1812 73.3933 17.7151 73.3415 17.5494C72.9686 16.3374 70.4618 12.2147 70.0889 12.2147C70.0578 12.2147 69.9439 12.339 69.8507 12.4944Z" fill="var(--fill-0, #C4C6D4)"/>
<path id="path26" d="M0.0656228 15.7156C-0.0586797 15.8296 0.00347156 17.8598 0.169208 18.9371C0.36602 20.3252 0.604267 21.5578 0.79072 22.1586C1.06004 23.0598 1.35008 23.9299 1.44331 24.106C1.90944 25.0279 2.06482 25.3076 2.44809 25.8981C2.91422 26.6024 4.48872 28.1977 4.90306 28.3738C5.02736 28.4359 5.32776 28.6016 5.57637 28.7467C6.21859 29.1196 6.3429 29.0367 6.26003 28.3012C6.08393 26.5196 5.36919 23.3809 4.79948 21.8997C4.71661 21.6718 4.57159 21.2989 4.47836 21.071C4.29191 20.5841 3.98115 19.9108 3.80505 19.6208C3.07996 18.4192 2.65526 17.8495 2.03374 17.1969C1.30865 16.4511 0.179567 15.5913 0.0656228 15.7156Z" fill="var(--fill-0, #C4C6D4)"/>
<path id="path28" d="M80.2817 16.1716C79.3598 16.8657 78.9144 17.3111 78.2618 18.1812C76.9566 19.9007 75.9933 22.3143 75.3717 25.37C75.1439 26.4887 74.916 27.825 74.8538 28.4051C74.7813 29.0577 74.916 29.0991 75.6929 28.6744C76.9359 27.9907 78.1893 26.7581 79.0076 25.4218C79.2251 25.0696 79.8674 23.7127 79.8674 23.6091C79.8674 23.5573 79.9295 23.3605 80.0124 23.174C80.3335 22.4282 80.6753 20.9366 80.955 19.0824C81.1207 17.9844 81.1725 15.778 81.0379 15.7055C80.9861 15.6744 80.6546 15.892 80.2817 16.1716Z" fill="var(--fill-0, #C4C6D4)"/>
<path id="path30" d="M11.035 23.8575C10.9521 24.0543 10.8796 24.3443 10.8796 24.4997C10.8796 24.6447 10.7968 25.0591 10.7035 25.4112C10.4446 26.3849 10.4446 31.0152 10.7035 32.1029C11.1593 33.957 11.3768 34.5682 12.0191 35.9355C12.6406 37.2614 13.9561 39.2502 14.2047 39.2502C14.4326 39.2502 14.7226 38.4319 14.9194 37.2303C14.9609 36.9403 15.0541 36.5052 15.137 36.2463C15.3441 35.5005 15.3131 31.5124 15.0852 30.6527C14.5569 28.6327 14.0286 27.2861 13.3657 26.2503C13.2517 26.0742 13.1171 25.8463 13.0653 25.7324C12.8995 25.3905 11.4597 23.5778 11.3147 23.526C11.2422 23.5053 11.1179 23.6503 11.035 23.8575Z" fill="var(--fill-0, #C4C6D4)"/>
<path id="path32" d="M69.1153 24.3028C68.4937 25.0797 67.6236 26.4056 67.4268 26.8614C67.375 26.9753 67.2922 27.1514 67.2404 27.2343C66.8675 27.8662 66.3702 29.3164 66.0284 30.7458C65.8109 31.6781 65.7798 35.3761 65.987 36.1426C66.0595 36.4016 66.1527 36.8677 66.2045 37.1785C66.3495 38.1315 66.6499 39.0638 66.8364 39.1881C66.9814 39.2709 67.0539 39.2502 67.1782 39.0948C67.375 38.8359 68.2762 37.4996 68.4316 37.2303C68.7113 36.7538 69.6125 34.91 69.6125 34.8064C69.6125 34.7442 69.6746 34.5474 69.7575 34.361C70.5137 32.5793 70.8451 29.7307 70.6069 27.0789C70.524 26.1674 70.3997 25.2558 70.3479 25.059C70.2858 24.8622 70.234 24.5618 70.234 24.3857C70.234 24.0439 70.0372 23.5985 69.8611 23.5363C69.7989 23.5156 69.4571 23.8574 69.1153 24.3028Z" fill="var(--fill-0, #C4C6D4)"/>
<path id="path34" d="M0.0653536 27.5244C-0.0278732 27.6694 0.417544 29.0574 0.862961 30.0311C1.59842 31.6574 3.18327 33.2423 5.25498 34.4335C5.7004 34.6925 6.13546 34.9514 6.21832 35.0032C6.88127 35.3968 10.3203 37.0749 10.4757 37.0749C10.6518 37.0749 10.6725 37.0231 10.6207 36.6813C10.5068 36.008 10.2478 35.2518 9.7713 34.2263C9.00477 32.5586 7.36812 30.953 5.02709 29.5443C4.48845 29.2232 2.59284 28.3323 1.66057 27.9594C1.34981 27.8455 0.956188 27.6694 0.80081 27.5865C0.469337 27.4208 0.148222 27.4001 0.0653536 27.5244Z" fill="var(--fill-0, #C4C6D4)"/>
<path id="path36" d="M80.2816 27.6172C80.0848 27.7105 79.7636 27.8451 79.5875 27.9176C78.821 28.2387 78.4999 28.3734 78.1788 28.5081C77.6816 28.7256 76.4282 29.3678 76.0242 29.6061C75.8274 29.7304 75.5995 29.8547 75.5166 29.8961C75.3716 29.9583 75.0401 30.1965 74.1182 30.8802C73.5485 31.3152 72.3055 32.6308 71.9429 33.1901C71.539 33.8324 70.8553 35.2515 70.8553 35.4587C70.8553 35.5312 70.7828 35.7694 70.6999 35.9662C70.4928 36.4531 70.4928 37.0746 70.6896 37.0746C70.8139 37.0746 74.6154 35.1893 75.5166 34.6818C77.4123 33.6045 79.1007 32.0921 79.9397 30.7041C80.4577 29.8547 81.1931 27.7623 81.0585 27.5447C80.9652 27.3997 80.7063 27.4308 80.2816 27.6172Z" fill="var(--fill-0, #C4C6D4)"/>
<path id="path38" d="M2.44822 35.6146C2.38606 35.7078 2.47929 36.0496 2.58288 36.1429C2.61395 36.1739 2.75897 36.3604 2.90399 36.5572C4.16773 38.37 6.62271 40.6903 8.34222 41.695C8.6219 41.8608 8.95338 42.0472 9.06732 42.1197C9.18126 42.1923 9.37808 42.2958 9.51274 42.358C9.6474 42.4098 9.98923 42.5652 10.2896 42.6998C11.802 43.3938 13.2418 43.7668 15.2307 44.0154C16.3494 44.15 16.3701 44.15 16.3701 43.9636C16.3701 43.7564 15.2928 42.1197 14.5573 41.2186C13.739 40.2241 11.5534 38.2353 10.9837 37.9763C10.9008 37.9349 10.6936 37.8106 10.5175 37.6966C10.0721 37.417 9.00517 36.8576 8.70477 36.7644C8.55975 36.7126 8.1972 36.5779 7.88645 36.464C7.03705 36.1429 5.77331 35.8632 4.56136 35.7285C2.62431 35.5214 2.51037 35.511 2.44822 35.6146Z" fill="var(--fill-0, #C4C6D4)"/>
<path id="path40" d="M77.899 35.5834C74.9468 35.8527 73.5795 36.1945 71.6321 37.1475C70.1508 37.883 69.1771 38.5666 67.9341 39.7993C66.4632 41.2391 64.5365 43.8391 64.7644 44.0774C64.8473 44.1499 66.6704 43.9427 67.5923 43.7459C69.2186 43.4041 70.1612 43.0726 71.6839 42.3061C72.3675 41.9642 73.8177 41.0734 73.9628 40.9077C73.9938 40.8766 74.2217 40.6901 74.4807 40.4933C75.5787 39.6646 76.9667 38.2248 77.9922 36.8678C78.7898 35.8009 78.8624 35.6559 78.6655 35.5834C78.5723 35.5523 78.448 35.5316 78.3859 35.5419C78.3134 35.5419 78.0958 35.573 77.899 35.5834Z" fill="var(--fill-0, #C4C6D4)"/>
<path id="path42" d="M16.5355 36.0082C16.3387 36.2153 16.7738 38.8361 17.2088 40.1309C17.271 40.2966 17.3642 40.5763 17.4056 40.7524C17.5921 41.405 18.1722 42.8344 18.4415 43.2902C18.4933 43.3731 18.6487 43.6631 18.7937 43.9325C19.1251 44.5436 19.7363 45.4966 19.9124 45.683C19.9849 45.7659 20.2542 46.087 20.5132 46.3978C21.4351 47.5165 22.761 48.7077 24.0455 49.5364C24.6566 49.9404 24.8534 50.0026 24.8741 49.785C24.9984 48.3555 24.4391 45.393 23.714 43.6528C23.4861 43.0934 22.8853 41.9022 22.6885 41.5811C22.5745 41.405 22.4502 41.1978 22.4088 41.1149C22.2431 40.742 21.3419 39.6544 20.5753 38.8775C19.8088 38.111 18.1411 36.7643 17.965 36.7643C17.9236 36.7643 17.8096 36.7022 17.7267 36.6193C17.4471 36.3811 16.5977 35.946 16.5355 36.0082Z" fill="var(--fill-0, #C4C6D4)"/>
<path id="path44" d="M64.1742 36.1531C64.0084 36.2567 63.7909 36.381 63.7081 36.4224C63.6252 36.4639 63.3455 36.6296 63.0865 36.8057C61.3877 37.9348 59.6682 39.6128 58.7774 41.0113C57.9487 42.3268 57.12 44.1706 56.8714 45.2583C56.83 45.4551 56.7471 45.828 56.685 46.0869C56.3846 47.3092 56.2499 48.2415 56.2499 49.0288C56.2499 49.4949 56.281 49.9092 56.3121 49.9507C56.4674 50.106 58.622 48.4901 59.72 47.3818C61.2634 45.8383 62.2371 44.3674 63.2316 42.0989C64.0602 40.2136 64.9096 36.3499 64.5782 36.0392C64.5264 35.9977 64.3503 36.0495 64.1742 36.1531Z" fill="var(--fill-0, #C4C6D4)"/>
<path id="path46" d="M9.79193 44.232C9.11863 44.3148 8.45568 44.5324 8.26923 44.7188C8.19672 44.7913 8.09313 44.8431 8.03098 44.8431C7.86525 44.8431 7.46126 45.2885 7.46126 45.4854C7.46126 45.6097 9.00469 46.718 9.63656 47.0495C9.71943 47.0909 9.93695 47.2152 10.1027 47.3292C10.2788 47.4431 10.5067 47.5778 10.6206 47.6399C10.7346 47.7021 11.1075 47.9092 11.4493 48.1061C12.1951 48.5411 14.5776 49.7116 15.2302 49.9706C15.4891 50.0742 15.8413 50.2088 16.0071 50.2814C16.1832 50.3539 16.5768 50.4885 16.8875 50.5714C17.1983 50.6646 17.7369 50.8096 18.0788 50.9132C19.0007 51.1722 21.4349 51.1825 22.0668 50.9132C22.7712 50.6232 22.8437 50.5818 22.8748 50.4057C22.9162 50.1985 21.5696 49.0073 19.9122 47.8057C19.56 47.5467 19.2493 47.3292 19.2286 47.3292C19.1975 47.3292 18.9074 47.1531 18.576 46.9355C17.9337 46.5005 17.8405 46.4487 16.6079 45.8479C15.2198 45.1539 14.0286 44.6774 13.4692 44.5634C13.3242 44.5324 13.0031 44.4495 12.7441 44.377C12.1537 44.2009 10.5999 44.1284 9.79193 44.232Z" fill="var(--fill-0, #C4C6D4)"/>
<path id="path48" d="M69.3536 44.2225C68.556 44.3054 67.6859 44.5229 66.8158 44.8544C66.505 44.9684 66.1217 45.103 65.9767 45.1548C65.8317 45.1962 65.6245 45.2791 65.5106 45.3413C65.407 45.4034 64.9616 45.6209 64.5369 45.8281C62.6206 46.7604 60.3831 48.2831 58.7879 49.7436C58.0835 50.3962 58.0835 50.5516 58.7879 50.8209C60.4453 51.4424 63.3042 51.1006 65.9353 49.9715C66.5879 49.6815 67.7066 49.1739 67.8516 49.0911C67.9345 49.0393 68.3799 48.8114 68.8357 48.5731C69.2915 48.3452 69.8094 48.0552 69.9751 47.9516C70.1512 47.8377 70.3791 47.703 70.493 47.6409C70.607 47.5787 70.8452 47.4441 71.011 47.3301C71.1871 47.2162 71.3942 47.0919 71.4771 47.0504C71.56 47.009 71.9225 46.7811 72.2851 46.5325C72.6476 46.2839 72.9584 46.0871 72.9895 46.0871C73.0205 46.0871 73.1759 45.9835 73.3416 45.8592C73.7974 45.5277 73.7456 45.2584 73.1448 44.8648C72.8548 44.6887 72.5751 44.5333 72.513 44.5333C72.4508 44.5333 72.2747 44.4711 72.1193 44.3883C71.7671 44.2122 70.2962 44.119 69.3536 44.2225Z" fill="var(--fill-0, #C4C6D4)"/>
<path id="path50" d="M26.4691 44.5846C26.4173 44.6053 26.2412 44.6468 26.0858 44.6778C25.7129 44.7607 25.7129 45.0197 26.0651 45.5376C26.2101 45.7551 26.3759 46.0244 26.4277 46.1384C26.4795 46.2523 26.6141 46.4802 26.7281 46.6563C26.842 46.822 26.9767 47.0603 27.0388 47.1742C27.101 47.2882 27.2356 47.5161 27.3496 47.6922C27.4635 47.8579 27.5982 48.0961 27.6603 48.2101C27.7225 48.324 27.8468 48.5416 27.9504 48.6969C28.0436 48.8523 28.3129 49.2667 28.5305 49.6292C29.5456 51.2555 31.1512 53.0993 32.3217 54.0005C33.0364 54.5495 34.0516 55.026 34.8699 55.1917C35.6882 55.3678 35.9886 55.316 36.03 55.0157C36.0818 54.6945 35.7089 53.4619 35.2739 52.4571C34.8699 51.5248 34.6627 51.1416 34.1655 50.3543C33.9998 50.1057 33.8755 49.8882 33.8755 49.8571C33.8755 49.826 33.5336 49.3495 33.1089 48.8005C31.8038 47.0914 30.136 45.6308 28.8516 45.0611C28.1679 44.7607 26.7799 44.481 26.4691 44.5846Z" fill="var(--fill-0, #C4C6D4)"/>
<path id="path52" d="M53.2973 44.7405C52.2097 45.0202 51.8989 45.1756 50.7077 46.0561C49.3611 47.0401 47.9212 48.6975 46.8543 50.4895C46.6368 50.8521 45.7149 52.758 45.5491 53.1827C45.2902 53.856 45.0312 54.9644 45.0934 55.1405C45.1762 55.3373 45.6009 55.3477 46.4089 55.1612C48.3977 54.7262 50.4798 52.872 52.5411 49.7126C52.9658 49.06 54.3125 46.8433 54.416 46.6051C54.4575 46.5222 54.5818 46.3047 54.6957 46.1389C54.8097 45.9628 54.934 45.7557 54.9754 45.6728C55.0065 45.5899 55.1204 45.4138 55.224 45.2792C55.4726 44.9581 55.3794 44.7716 54.9236 44.6369C54.416 44.5023 54.1571 44.5126 53.2973 44.7405Z" fill="var(--fill-0, #C4C6D4)"/>
<path id="path54" d="M17.6649 52.4054C17.323 52.4572 16.7222 52.5504 16.3182 52.6022C13.9151 52.9544 12.1023 54.0835 11.429 55.6373C11.3565 55.7926 11.3358 55.9377 11.3772 55.9584C11.5222 56.0413 13.3557 56.3416 14.7645 56.5074C16.8362 56.7663 21.4561 56.7663 22.6887 56.5074C24.6672 56.1034 26.1485 55.4715 27.0186 54.6532C27.5987 54.0938 27.6712 53.9177 27.3604 53.7624C26.9357 53.5241 25.123 53.0373 23.7764 52.7783C21.8393 52.4158 18.825 52.2293 17.6649 52.4054Z" fill="var(--fill-0, #C4C6D4)"/>
<path id="path56" d="M60.8082 52.3536C60.7254 52.3743 60.0935 52.4468 59.4098 52.509C58.2289 52.6229 57.1827 52.7886 56.1469 53.0476C55.8879 53.1098 55.515 53.1926 55.3182 53.2341C54.5102 53.4205 53.5572 53.8141 53.5572 53.9695C53.5572 54.1042 54.2927 54.85 54.7485 55.1607C55.1525 55.4301 56.209 55.9376 56.613 56.0412C56.7891 56.0827 57.0688 56.1655 57.2345 56.2173C57.4106 56.2795 57.9907 56.4141 58.5293 56.5074C59.8863 56.7663 64.2783 56.7663 66.35 56.5074C68.0178 56.3105 69.6337 56.0309 69.7476 55.9376C70.017 55.6994 68.6911 54.0317 67.9142 53.6484C67.6863 53.5241 67.417 53.3894 67.3341 53.348C66.7955 53.0372 65.4799 52.6747 64.2783 52.509C63.4186 52.395 61.0775 52.2811 60.8082 52.3536Z" fill="var(--fill-0, #C4C6D4)"/>
<path id="path58" d="M30.1463 56.1968C28.8826 56.4143 27.7742 56.6526 27.2977 56.8183C27.0595 56.9012 26.8005 56.9633 26.7073 56.9633C26.6037 56.9633 26.3758 57.0255 26.1893 57.1084C26.0029 57.1912 25.6403 57.3362 25.3814 57.4295C22.0252 58.7346 19.7774 60.796 19.5288 62.8056C19.4666 63.251 19.4874 63.3856 19.5909 63.3856C19.7981 63.3856 22.0874 62.9713 23.3615 62.702C23.7654 62.6191 24.1798 62.5569 24.2937 62.5569C24.4905 62.5569 25.1535 62.4223 26.5726 62.0701C29.618 61.3346 31.8555 60.3402 33.2746 59.0765C34.1447 58.31 35.2531 56.6422 35.0355 56.4247C34.6523 56.0414 31.8865 55.9068 30.1463 56.1968Z" fill="var(--fill-0, #C4C6D4)"/>
<path id="path60" d="M46.6169 56.2172C46.3061 56.3208 46.0471 56.4451 46.0471 56.4969C46.0471 56.5591 46.1922 56.8802 46.3579 57.2116C46.7308 57.9471 47.8599 59.1901 48.6368 59.7081C49.2272 60.0913 50.7913 60.9304 51.1332 61.0339C51.2368 61.065 51.6615 61.1997 52.0551 61.3447C52.7284 61.5726 53.0081 61.6555 54.4997 62.0802C54.8208 62.1734 55.1626 62.2459 55.2766 62.2459C55.3802 62.2459 55.7738 62.308 56.1467 62.3909C57.514 62.7017 58.3841 62.8674 58.612 62.8674C58.7467 62.8674 59.1403 62.9296 59.4925 63.0124C60.4766 63.2403 61.6367 63.4268 61.6885 63.3646C61.761 63.2921 61.4917 62.1837 61.3053 61.7798C60.7355 60.516 59.2543 59.1073 57.7005 58.32C57.4415 58.1957 57.1618 58.0507 57.079 58.0092C56.8614 57.8849 56.271 57.6363 55.7842 57.4499C55.5563 57.367 55.1834 57.2324 54.9555 57.1391C52.4487 56.2172 48.1499 55.7407 46.6169 56.2172Z" fill="var(--fill-0, #C4C6D4)"/>
<path id="path62" d="M38.5889 58.3096C38.2471 58.4857 37.7498 58.7551 37.4805 58.9104C35.8646 59.8531 34.5801 61.3861 34.4766 62.5049L34.4455 62.8156L35.0773 62.8467C35.8957 62.8881 36.7244 62.5152 37.4184 61.8108C37.9777 61.2411 38.4439 60.3399 39.2726 58.2268C39.3865 57.9264 39.3243 57.9367 38.5889 58.3096Z" fill="var(--fill-0, #C4C6D4)"/>
<path id="path64" d="M41.9549 58.3819C42.1103 58.8791 42.3693 59.5524 42.4625 59.7388C42.5143 59.8321 42.6697 60.1428 42.8043 60.4121C43.229 61.303 43.3015 61.3962 43.9127 61.9556C44.6274 62.5978 45.28 62.8671 46.1294 62.8671H46.7406L46.6681 62.4528C46.6266 62.2249 46.4816 61.8416 46.347 61.593C46.2123 61.3548 46.0569 61.0647 46.0051 60.9508C45.7772 60.4329 44.2752 59.2313 42.9701 58.5269C42.0171 58.009 41.8306 57.9882 41.9549 58.3819Z" fill="var(--fill-0, #C4C6D4)"/>
</g>
</svg>
