<svg preserveAspectRatio="none" width="100%" height="100%" overflow="visible" style="display: block;" viewBox="0 0 20 20" fill="none" xmlns="http://www.w3.org/2000/svg">
<g id="Frame" clip-path="url(#clip0_0_17)">
<path id="Vector" d="M17.645 5.67633C18.0856 5.23585 18.3332 4.63839 18.3332 4.01538C18.3333 3.39237 18.0859 2.79484 17.6454 2.35425C17.2049 1.91366 16.6075 1.66609 15.9845 1.66602C15.3615 1.66594 14.7639 1.91335 14.3233 2.35383L3.20167 13.478C3.00819 13.6709 2.8651 13.9084 2.785 14.1697L1.68417 17.7963C1.66263 17.8684 1.66101 17.945 1.67946 18.0179C1.69792 18.0908 1.73577 18.1574 1.789 18.2105C1.84223 18.2636 1.90885 18.3014 1.9818 18.3197C2.05475 18.3381 2.1313 18.3363 2.20334 18.3147L5.83084 17.2147C6.09181 17.1353 6.32932 16.9931 6.5225 16.8005L17.645 5.67633Z" stroke="var(--stroke-0, #141414)" stroke-width="1.4" stroke-linecap="round" stroke-linejoin="round"/>
<path id="Vector_2" d="M12.5 4.16602L15.8333 7.49935" stroke="var(--stroke-0, #141414)" stroke-width="1.4" stroke-linecap="round" stroke-linejoin="round"/>
</g>
<defs>
<clipPath id="clip0_0_17">
<rect width="20" height="20" fill="white"/>
</clipPath>
</defs>
</svg>
