<svg preserveAspectRatio="none" width="100%" height="100%" overflow="visible" style="display: block;" viewBox="0 0 20 20" fill="none" xmlns="http://www.w3.org/2000/svg">
<g id="Frame">
<path id="Vector" d="M8.33334 9.16602V14.166" stroke="var(--stroke-0, #D13400)" stroke-width="1.4" stroke-linecap="round" stroke-linejoin="round"/>
<path id="Vector_2" d="M11.6667 9.16602V14.166" stroke="var(--stroke-0, #D13400)" stroke-width="1.4" stroke-linecap="round" stroke-linejoin="round"/>
<path id="Vector_3" d="M15.8333 5V16.6667C15.8333 17.1087 15.6577 17.5326 15.3452 17.8452C15.0326 18.1577 14.6087 18.3333 14.1667 18.3333H5.83333C5.39131 18.3333 4.96738 18.1577 4.65482 17.8452C4.34226 17.5326 4.16667 17.1087 4.16667 16.6667V5" stroke="var(--stroke-0, #D13400)" stroke-width="1.4" stroke-linecap="round" stroke-linejoin="round"/>
<path id="Vector_4" d="M2.5 5H17.5" stroke="var(--stroke-0, #D13400)" stroke-width="1.4" stroke-linecap="round" stroke-linejoin="round"/>
<path id="Vector_5" d="M6.66666 4.99935V3.33268C6.66666 2.89065 6.84226 2.46673 7.15482 2.15417C7.46738 1.84161 7.8913 1.66602 8.33333 1.66602H11.6667C12.1087 1.66602 12.5326 1.84161 12.8452 2.15417C13.1577 2.46673 13.3333 2.89065 13.3333 3.33268V4.99935" stroke="var(--stroke-0, #D13400)" stroke-width="1.4" stroke-linecap="round" stroke-linejoin="round"/>
</g>
</svg>
