<svg preserveAspectRatio="none" width="100%" height="100%" overflow="visible" style="display: block;" viewBox="0 0 20 20" fill="none" xmlns="http://www.w3.org/2000/svg">
<g id="Frame">
<path id="Vector" d="M17.5 2.5H2.5C2.03976 2.5 1.66667 2.8731 1.66667 3.33333V5.83333C1.66667 6.29357 2.03976 6.66667 2.5 6.66667H17.5C17.9602 6.66667 18.3333 6.29357 18.3333 5.83333V3.33333C18.3333 2.8731 17.9602 2.5 17.5 2.5Z" stroke="var(--stroke-0, #141414)" stroke-width="1.4" stroke-linecap="round" stroke-linejoin="round"/>
<path id="Vector_2" d="M3.33334 6.66602V15.8327C3.33334 16.2747 3.50893 16.6986 3.82149 17.0112C4.13405 17.3238 4.55798 17.4993 5 17.4993H15C15.442 17.4993 15.866 17.3238 16.1785 17.0112C16.4911 16.6986 16.6667 16.2747 16.6667 15.8327V6.66602" stroke="var(--stroke-0, #141414)" stroke-width="1.4" stroke-linecap="round" stroke-linejoin="round"/>
<path id="Vector_3" d="M8.33333 10H11.6667" stroke="var(--stroke-0, #141414)" stroke-width="1.4" stroke-linecap="round" stroke-linejoin="round"/>
</g>
</svg>
