<svg preserveAspectRatio="none" width="100%" height="100%" overflow="visible" style="display: block;" viewBox="0 0 20 20" fill="none" xmlns="http://www.w3.org/2000/svg">
<g id="Frame">
<path id="Vector" d="M10.0001 10.8327C10.4603 10.8327 10.8334 10.4596 10.8334 9.99935C10.8334 9.53911 10.4603 9.16602 10.0001 9.16602C9.53984 9.16602 9.16675 9.53911 9.16675 9.99935C9.16675 10.4596 9.53984 10.8327 10.0001 10.8327Z" stroke="var(--stroke-0, #141414)" stroke-width="1.66667" stroke-linecap="round" stroke-linejoin="round"/>
<path id="Vector_2" d="M15.8333 10.8327C16.2936 10.8327 16.6667 10.4596 16.6667 9.99935C16.6667 9.53911 16.2936 9.16602 15.8333 9.16602C15.3731 9.16602 15 9.53911 15 9.99935C15 10.4596 15.3731 10.8327 15.8333 10.8327Z" stroke="var(--stroke-0, #141414)" stroke-width="1.66667" stroke-linecap="round" stroke-linejoin="round"/>
<path id="Vector_3" d="M4.16659 10.8327C4.62682 10.8327 4.99992 10.4596 4.99992 9.99935C4.99992 9.53911 4.62682 9.16602 4.16659 9.16602C3.70635 9.16602 3.33325 9.53911 3.33325 9.99935C3.33325 10.4596 3.70635 10.8327 4.16659 10.8327Z" stroke="var(--stroke-0, #141414)" stroke-width="1.66667" stroke-linecap="round" stroke-linejoin="round"/>
</g>
</svg>
