<svg preserveAspectRatio="none" width="100%" height="100%" overflow="visible" style="display: block;" viewBox="0 0 24 24" fill="none" xmlns="http://www.w3.org/2000/svg">
<g id="climbing_stairs">
<path id="Vector" fill-rule="evenodd" clip-rule="evenodd" d="M5.99997 3.75C6 2.36931 7.11928 1.25003 8.49997 1.25C9.88071 1.24997 11 2.36927 11 3.75C10.9999 5.13069 9.88067 6.24997 8.49998 6.25C7.11924 6.25003 5.99995 5.13073 5.99997 3.75ZM14.3032 2.78732C14.9729 2.95476 15.3801 3.63343 15.2127 4.30317C14.8949 5.57425 13.9993 7.02661 12.8549 8.09942C12.2147 8.69961 11.4086 9.25927 10.4979 9.56497C10.5247 9.74796 10.542 9.93206 10.5526 10.1135C10.5673 10.3666 10.5699 10.6345 10.5616 10.9144C10.5632 10.9132 10.5648 10.912 10.5664 10.9109C11.108 10.5183 11.6125 10.1526 12.0362 9.87193C12.3538 9.6616 12.6779 9.46336 12.9854 9.31967C13.2505 9.19579 13.7 9.01454 14.2005 9.07014C14.4884 9.10214 14.7988 9.21353 15.066 9.44848C15.3247 9.67586 15.4662 9.95131 15.5426 10.189C15.6814 10.621 15.6557 11.0877 15.6068 11.4651C15.5455 11.9388 15.4082 12.5318 15.2019 13.25H15.5C16.1904 13.25 16.75 13.8096 16.75 14.5C16.75 15.1904 16.1904 15.75 15.5 15.75H17.25V12C17.25 11.3096 17.8096 10.75 18.5 10.75H22C22.6904 10.75 23.25 11.3096 23.25 12C23.25 12.6904 22.6904 13.25 22 13.25H19.75V17C19.75 17.6904 19.1904 18.25 18.5 18.25H14.75V22C14.75 22.6904 14.1904 23.25 13.5 23.25C12.8096 23.25 12.25 22.6904 12.25 22V17C12.25 16.3096 12.8096 15.75 13.5 15.75C13.0982 15.75 12.7209 15.5568 12.4859 15.2309C12.251 14.9049 12.1871 14.4859 12.3141 14.1047C12.551 13.394 12.7306 12.8116 12.8612 12.339C12.6259 12.5058 12.3716 12.6902 12.0941 12.8914C11.8276 13.0847 11.5397 13.2935 11.2265 13.5171C10.8539 13.7833 10.4841 14.0175 10.1194 14.2047C9.66948 16.3231 8.90967 18.7075 8.00821 20.7495C8.69479 20.7539 9.25 21.3118 9.25 21.9994C9.25 22.6898 8.69036 23.2494 8 23.2494H6C5.5571 23.2494 5.14727 23.0151 4.92266 22.6334C4.69805 22.2516 4.69221 21.7796 4.9073 21.3924C5.94123 19.5313 6.90589 16.8922 7.49253 14.4806C7.39057 14.4329 7.29091 14.376 7.19445 14.309C6.78576 14.0252 6.53956 13.6346 6.39596 13.2612C6.12637 12.5603 6.14304 11.73 6.23699 11.0037C6.26727 10.7696 6.30799 10.5294 6.35758 10.2858C6.10787 10.428 5.85088 10.5918 5.59185 10.7731C4.42863 11.5874 3.43009 12.6075 3.04012 13.1926C2.65722 13.767 1.88114 13.9223 1.3067 13.5394C0.732264 13.1565 0.576987 12.3804 0.959884 11.806C1.56991 10.8908 2.82137 9.66085 4.15815 8.72506C4.83664 8.2501 5.5875 7.81484 6.34229 7.53175C7.07071 7.25855 7.93866 7.07583 8.78501 7.28169C9.45343 7.39661 10.2914 7.07587 11.1451 6.27558C12.0007 5.47339 12.6051 4.42575 12.7873 3.69683C12.9548 3.02709 13.6334 2.61989 14.3032 2.78732Z" fill="url(#paint0_linear_0_75)"/>
</g>
<defs>
<linearGradient id="paint0_linear_0_75" x1="11.9999" y1="1.25" x2="11.9999" y2="23.25" gradientUnits="userSpaceOnUse">
<stop stop-color="#4868EA"/>
<stop offset="1" stop-color="#26ABE9"/>
</linearGradient>
</defs>
</svg>
