<svg preserveAspectRatio="none" width="100%" height="100%" overflow="visible" style="display: block;" viewBox="0 0 24 24" fill="none" xmlns="http://www.w3.org/2000/svg">
<g id="barbells_02" clip-path="url(#clip0_0_64)">
<path id="Vector" fill-rule="evenodd" clip-rule="evenodd" d="M22.3037 0.787353C22.9735 0.954857 23.3806 1.63357 23.2131 2.30329L22.2126 6.30329C22.0451 6.97302 21.3664 7.38015 20.6967 7.21265C20.027 7.04514 19.6198 6.36643 19.7874 5.69671L19.9216 5.1599C19.7179 5.14278 19.4868 5.12379 19.2331 5.10364C19.133 6.92209 18.587 8.9927 17.5754 10.6998C16.8049 12 15.7009 13.1795 14.2499 13.7972L14.2499 16.1869C14.706 15.8611 15.1795 15.5639 15.6412 15.3131C16.1337 15.0456 16.6402 14.8158 17.1213 14.6619C17.5726 14.5176 18.1304 14.3973 18.6712 14.479C18.9586 14.5224 19.2937 14.6311 19.5938 14.8745C19.9066 15.1284 20.1025 15.4654 20.1929 15.8255C20.3549 16.4706 20.1716 17.1429 19.9414 17.7033C19.6173 18.4921 19.0117 19.4953 18.0801 20.7521C18.7331 20.7934 19.25 21.3361 19.25 21.9995C19.25 22.6899 18.6904 23.2495 18 23.2495H15.4996C15.0146 23.2495 14.5733 22.9689 14.3676 22.5297C14.1619 22.0904 14.2288 21.5718 14.5394 21.1992C16.0785 19.3525 16.9581 18.0701 17.4031 17.2284C17.2261 17.3068 17.0354 17.4008 16.8346 17.5099C16.0347 17.9444 15.1864 18.5565 14.555 19.1677C13.9132 19.789 13.0195 20.2492 11.9999 20.2492C10.9803 20.2492 10.0866 19.789 9.44483 19.1677C8.81337 18.5565 7.96504 17.9444 7.16514 17.5099C6.96429 17.4008 6.77347 17.3067 6.5964 17.2283C7.04132 18.07 7.92081 19.3524 9.45989 21.1993C9.77039 21.5719 9.83733 22.0905 9.6316 22.5297C9.42588 22.969 8.98464 23.2495 8.49961 23.2495H6C5.30964 23.2495 4.75 22.6899 4.75 21.9995C4.75 21.3363 5.26655 20.7937 5.91929 20.7521C4.98782 19.4953 4.38221 18.492 4.05821 17.7032C3.82806 17.1428 3.64476 16.4705 3.80678 15.8254C3.89721 15.4654 4.09314 15.1283 4.406 14.8745C4.70607 14.6311 5.04119 14.5224 5.32854 14.479C5.86931 14.3973 6.42711 14.5176 6.8785 14.6619C7.35959 14.8158 7.86607 15.0456 8.35852 15.3131C8.82022 15.5639 9.29375 15.8611 9.74986 16.1868L9.74987 13.797C8.29898 13.1793 7.19512 11.9999 6.42467 10.6998C5.41307 8.99271 4.86703 6.9221 4.7669 5.10364C4.51323 5.12379 4.28214 5.14277 4.07844 5.15989L4.21268 5.69683C4.38011 6.36657 3.97291 7.04524 3.30317 7.21268C2.63343 7.38011 1.95476 6.97291 1.78732 6.30317L0.787322 2.30317C0.619886 1.63343 1.02709 0.954758 1.69683 0.787322C2.36657 0.619886 3.04524 1.02709 3.21268 1.69683L3.46429 2.70329C3.55896 2.69505 3.66394 2.68602 3.77833 2.67633C4.33652 2.62906 5.11943 2.56606 6.01954 2.50305C7.81286 2.37751 10.0978 2.25 12 2.25C13.9022 2.25 16.1871 2.37751 17.9805 2.50305C18.8806 2.56606 19.6635 2.62906 20.2217 2.67633C20.3362 2.68603 20.4413 2.69507 20.536 2.70332L20.7878 1.69671C20.9553 1.02698 21.634 0.619849 22.3037 0.787353ZM7.26094 4.92631C7.33462 6.38751 7.77958 8.08233 8.57539 9.42524C9.44675 10.8956 10.6026 11.75 12 11.75C13.3975 11.75 14.5533 10.8956 15.4246 9.42525C16.2204 8.08234 16.6654 6.38752 16.7391 4.92631C15.192 4.82996 13.4647 4.75 12 4.75C10.5353 4.75 8.80804 4.82996 7.26094 4.92631ZM9.50006 8.25C9.50009 6.86931 10.6194 5.75003 12.0001 5.75C13.3808 5.74997 14.5001 6.86927 14.5001 8.25C14.5 9.63069 13.3808 10.75 12.0001 10.75C10.6193 10.75 9.50003 9.63073 9.50006 8.25Z" fill="url(#paint0_linear_0_64)"/>
</g>
<defs>
<linearGradient id="paint0_linear_0_64" x1="12.0002" y1="0.749704" x2="12.0002" y2="23.2495" gradientUnits="userSpaceOnUse">
<stop stop-color="#4868EA"/>
<stop offset="1" stop-color="#26ABE9"/>
</linearGradient>
<clipPath id="clip0_0_64">
<rect width="24" height="24" fill="white"/>
</clipPath>
</defs>
</svg>
