<svg preserveAspectRatio="none" width="100%" height="100%" overflow="visible" style="display: block;" viewBox="0 0 24 24" fill="none" xmlns="http://www.w3.org/2000/svg">
<g id="Frame">
<path id="Vector" d="M20.985 12.4864C20.8913 14.2225 20.2967 15.8944 19.2731 17.2998C18.2495 18.7052 16.8407 19.7841 15.217 20.4059C13.5934 21.0278 11.8244 21.166 10.1238 20.8039C8.42325 20.4418 6.86398 19.5949 5.63449 18.3656C4.40499 17.1362 3.55791 15.577 3.19564 13.8765C2.83337 12.176 2.97142 10.4069 3.5931 8.78322C4.21478 7.15948 5.29348 5.75059 6.6988 4.72683C8.10412 3.70308 9.77589 3.1083 11.512 3.0144C11.917 2.9924 12.129 3.4744 11.914 3.8174C11.1949 4.96795 10.887 6.32827 11.0405 7.67635C11.194 9.02443 11.7999 10.2807 12.7593 11.2401C13.7187 12.1995 14.975 12.8054 16.3231 12.9589C17.6712 13.1124 19.0315 12.8045 20.182 12.0854C20.526 11.8704 21.007 12.0814 20.985 12.4864Z" stroke="var(--stroke-0, #141414)" stroke-width="1.6" stroke-linecap="round" stroke-linejoin="round"/>
</g>
</svg>
