<svg preserveAspectRatio="none" width="100%" height="100%" overflow="visible" style="display: block;" viewBox="0 0 24 24" fill="none" xmlns="http://www.w3.org/2000/svg">
<g id="Frame">
<path id="Vector" d="M22 17C22 14.3479 20.9464 11.8043 19.0711 9.92898C17.1957 8.05362 14.6522 7.00005 12 7.00005C9.34783 7.00005 6.80429 8.05362 4.92893 9.92898C3.05357 11.8043 2 14.3479 2 17" stroke="var(--stroke-0, white)" stroke-width="1.6" stroke-linecap="round" stroke-linejoin="round"/>
<path id="Vector_2" d="M6 17C6 15.4087 6.63214 13.8825 7.75736 12.7573C8.88258 11.6321 10.4087 11 12 11C13.5913 11 15.1174 11.6321 16.2426 12.7573C17.3679 13.8825 18 15.4087 18 17" stroke="var(--stroke-0, white)" stroke-width="1.6" stroke-linecap="round" stroke-linejoin="round"/>
<path id="Vector_3" d="M10 17C10 16.4696 10.2107 15.9609 10.5858 15.5858C10.9609 15.2107 11.4696 15 12 15C12.5304 15 13.0391 15.2107 13.4142 15.5858C13.7893 15.9609 14 16.4696 14 17" stroke="var(--stroke-0, white)" stroke-width="1.6" stroke-linecap="round" stroke-linejoin="round"/>
</g>
</svg>
