<svg preserveAspectRatio="none" width="100%" height="100%" overflow="visible" style="display: block;" viewBox="0 0 20 20" fill="none" xmlns="http://www.w3.org/2000/svg">
<g id="Frame">
<path id="Vector" d="M10 14.167V18.3337" stroke="var(--stroke-0, #005D8F)" stroke-width="1.5" stroke-linecap="round" stroke-linejoin="round"/>
<path id="Vector_2" d="M7.49996 8.96699C7.49979 9.27706 7.41314 9.58094 7.24973 9.84445C7.08632 10.108 6.85264 10.3207 6.57496 10.4587L5.09163 11.2087C4.81395 11.3466 4.58027 11.5593 4.41686 11.8229C4.25345 12.0864 4.16679 12.3903 4.16663 12.7003V13.3337C4.16663 13.5547 4.25442 13.7666 4.4107 13.9229C4.56698 14.0792 4.77895 14.167 4.99996 14.167H15C15.221 14.167 15.4329 14.0792 15.5892 13.9229C15.7455 13.7666 15.8333 13.5547 15.8333 13.3337V12.7003C15.8331 12.3903 15.7465 12.0864 15.5831 11.8229C15.4196 11.5593 15.186 11.3466 14.9083 11.2087L13.425 10.4587C13.1473 10.3207 12.9136 10.108 12.7502 9.84445C12.5868 9.58094 12.5001 9.27706 12.5 8.96699V5.83366C12.5 5.61265 12.5878 5.40068 12.744 5.2444C12.9003 5.08812 13.1123 5.00033 13.3333 5.00033C13.7753 5.00033 14.1992 4.82473 14.5118 4.51217C14.8244 4.19961 15 3.77569 15 3.33366C15 2.89163 14.8244 2.46771 14.5118 2.15515C14.1992 1.84259 13.7753 1.66699 13.3333 1.66699H6.66663C6.2246 1.66699 5.80068 1.84259 5.48811 2.15515C5.17555 2.46771 4.99996 2.89163 4.99996 3.33366C4.99996 3.77569 5.17555 4.19961 5.48811 4.51217C5.80068 4.82473 6.2246 5.00033 6.66663 5.00033C6.88764 5.00033 7.0996 5.08812 7.25588 5.2444C7.41216 5.40068 7.49996 5.61265 7.49996 5.83366V8.96699Z" stroke="var(--stroke-0, #005D8F)" stroke-width="1.5" stroke-linecap="round" stroke-linejoin="round"/>
</g>
</svg>
